%TF.GenerationSoftware,KiCad,Pcbnew,8.0.0*%
%TF.CreationDate,2024-03-22T17:01:39+01:00*%
%TF.ProjectId,PrezisoinPowerSupply,5072657a-6973-46f6-996e-506f77657253,rev?*%
%TF.SameCoordinates,Original*%
%TF.FileFunction,Paste,Top*%
%TF.FilePolarity,Positive*%
%FSLAX46Y46*%
G04 Gerber Fmt 4.6, Leading zero omitted, Abs format (unit mm)*
G04 Created by KiCad (PCBNEW 8.0.0) date 2024-03-22 17:01:39*
%MOMM*%
%LPD*%
G01*
G04 APERTURE LIST*
G04 Aperture macros list*
%AMRoundRect*
0 Rectangle with rounded corners*
0 $1 Rounding radius*
0 $2 $3 $4 $5 $6 $7 $8 $9 X,Y pos of 4 corners*
0 Add a 4 corners polygon primitive as box body*
4,1,4,$2,$3,$4,$5,$6,$7,$8,$9,$2,$3,0*
0 Add four circle primitives for the rounded corners*
1,1,$1+$1,$2,$3*
1,1,$1+$1,$4,$5*
1,1,$1+$1,$6,$7*
1,1,$1+$1,$8,$9*
0 Add four rect primitives between the rounded corners*
20,1,$1+$1,$2,$3,$4,$5,0*
20,1,$1+$1,$4,$5,$6,$7,0*
20,1,$1+$1,$6,$7,$8,$9,0*
20,1,$1+$1,$8,$9,$2,$3,0*%
G04 Aperture macros list end*
%ADD10RoundRect,0.225000X-0.250000X0.225000X-0.250000X-0.225000X0.250000X-0.225000X0.250000X0.225000X0*%
%ADD11RoundRect,0.147500X0.172500X-0.147500X0.172500X0.147500X-0.172500X0.147500X-0.172500X-0.147500X0*%
%ADD12RoundRect,0.225000X0.250000X-0.225000X0.250000X0.225000X-0.250000X0.225000X-0.250000X-0.225000X0*%
%ADD13RoundRect,0.200000X-1.550000X-0.750000X1.550000X-0.750000X1.550000X0.750000X-1.550000X0.750000X0*%
%ADD14RoundRect,0.200000X-0.200000X-0.275000X0.200000X-0.275000X0.200000X0.275000X-0.200000X0.275000X0*%
%ADD15RoundRect,0.300000X0.325000X0.300000X-0.325000X0.300000X-0.325000X-0.300000X0.325000X-0.300000X0*%
%ADD16RoundRect,0.317500X-0.382500X-0.317500X0.382500X-0.317500X0.382500X0.317500X-0.382500X0.317500X0*%
%ADD17RoundRect,0.150000X0.150000X-0.825000X0.150000X0.825000X-0.150000X0.825000X-0.150000X-0.825000X0*%
%ADD18RoundRect,0.200000X0.275000X-0.200000X0.275000X0.200000X-0.275000X0.200000X-0.275000X-0.200000X0*%
%ADD19R,0.640000X0.700000*%
%ADD20R,0.500000X0.700000*%
%ADD21RoundRect,0.250000X-1.000000X1.950000X-1.000000X-1.950000X1.000000X-1.950000X1.000000X1.950000X0*%
%ADD22RoundRect,0.200000X0.750000X-1.550000X0.750000X1.550000X-0.750000X1.550000X-0.750000X-1.550000X0*%
%ADD23RoundRect,0.218750X0.218750X0.256250X-0.218750X0.256250X-0.218750X-0.256250X0.218750X-0.256250X0*%
%ADD24RoundRect,0.200000X0.200000X0.275000X-0.200000X0.275000X-0.200000X-0.275000X0.200000X-0.275000X0*%
%ADD25RoundRect,0.250000X0.650000X-0.325000X0.650000X0.325000X-0.650000X0.325000X-0.650000X-0.325000X0*%
%ADD26RoundRect,0.250000X-1.950000X-1.000000X1.950000X-1.000000X1.950000X1.000000X-1.950000X1.000000X0*%
%ADD27RoundRect,0.100000X0.637500X0.100000X-0.637500X0.100000X-0.637500X-0.100000X0.637500X-0.100000X0*%
%ADD28RoundRect,0.200000X-0.275000X0.200000X-0.275000X-0.200000X0.275000X-0.200000X0.275000X0.200000X0*%
%ADD29RoundRect,0.250000X-0.325000X-0.650000X0.325000X-0.650000X0.325000X0.650000X-0.325000X0.650000X0*%
%ADD30RoundRect,0.225000X-0.225000X-0.250000X0.225000X-0.250000X0.225000X0.250000X-0.225000X0.250000X0*%
%ADD31RoundRect,0.150000X-0.512500X-0.150000X0.512500X-0.150000X0.512500X0.150000X-0.512500X0.150000X0*%
%ADD32RoundRect,0.250000X0.325000X0.650000X-0.325000X0.650000X-0.325000X-0.650000X0.325000X-0.650000X0*%
%ADD33RoundRect,0.250000X0.362500X1.425000X-0.362500X1.425000X-0.362500X-1.425000X0.362500X-1.425000X0*%
%ADD34RoundRect,0.150000X0.150000X-0.512500X0.150000X0.512500X-0.150000X0.512500X-0.150000X-0.512500X0*%
%ADD35RoundRect,0.225000X0.225000X0.250000X-0.225000X0.250000X-0.225000X-0.250000X0.225000X-0.250000X0*%
%ADD36RoundRect,0.250000X-0.650000X0.325000X-0.650000X-0.325000X0.650000X-0.325000X0.650000X0.325000X0*%
%ADD37RoundRect,0.218750X-0.026517X0.335876X-0.335876X0.026517X0.026517X-0.335876X0.335876X-0.026517X0*%
%ADD38RoundRect,0.250000X-0.362500X-1.425000X0.362500X-1.425000X0.362500X1.425000X-0.362500X1.425000X0*%
%ADD39RoundRect,0.150000X-0.825000X-0.150000X0.825000X-0.150000X0.825000X0.150000X-0.825000X0.150000X0*%
%ADD40RoundRect,0.250000X-0.625000X0.312500X-0.625000X-0.312500X0.625000X-0.312500X0.625000X0.312500X0*%
%ADD41R,1.200000X0.400000*%
%ADD42RoundRect,0.218750X-0.218750X-0.256250X0.218750X-0.256250X0.218750X0.256250X-0.218750X0.256250X0*%
%ADD43RoundRect,0.125000X-0.125000X0.125000X-0.125000X-0.125000X0.125000X-0.125000X0.125000X0.125000X0*%
%ADD44RoundRect,0.300000X-0.325000X-0.300000X0.325000X-0.300000X0.325000X0.300000X-0.325000X0.300000X0*%
%ADD45RoundRect,0.317500X0.382500X0.317500X-0.382500X0.317500X-0.382500X-0.317500X0.382500X-0.317500X0*%
%ADD46RoundRect,0.150000X0.150000X-0.587500X0.150000X0.587500X-0.150000X0.587500X-0.150000X-0.587500X0*%
%ADD47R,1.800000X7.500000*%
%ADD48RoundRect,0.250000X-0.388909X0.000000X0.000000X-0.388909X0.388909X0.000000X0.000000X0.388909X0*%
%ADD49RoundRect,0.062500X-0.291682X0.203293X0.203293X-0.291682X0.291682X-0.203293X-0.203293X0.291682X0*%
%ADD50RoundRect,0.062500X-0.291682X-0.203293X-0.203293X-0.291682X0.291682X0.203293X0.203293X0.291682X0*%
%ADD51RoundRect,0.137500X0.137500X-0.587500X0.137500X0.587500X-0.137500X0.587500X-0.137500X-0.587500X0*%
%ADD52RoundRect,0.249750X1.250250X-0.305250X1.250250X0.305250X-1.250250X0.305250X-1.250250X-0.305250X0*%
%ADD53RoundRect,0.250000X0.300000X0.300000X-0.300000X0.300000X-0.300000X-0.300000X0.300000X-0.300000X0*%
%ADD54R,0.700000X0.640000*%
%ADD55R,0.700000X0.500000*%
%ADD56RoundRect,0.150000X-0.150000X0.512500X-0.150000X-0.512500X0.150000X-0.512500X0.150000X0.512500X0*%
%ADD57RoundRect,0.150000X0.825000X0.150000X-0.825000X0.150000X-0.825000X-0.150000X0.825000X-0.150000X0*%
%ADD58RoundRect,0.225000X0.017678X-0.335876X0.335876X-0.017678X-0.017678X0.335876X-0.335876X0.017678X0*%
%ADD59RoundRect,0.275000X3.635000X-1.100000X3.635000X1.100000X-3.635000X1.100000X-3.635000X-1.100000X0*%
G04 APERTURE END LIST*
D10*
%TO.C,C44*%
X115700000Y-98975000D03*
X115700000Y-100525000D03*
%TD*%
D11*
%TO.C,F4*%
X135400000Y-100835000D03*
X135400000Y-99865000D03*
%TD*%
%TO.C,F3*%
X133750000Y-100835000D03*
X133750000Y-99865000D03*
%TD*%
D12*
%TO.C,C43*%
X176250000Y-100625000D03*
X176250000Y-99075000D03*
%TD*%
D13*
%TO.C,TP6*%
X128900000Y-79900000D03*
%TD*%
%TO.C,TP5*%
X130200000Y-53400000D03*
%TD*%
D14*
%TO.C,R14*%
X127750000Y-140550000D03*
X129400000Y-140550000D03*
%TD*%
D10*
%TO.C,C23*%
X139900000Y-53025000D03*
X139900000Y-54575000D03*
%TD*%
D13*
%TO.C,TP33*%
X126100000Y-109200000D03*
%TD*%
D15*
%TO.C,D9*%
X131550000Y-137450000D03*
X131550000Y-139140000D03*
X131550000Y-140800000D03*
X133250000Y-137450000D03*
X133250000Y-139140000D03*
X133250000Y-140800000D03*
X134950000Y-137450000D03*
X134950000Y-139140000D03*
X134950000Y-140800000D03*
D16*
X132210000Y-135335000D03*
X134290000Y-135335000D03*
%TD*%
D14*
%TO.C,R9*%
X155525000Y-107800000D03*
X157175000Y-107800000D03*
%TD*%
D17*
%TO.C,U3*%
X156945000Y-95475000D03*
X158215000Y-95475000D03*
X159485000Y-95475000D03*
X160755000Y-95475000D03*
X160755000Y-90525000D03*
X159485000Y-90525000D03*
X158215000Y-90525000D03*
X156945000Y-90525000D03*
%TD*%
D18*
%TO.C,R44*%
X132200000Y-114075000D03*
X132200000Y-112425000D03*
%TD*%
%TO.C,R47*%
X146100000Y-80900000D03*
X146100000Y-79250000D03*
%TD*%
%TO.C,R21*%
X133750000Y-107875000D03*
X133750000Y-106225000D03*
%TD*%
D10*
%TO.C,C53*%
X165500000Y-61425000D03*
X165500000Y-62975000D03*
%TD*%
D19*
%TO.C,RN4*%
X144380000Y-110800000D03*
D20*
X145250000Y-110800000D03*
X146050000Y-110800000D03*
D19*
X146920000Y-110800000D03*
X146920000Y-109400000D03*
D20*
X146050000Y-109400000D03*
X145250000Y-109400000D03*
D19*
X144380000Y-109400000D03*
%TD*%
D10*
%TO.C,C9*%
X145965000Y-122210000D03*
X145965000Y-123760000D03*
%TD*%
D21*
%TO.C,C11*%
X123800000Y-56300000D03*
X123800000Y-63700000D03*
%TD*%
D22*
%TO.C,TP1*%
X110600000Y-73700000D03*
%TD*%
D23*
%TO.C,FB2*%
X128987500Y-131700000D03*
X127412500Y-131700000D03*
%TD*%
D18*
%TO.C,R1*%
X164050000Y-93525000D03*
X164050000Y-91875000D03*
%TD*%
D24*
%TO.C,R12*%
X164375000Y-87150000D03*
X162725000Y-87150000D03*
%TD*%
D14*
%TO.C,R32*%
X142775000Y-79275000D03*
X144425000Y-79275000D03*
%TD*%
%TO.C,R33*%
X131050000Y-115700000D03*
X132700000Y-115700000D03*
%TD*%
%TO.C,R49*%
X150475000Y-126250000D03*
X152125000Y-126250000D03*
%TD*%
D25*
%TO.C,C16*%
X153300000Y-77375000D03*
X153300000Y-74425000D03*
%TD*%
D18*
%TO.C,R22*%
X139500000Y-104775000D03*
X139500000Y-103125000D03*
%TD*%
D26*
%TO.C,C56*%
X156300000Y-69200000D03*
X163700000Y-69200000D03*
%TD*%
D27*
%TO.C,U21*%
X132625000Y-121550000D03*
X132625000Y-120900000D03*
X132625000Y-120250000D03*
X132625000Y-119600000D03*
X132625000Y-118950000D03*
X132625000Y-118300000D03*
X132625000Y-117650000D03*
X132625000Y-117000000D03*
X126900000Y-117000000D03*
X126900000Y-117650000D03*
X126900000Y-118300000D03*
X126900000Y-118950000D03*
X126900000Y-119600000D03*
X126900000Y-120250000D03*
X126900000Y-120900000D03*
X126900000Y-121550000D03*
%TD*%
D28*
%TO.C,R42*%
X144400000Y-127200000D03*
X144400000Y-128850000D03*
%TD*%
%TO.C,R46*%
X135300000Y-112425000D03*
X135300000Y-114075000D03*
%TD*%
D12*
%TO.C,C1*%
X159500000Y-110875000D03*
X159500000Y-109325000D03*
%TD*%
D29*
%TO.C,C25*%
X147725000Y-60400000D03*
X150675000Y-60400000D03*
%TD*%
D30*
%TO.C,C51*%
X169200000Y-57400000D03*
X170750000Y-57400000D03*
%TD*%
D10*
%TO.C,C24*%
X138000000Y-52825000D03*
X138000000Y-54375000D03*
%TD*%
D23*
%TO.C,FB5*%
X129900000Y-122950000D03*
X128325000Y-122950000D03*
%TD*%
D13*
%TO.C,TP29*%
X175000000Y-72000000D03*
%TD*%
D24*
%TO.C,R48*%
X159925000Y-58300000D03*
X158275000Y-58300000D03*
%TD*%
D31*
%TO.C,U1*%
X137625000Y-56150000D03*
X137625000Y-57100000D03*
X137625000Y-58050000D03*
X139900000Y-58050000D03*
X139900000Y-57100000D03*
X139900000Y-56150000D03*
%TD*%
D28*
%TO.C,R41*%
X142800000Y-127200000D03*
X142800000Y-128850000D03*
%TD*%
D10*
%TO.C,C10*%
X162400000Y-91925000D03*
X162400000Y-93475000D03*
%TD*%
D14*
%TO.C,R26*%
X152875000Y-100450000D03*
X154525000Y-100450000D03*
%TD*%
D29*
%TO.C,C21*%
X137125000Y-60350000D03*
X140075000Y-60350000D03*
%TD*%
D32*
%TO.C,C15*%
X146775000Y-66900000D03*
X143825000Y-66900000D03*
%TD*%
D28*
%TO.C,R28*%
X165700000Y-93225000D03*
X165700000Y-94875000D03*
%TD*%
D25*
%TO.C,C17*%
X140000000Y-77075000D03*
X140000000Y-74125000D03*
%TD*%
D27*
%TO.C,U7*%
X132825000Y-128850000D03*
X132825000Y-128200000D03*
X132825000Y-127550000D03*
X132825000Y-126900000D03*
X132825000Y-126250000D03*
X132825000Y-125600000D03*
X132825000Y-124950000D03*
X132825000Y-124300000D03*
X127100000Y-124300000D03*
X127100000Y-124950000D03*
X127100000Y-125600000D03*
X127100000Y-126250000D03*
X127100000Y-126900000D03*
X127100000Y-127550000D03*
X127100000Y-128200000D03*
X127100000Y-128850000D03*
%TD*%
D30*
%TO.C,C47*%
X110925000Y-148900000D03*
X112475000Y-148900000D03*
%TD*%
D29*
%TO.C,C22*%
X137125000Y-62800000D03*
X140075000Y-62800000D03*
%TD*%
D14*
%TO.C,R27*%
X167625000Y-97500000D03*
X169275000Y-97500000D03*
%TD*%
%TO.C,R8*%
X152450000Y-107800000D03*
X154100000Y-107800000D03*
%TD*%
D33*
%TO.C,R18*%
X184682500Y-117300000D03*
X178757500Y-117300000D03*
%TD*%
D34*
%TO.C,D6*%
X154150000Y-60775000D03*
X156050000Y-60775000D03*
X155100000Y-58500000D03*
%TD*%
D31*
%TO.C,Q8*%
X153800000Y-122750000D03*
X153800000Y-124650000D03*
X156075000Y-123700000D03*
%TD*%
D35*
%TO.C,C8*%
X163575000Y-102250000D03*
X162025000Y-102250000D03*
%TD*%
D25*
%TO.C,C3*%
X159400000Y-148775000D03*
X159400000Y-145825000D03*
%TD*%
D28*
%TO.C,R31*%
X159875000Y-55075000D03*
X159875000Y-56725000D03*
%TD*%
D36*
%TO.C,C14*%
X132100000Y-58925000D03*
X132100000Y-61875000D03*
%TD*%
D37*
%TO.C,FB1*%
X121156847Y-131443153D03*
X120043153Y-132556847D03*
%TD*%
D23*
%TO.C,FB4*%
X123900000Y-122600000D03*
X122325000Y-122600000D03*
%TD*%
D14*
%TO.C,R13*%
X111875000Y-116500000D03*
X113525000Y-116500000D03*
%TD*%
D38*
%TO.C,R16*%
X178807500Y-93500000D03*
X184732500Y-93500000D03*
%TD*%
D28*
%TO.C,R5*%
X142300000Y-87775000D03*
X142300000Y-89425000D03*
%TD*%
D35*
%TO.C,C32*%
X129600000Y-115700000D03*
X128050000Y-115700000D03*
%TD*%
D21*
%TO.C,C18*%
X134200000Y-67200000D03*
X134200000Y-74600000D03*
%TD*%
D10*
%TO.C,C48*%
X124900000Y-116362500D03*
X124900000Y-117912500D03*
%TD*%
D39*
%TO.C,U20*%
X162125000Y-55890000D03*
X162125000Y-57160000D03*
X162125000Y-58430000D03*
X162125000Y-59700000D03*
X167075000Y-59700000D03*
X167075000Y-58430000D03*
X167075000Y-57160000D03*
X167075000Y-55890000D03*
%TD*%
D10*
%TO.C,C35*%
X128350000Y-102625000D03*
X128350000Y-104175000D03*
%TD*%
D21*
%TO.C,C12*%
X114300000Y-56200000D03*
X114300000Y-63600000D03*
%TD*%
D28*
%TO.C,R43*%
X133750000Y-112425000D03*
X133750000Y-114075000D03*
%TD*%
%TO.C,R6*%
X142400000Y-92175000D03*
X142400000Y-93825000D03*
%TD*%
D30*
%TO.C,C5*%
X131325000Y-130175000D03*
X132875000Y-130175000D03*
%TD*%
D40*
%TO.C,R15*%
X159400000Y-141137500D03*
X159400000Y-144062500D03*
%TD*%
D41*
%TO.C,U5*%
X116300000Y-147322500D03*
X116300000Y-146687500D03*
X116300000Y-146052500D03*
X116300000Y-145417500D03*
X116300000Y-144782500D03*
X116300000Y-144147500D03*
X116300000Y-143512500D03*
X116300000Y-142877500D03*
X111100000Y-142877500D03*
X111100000Y-143512500D03*
X111100000Y-144147500D03*
X111100000Y-144782500D03*
X111100000Y-145417500D03*
X111100000Y-146052500D03*
X111100000Y-146687500D03*
X111100000Y-147322500D03*
%TD*%
D42*
%TO.C,FB3*%
X131312500Y-131700000D03*
X132887500Y-131700000D03*
%TD*%
D31*
%TO.C,Q7*%
X153812500Y-126250000D03*
X153812500Y-128150000D03*
X156087500Y-127200000D03*
%TD*%
D35*
%TO.C,C41*%
X123875000Y-119400000D03*
X122325000Y-119400000D03*
%TD*%
D43*
%TO.C,D7*%
X165500000Y-96150000D03*
X165500000Y-98350000D03*
%TD*%
D18*
%TO.C,R38*%
X123250000Y-103875000D03*
X123250000Y-102225000D03*
%TD*%
D44*
%TO.C,D8*%
X134950000Y-146315000D03*
X134950000Y-144625000D03*
X134950000Y-142965000D03*
X133250000Y-146315000D03*
X133250000Y-144625000D03*
X133250000Y-142965000D03*
X131550000Y-146315000D03*
X131550000Y-144625000D03*
X131550000Y-142965000D03*
D45*
X134290000Y-148430000D03*
X132210000Y-148430000D03*
%TD*%
D39*
%TO.C,U10*%
X152425000Y-109432500D03*
X152425000Y-110702500D03*
X152425000Y-111972500D03*
X152425000Y-113242500D03*
X152425000Y-114512500D03*
X152425000Y-115782500D03*
X152425000Y-117052500D03*
X157375000Y-117052500D03*
X157375000Y-115782500D03*
X157375000Y-114512500D03*
X157375000Y-113242500D03*
X157375000Y-111972500D03*
X157375000Y-110702500D03*
X157375000Y-109432500D03*
%TD*%
D28*
%TO.C,R29*%
X136300000Y-52775000D03*
X136300000Y-54425000D03*
%TD*%
%TO.C,R39*%
X141250000Y-127200000D03*
X141250000Y-128850000D03*
%TD*%
D46*
%TO.C,D1*%
X153950000Y-120800000D03*
X155850000Y-120800000D03*
X154900000Y-118925000D03*
%TD*%
D14*
%TO.C,R2*%
X155525000Y-106250000D03*
X157175000Y-106250000D03*
%TD*%
D35*
%TO.C,C31*%
X128900000Y-130100000D03*
X127350000Y-130100000D03*
%TD*%
D47*
%TO.C,L1*%
X142600000Y-54600000D03*
X148200000Y-54600000D03*
%TD*%
D28*
%TO.C,R23*%
X149700000Y-106025000D03*
X149700000Y-107675000D03*
%TD*%
D30*
%TO.C,C19*%
X142725000Y-80975000D03*
X144275000Y-80975000D03*
%TD*%
D48*
%TO.C,U16*%
X124300000Y-134680761D03*
X123380761Y-135600000D03*
X125219239Y-135600000D03*
X124300000Y-136519239D03*
D49*
X123813864Y-133346097D03*
X123460311Y-133699651D03*
X123106757Y-134053204D03*
X122753204Y-134406757D03*
X122399651Y-134760311D03*
X122046097Y-135113864D03*
D50*
X122046097Y-136086136D03*
X122399651Y-136439689D03*
X122753204Y-136793243D03*
X123106757Y-137146796D03*
X123460311Y-137500349D03*
X123813864Y-137853903D03*
D49*
X124786136Y-137853903D03*
X125139689Y-137500349D03*
X125493243Y-137146796D03*
X125846796Y-136793243D03*
X126200349Y-136439689D03*
X126553903Y-136086136D03*
D50*
X126553903Y-135113864D03*
X126200349Y-134760311D03*
X125846796Y-134406757D03*
X125493243Y-134053204D03*
X125139689Y-133699651D03*
X124786136Y-133346097D03*
%TD*%
D24*
%TO.C,R45*%
X140775000Y-115550000D03*
X139125000Y-115550000D03*
%TD*%
D10*
%TO.C,C33*%
X134550000Y-117125000D03*
X134550000Y-118675000D03*
%TD*%
D51*
%TO.C,U4*%
X166430000Y-91450000D03*
X168970000Y-91450000D03*
X168970000Y-85950000D03*
X166430000Y-85950000D03*
%TD*%
D12*
%TO.C,C46*%
X118200000Y-149275000D03*
X118200000Y-147725000D03*
%TD*%
D52*
%TO.C,K1*%
X131050000Y-97450000D03*
X131050000Y-92370000D03*
X131050000Y-89830000D03*
X131050000Y-87290000D03*
X123760000Y-87290000D03*
X123760000Y-89830000D03*
X123760000Y-92370000D03*
X123760000Y-97450000D03*
%TD*%
D34*
%TO.C,Q6*%
X124850000Y-102150000D03*
X126750000Y-102150000D03*
X125800000Y-99875000D03*
%TD*%
D53*
%TO.C,D2*%
X131205000Y-100100000D03*
X128405000Y-100100000D03*
%TD*%
D28*
%TO.C,R34*%
X136150000Y-117075000D03*
X136150000Y-118725000D03*
%TD*%
D31*
%TO.C,D4*%
X134850000Y-102800000D03*
X134850000Y-104700000D03*
X137125000Y-103750000D03*
%TD*%
D29*
%TO.C,C30*%
X175525000Y-133700000D03*
X178475000Y-133700000D03*
%TD*%
D22*
%TO.C,TP4*%
X160700000Y-75800000D03*
%TD*%
D24*
%TO.C,R24*%
X153125000Y-106200000D03*
X151475000Y-106200000D03*
%TD*%
D12*
%TO.C,C6*%
X134700000Y-127700000D03*
X134700000Y-126150000D03*
%TD*%
D54*
%TO.C,RN2*%
X150375000Y-116000000D03*
D55*
X150375000Y-115130000D03*
X150375000Y-114330000D03*
D54*
X150375000Y-113460000D03*
X148975000Y-113460000D03*
D55*
X148975000Y-114330000D03*
X148975000Y-115130000D03*
D54*
X148975000Y-116000000D03*
%TD*%
D56*
%TO.C,U19*%
X153250000Y-102162500D03*
X152300000Y-102162500D03*
X151350000Y-102162500D03*
X151350000Y-104437500D03*
X153250000Y-104437500D03*
%TD*%
D28*
%TO.C,R19*%
X135350000Y-106225000D03*
X135350000Y-107875000D03*
%TD*%
D54*
%TO.C,RN5*%
X150350000Y-111600000D03*
D55*
X150350000Y-110730000D03*
X150350000Y-109930000D03*
D54*
X150350000Y-109060000D03*
X148950000Y-109060000D03*
D55*
X148950000Y-109930000D03*
X148950000Y-110730000D03*
D54*
X148950000Y-111600000D03*
%TD*%
D35*
%TO.C,C38*%
X123875000Y-121000000D03*
X122325000Y-121000000D03*
%TD*%
D34*
%TO.C,Q5*%
X167300000Y-95775000D03*
X169200000Y-95775000D03*
X168250000Y-93500000D03*
%TD*%
D36*
%TO.C,C13*%
X129700000Y-58925000D03*
X129700000Y-61875000D03*
%TD*%
D38*
%TO.C,R17*%
X107137500Y-106400000D03*
X113062500Y-106400000D03*
%TD*%
D24*
%TO.C,R25*%
X151375000Y-100450000D03*
X149725000Y-100450000D03*
%TD*%
D22*
%TO.C,TP2*%
X184700000Y-124600000D03*
%TD*%
D12*
%TO.C,C2*%
X153550000Y-93425000D03*
X153550000Y-91875000D03*
%TD*%
D31*
%TO.C,D3*%
X130612500Y-102787500D03*
X130612500Y-104687500D03*
X132887500Y-103737500D03*
%TD*%
D14*
%TO.C,R50*%
X150425000Y-122700000D03*
X152075000Y-122700000D03*
%TD*%
D32*
%TO.C,C55*%
X156575000Y-63100000D03*
X153625000Y-63100000D03*
%TD*%
%TO.C,C54*%
X158075000Y-56200000D03*
X155125000Y-56200000D03*
%TD*%
D17*
%TO.C,U12*%
X140535000Y-125210000D03*
X141805000Y-125210000D03*
X143075000Y-125210000D03*
X144345000Y-125210000D03*
X144345000Y-120260000D03*
X143075000Y-120260000D03*
X141805000Y-120260000D03*
X140535000Y-120260000D03*
%TD*%
D29*
%TO.C,C26*%
X147725000Y-62900000D03*
X150675000Y-62900000D03*
%TD*%
D33*
%TO.C,R7*%
X113212500Y-82700000D03*
X107287500Y-82700000D03*
%TD*%
D28*
%TO.C,R40*%
X139700000Y-127200000D03*
X139700000Y-128850000D03*
%TD*%
D18*
%TO.C,R10*%
X153550000Y-96525000D03*
X153550000Y-94875000D03*
%TD*%
%TO.C,R30*%
X134600000Y-54425000D03*
X134600000Y-52775000D03*
%TD*%
D10*
%TO.C,C52*%
X167225000Y-61425000D03*
X167225000Y-62975000D03*
%TD*%
D28*
%TO.C,R11*%
X155100000Y-91825000D03*
X155100000Y-93475000D03*
%TD*%
D32*
%TO.C,C29*%
X175375000Y-65100000D03*
X172425000Y-65100000D03*
%TD*%
D18*
%TO.C,R20*%
X132150000Y-107875000D03*
X132150000Y-106225000D03*
%TD*%
D25*
%TO.C,C34*%
X152100000Y-58175000D03*
X152100000Y-55225000D03*
%TD*%
D57*
%TO.C,U2*%
X165375000Y-107755000D03*
X165375000Y-106485000D03*
X165375000Y-105215000D03*
X165375000Y-103945000D03*
X160425000Y-103945000D03*
X160425000Y-105215000D03*
X160425000Y-106485000D03*
X160425000Y-107755000D03*
%TD*%
D58*
%TO.C,C40*%
X121151992Y-133698008D03*
X122248008Y-132601992D03*
%TD*%
D30*
%TO.C,C36*%
X131425000Y-122950000D03*
X132975000Y-122950000D03*
%TD*%
D32*
%TO.C,C28*%
X145875000Y-60400000D03*
X142925000Y-60400000D03*
%TD*%
D14*
%TO.C,R35*%
X127775000Y-139000000D03*
X129425000Y-139000000D03*
%TD*%
D22*
%TO.C,TP3*%
X181600000Y-70200000D03*
%TD*%
D59*
%TO.C,R51*%
X140312500Y-147780000D03*
X140312500Y-141520000D03*
%TD*%
D57*
%TO.C,U11*%
X142400000Y-113950000D03*
X142400000Y-112680000D03*
X142400000Y-111410000D03*
X142400000Y-110140000D03*
X142400000Y-108870000D03*
X142400000Y-107600000D03*
X142400000Y-106330000D03*
X137450000Y-106330000D03*
X137450000Y-107600000D03*
X137450000Y-108870000D03*
X137450000Y-110140000D03*
X137450000Y-111410000D03*
X137450000Y-112680000D03*
X137450000Y-113950000D03*
%TD*%
D32*
%TO.C,C27*%
X145900000Y-62900000D03*
X142950000Y-62900000D03*
%TD*%
D12*
%TO.C,C7*%
X154800000Y-104325000D03*
X154800000Y-102775000D03*
%TD*%
D30*
%TO.C,C37*%
X169200000Y-55800000D03*
X170750000Y-55800000D03*
%TD*%
M02*
