%TF.GenerationSoftware,KiCad,Pcbnew,8.0.0*%
%TF.CreationDate,2024-03-22T17:01:39+01:00*%
%TF.ProjectId,PrezisoinPowerSupply,5072657a-6973-46f6-996e-506f77657253,rev?*%
%TF.SameCoordinates,Original*%
%TF.FileFunction,Soldermask,Bot*%
%TF.FilePolarity,Negative*%
%FSLAX46Y46*%
G04 Gerber Fmt 4.6, Leading zero omitted, Abs format (unit mm)*
G04 Created by KiCad (PCBNEW 8.0.0) date 2024-03-22 17:01:39*
%MOMM*%
%LPD*%
G01*
G04 APERTURE LIST*
G04 Aperture macros list*
%AMRoundRect*
0 Rectangle with rounded corners*
0 $1 Rounding radius*
0 $2 $3 $4 $5 $6 $7 $8 $9 X,Y pos of 4 corners*
0 Add a 4 corners polygon primitive as box body*
4,1,4,$2,$3,$4,$5,$6,$7,$8,$9,$2,$3,0*
0 Add four circle primitives for the rounded corners*
1,1,$1+$1,$2,$3*
1,1,$1+$1,$4,$5*
1,1,$1+$1,$6,$7*
1,1,$1+$1,$8,$9*
0 Add four rect primitives between the rounded corners*
20,1,$1+$1,$2,$3,$4,$5,0*
20,1,$1+$1,$4,$5,$6,$7,0*
20,1,$1+$1,$6,$7,$8,$9,0*
20,1,$1+$1,$8,$9,$2,$3,0*%
G04 Aperture macros list end*
%ADD10R,1.500000X1.050000*%
%ADD11O,1.500000X1.050000*%
%ADD12C,4.700000*%
%ADD13RoundRect,0.250000X0.725000X-0.600000X0.725000X0.600000X-0.725000X0.600000X-0.725000X-0.600000X0*%
%ADD14O,1.950000X1.700000*%
%ADD15C,3.200000*%
%ADD16C,2.700000*%
%ADD17C,3.000000*%
%ADD18R,1.600000X1.600000*%
%ADD19O,1.600000X1.600000*%
%ADD20R,1.700000X1.700000*%
%ADD21O,1.700000X1.700000*%
%ADD22R,3.000000X3.000000*%
%ADD23RoundRect,0.250000X0.600000X0.600000X-0.600000X0.600000X-0.600000X-0.600000X0.600000X-0.600000X0*%
%ADD24C,1.700000*%
%ADD25R,4.500000X2.500000*%
%ADD26O,4.500000X2.500000*%
%ADD27R,2.000000X2.000000*%
%ADD28O,2.000000X2.000000*%
%ADD29RoundRect,0.225000X-0.225000X-0.250000X0.225000X-0.250000X0.225000X0.250000X-0.225000X0.250000X0*%
%ADD30RoundRect,0.225000X0.225000X0.250000X-0.225000X0.250000X-0.225000X-0.250000X0.225000X-0.250000X0*%
%ADD31R,2.000000X1.905000*%
%ADD32O,2.000000X1.905000*%
G04 APERTURE END LIST*
D10*
%TO.C,U9*%
X173900000Y-101070000D03*
D11*
X173900000Y-99800000D03*
X173900000Y-98530000D03*
%TD*%
D10*
%TO.C,U8*%
X118050000Y-98610000D03*
D11*
X118050000Y-99880000D03*
X118050000Y-101150000D03*
%TD*%
D12*
%TO.C,REF\u002A\u002A*%
X167000000Y-145000000D03*
%TD*%
%TO.C,REF\u002A\u002A*%
X167000000Y-80000000D03*
%TD*%
D13*
%TO.C,J4*%
X159975000Y-126150000D03*
D14*
X159975000Y-123650000D03*
X159975000Y-121150000D03*
%TD*%
D15*
%TO.C,REF\u002A\u002A*%
X100000000Y-125000000D03*
%TD*%
D16*
%TO.C,F1*%
X101000000Y-75750000D03*
D17*
X101000000Y-87000000D03*
X101000000Y-64500000D03*
%TD*%
D18*
%TO.C,U6*%
X150400000Y-69500000D03*
D19*
X147860000Y-69500000D03*
X145320000Y-69500000D03*
X142780000Y-69500000D03*
X142780000Y-77120000D03*
X145320000Y-77120000D03*
X147860000Y-77120000D03*
X150400000Y-77120000D03*
%TD*%
D20*
%TO.C,J2*%
X116000000Y-122900000D03*
D21*
X116000000Y-125440000D03*
X116000000Y-127980000D03*
%TD*%
D15*
%TO.C,REF\u002A\u002A*%
X183000000Y-54000000D03*
%TD*%
D17*
%TO.C,F2*%
X137950000Y-134750000D03*
X160450000Y-134750000D03*
%TD*%
D22*
%TO.C,J1*%
X100500000Y-97500000D03*
D17*
X100500000Y-92420000D03*
%TD*%
D23*
%TO.C,J3*%
X106265000Y-144400000D03*
D24*
X103725000Y-144400000D03*
X106265000Y-141860000D03*
X103725000Y-141860000D03*
X106265000Y-139320000D03*
X103725000Y-139320000D03*
X106265000Y-136780000D03*
X103725000Y-136780000D03*
X106265000Y-134240000D03*
X103725000Y-134240000D03*
%TD*%
D15*
%TO.C,REF\u002A\u002A*%
X183000000Y-146000000D03*
%TD*%
%TO.C,REF\u002A\u002A*%
X100000000Y-54000000D03*
%TD*%
D22*
%TO.C,J6*%
X152840000Y-145600000D03*
D17*
X147760000Y-145600000D03*
%TD*%
D12*
%TO.C,REF\u002A\u002A*%
X125000000Y-72000000D03*
%TD*%
D13*
%TO.C,J5*%
X137600000Y-95000000D03*
D14*
X137600000Y-92500000D03*
X137600000Y-90000000D03*
X137600000Y-87500000D03*
%TD*%
D12*
%TO.C,REF\u002A\u002A*%
X125000000Y-145000000D03*
%TD*%
D25*
%TO.C,Q1*%
X174520000Y-82650000D03*
D26*
X174520000Y-88100000D03*
X174520000Y-93550000D03*
%TD*%
D27*
%TO.C,D5*%
X116555000Y-76240000D03*
D28*
X116555000Y-71160000D03*
%TD*%
D25*
%TO.C,Q9*%
X117480000Y-93600000D03*
D26*
X117480000Y-88150000D03*
X117480000Y-82700000D03*
%TD*%
D25*
%TO.C,Q4*%
X117500000Y-117300000D03*
D26*
X117500000Y-111850000D03*
X117500000Y-106400000D03*
%TD*%
D29*
%TO.C,C20*%
X154150000Y-111800000D03*
X155700000Y-111800000D03*
%TD*%
D30*
%TO.C,C45*%
X140700000Y-110140000D03*
X139150000Y-110140000D03*
%TD*%
D31*
%TO.C,U14*%
X175445000Y-126160000D03*
D32*
X175445000Y-128700000D03*
X175445000Y-131240000D03*
%TD*%
D31*
%TO.C,U18*%
X175400000Y-57120000D03*
D32*
X175400000Y-59660000D03*
X175400000Y-62200000D03*
%TD*%
D25*
%TO.C,Q2*%
X174500000Y-106350000D03*
D26*
X174500000Y-111800000D03*
X174500000Y-117250000D03*
%TD*%
M02*
