M48
; DRILL file {KiCad 8.0.1} date 2024-04-21T23:41:18+0200
; FORMAT={-:-/ absolute / inch / decimal}
; #@! TF.CreationDate,2024-04-21T23:41:18+02:00
; #@! TF.GenerationSoftware,Kicad,Pcbnew,8.0.1
; #@! TF.FileFunction,Plated,1,2,PTH
FMAT,2
INCH
; #@! TA.AperFunction,Plated,PTH,ViaDrill
T1C0.0118
; #@! TA.AperFunction,Plated,PTH,ViaDrill
T2C0.0157
; #@! TA.AperFunction,Plated,PTH,ComponentDrill
T3C0.0315
; #@! TA.AperFunction,Plated,PTH,ComponentDrill
T4C0.0374
; #@! TA.AperFunction,Plated,PTH,ComponentDrill
T5C0.0394
; #@! TA.AperFunction,Plated,PTH,ComponentDrill
T6C0.0433
; #@! TA.AperFunction,Plated,PTH,ComponentDrill
T7C0.0787
; #@! TA.AperFunction,Plated,PTH,ComponentDrill
T8C0.1260
%
G90
G05
T1
X4.2067Y-2.4469
X4.2638Y-2.8583
X4.2717Y-2.5315
X4.3228Y-2.4094
X4.3494Y-2.3593
X5.4695Y-1.5079
T2
X2.0669Y-1.0827
X2.0669Y-1.2795
X2.0669Y-1.4764
X2.0669Y-1.6142
X2.0669Y-2.0669
X2.0669Y-2.2638
X2.0669Y-2.4606
X2.0669Y-2.6575
X2.0669Y-2.8543
X2.0669Y-3.0512
X2.0669Y-3.248
X2.0669Y-3.4449
X2.0669Y-3.6417
X2.0669Y-3.7402
X2.0709Y-1.9134
X2.2638Y-1.0827
X2.2638Y-3.7402
X2.3858Y-1.8465
X2.4567Y-1.3386
X2.4606Y-3.7402
X2.4843Y-3.0118
X2.5591Y-1.0827
X2.5591Y-2.6693
X2.5669Y-2.811
X2.5709Y-2.1969
X2.5866Y-3.4291
X2.6575Y-3.7402
X2.6654Y-1.3465
X2.6693Y-3.0472
X2.7362Y-1.8583
X2.748Y-1.2087
X2.8425Y-1.5787
X2.8465Y-1.7402
X2.8504Y-2.8386
X2.8543Y-3.7402
X2.937Y-2.5236
X3.0118Y-1.248
X3.0512Y-1.0827
X3.0512Y-1.626
X3.0512Y-3.7402
X3.0551Y-3.0236
X3.0787Y-2.8189
X3.1417Y-2.5079
X3.189Y-1.4606
X3.2087Y-2.5079
X3.2087Y-3.374
X3.248Y-1.0827
X3.248Y-3.7402
X3.3346Y-3.0276
X3.3701Y-1.5433
X3.3819Y-1.7913
X3.4055Y-2.5748
X3.4252Y-2.0157
X3.4449Y-1.0827
X3.4449Y-1.2874
X3.4449Y-2.7992
X3.4449Y-3.7402
X3.5039Y-1.8701
X3.5236Y-1.6535
X3.5433Y-1.4724
X3.626Y-2.3701
X3.6299Y-2.0157
X3.6417Y-1.0827
X3.6417Y-1.4646
X3.6417Y-3.7402
X3.6535Y-1.7402
X3.6614Y-3.0394
X3.6732Y-1.3189
X3.7047Y-2.5787
X3.7087Y-2.7717
X3.7756Y-3.3504
X3.7874Y-2.0157
X3.8386Y-1.0827
X3.8386Y-3.7402
X3.8976Y-2.0276
X3.9055Y-2.9567
X4.0079Y-1.9961
X4.0079Y-2.3543
X4.0157Y-1.3701
X4.0157Y-1.6575
X4.0354Y-1.0827
X4.0354Y-3.7402
X4.0551Y-2.6457
X4.0669Y-1.8425
X4.1614Y-2.5512
X4.1693Y-2.1535
X4.2008Y-1.8268
X4.2008Y-2.9646
X4.2323Y-1.0827
X4.2323Y-3.7402
X4.252Y-1.5551
X4.2598Y-2.0512
X4.2717Y-2.6457
X4.3307Y-1.374
X4.3465Y-1.9961
X4.4291Y-1.0827
X4.4291Y-3.7402
X4.5394Y-2.563
X4.5433Y-2.4409
X4.5472Y-2.9606
X4.5512Y-2.2677
X4.563Y-2.1614
X4.563Y-3.0354
X4.5669Y-1.4685
X4.5709Y-3.374
X4.5748Y-2.7795
X4.5787Y-3.5315
X4.626Y-1.0827
X4.626Y-3.7402
X4.6417Y-1.7992
X4.6457Y-2.0512
X4.6496Y-2.1575
X4.6575Y-2.4528
X4.6654Y-2.2756
X4.6811Y-2.6417
X4.7047Y-1.6339
X4.7244Y-3.0512
X4.7795Y-2.0433
X4.7835Y-2.1654
X4.8031Y-1.3189
X4.815Y-2.4488
X4.8228Y-1.0827
X4.8228Y-3.7402
X4.8661Y-1.7677
X4.9094Y-1.3346
X4.9331Y-2.6378
X4.9409Y-2.0433
X4.9409Y-2.3071
X4.9449Y-3.5315
X4.9528Y-3.3386
X4.9646Y-2.4921
X4.9685Y-2.7874
X4.9764Y-3.0315
X4.9882Y-2.1181
X5.0197Y-1.0827
X5.0197Y-3.7402
X5.1378Y-1.6654
X5.1378Y-2.2362
X5.1417Y-1.878
X5.1614Y-3.5079
X5.1693Y-1.374
X5.2087Y-1.9764
X5.2165Y-1.0827
X5.2165Y-3.7402
X5.2362Y-2.0551
X5.2992Y-2.9291
X5.311Y-1.5276
X5.3386Y-2.6417
X5.3819Y-1.8858
X5.4016Y-2.5
X5.4134Y-1.0827
X5.4134Y-3.7402
X5.4449Y-3.2126
X5.4606Y-1.6693
X5.5039Y-1.8543
X5.5197Y-2.0433
X5.5354Y-1.4055
X5.5512Y-2.5827
X5.6102Y-1.0827
X5.6102Y-3.1496
X5.6102Y-3.3465
X5.6102Y-3.5433
X5.6102Y-3.7402
X5.6496Y-2.5748
X5.8071Y-1.0827
X5.8071Y-2.5591
X5.8071Y-2.6575
X5.8071Y-2.9528
T3
X4.702Y-1.3866
X4.7985Y-1.8685
X4.7985Y-1.9472
X4.802Y-1.3866
X4.8772Y-1.8685
X4.8772Y-1.9472
X4.956Y-1.8685
X4.956Y-1.9472
T4
X5.5177Y-2.7106
X5.5177Y-2.8091
X5.5177Y-2.9075
T5
X2.2154Y-3.1516
X2.3154Y-3.1516
X2.4154Y-3.1516
X2.4606Y-1.0925
X2.4606Y-1.6634
X2.5154Y-3.1516
X2.5591Y-1.6634
X2.6154Y-3.1516
X2.6575Y-1.0925
X2.6575Y-1.6634
X2.7154Y-3.1516
X2.8154Y-3.1516
X2.9154Y-3.1516
X3.3071Y-1.3898
X3.3071Y-1.4898
X3.3071Y-1.5898
X3.3071Y-1.6898
X3.3071Y-1.7898
X3.3071Y-1.8898
X3.3071Y-1.9898
X3.3071Y-2.0898
X3.3071Y-2.1898
X3.3071Y-2.2898
X3.3071Y-2.3898
X3.3071Y-2.4898
X3.3071Y-2.5898
X3.3071Y-2.6898
X3.7976Y-1.3535
X3.7976Y-1.4535
X3.7976Y-1.5535
X3.7976Y-1.6535
X3.7976Y-1.7535
X3.7976Y-2.3953
X3.7976Y-2.4953
X3.7976Y-2.5953
X3.7976Y-2.6953
X3.7976Y-2.7953
X3.8976Y-1.3535
X3.8976Y-1.4535
X3.8976Y-1.5535
X3.8976Y-1.6535
X3.8976Y-1.7535
X3.8976Y-2.3953
X3.8976Y-2.4953
X3.8976Y-2.5953
X3.8976Y-2.6953
X3.8976Y-2.7953
X5.2008Y-2.4433
X5.2008Y-2.5433
X5.2008Y-2.6433
X5.2008Y-2.7433
X5.2008Y-2.8433
X5.2008Y-2.9433
X5.2008Y-3.0433
X5.2008Y-3.1433
X5.2008Y-3.2433
X5.2008Y-3.3433
X5.6265Y-1.6969
X5.6265Y-1.7953
X5.6275Y-1.1988
X5.6275Y-1.2972
T6
X4.452Y-1.3579
X4.452Y-1.4579
X4.452Y-1.5579
X4.452Y-1.6579
X4.452Y-1.7579
X4.452Y-1.8579
X4.452Y-1.9579
X4.452Y-2.0579
X4.452Y-2.1579
X4.452Y-2.2579
X4.452Y-2.3579
X4.452Y-2.4579
X4.452Y-2.5579
X4.452Y-2.6579
X4.452Y-2.7579
X4.452Y-2.8579
X4.452Y-2.9579
X4.452Y-3.0579
X4.452Y-3.1579
X4.452Y-3.2579
X4.452Y-3.3579
X4.452Y-3.4579
X4.452Y-3.5579
X4.452Y-3.6579
X4.552Y-3.1579
X4.5721Y-1.6059
X4.5721Y-1.7059
X4.5721Y-1.8059
X4.5721Y-1.9059
X4.5721Y-2.0059
X4.652Y-3.1579
X4.752Y-3.1579
X4.852Y-3.1579
X4.952Y-1.4579
X4.952Y-3.1579
X5.052Y-1.3579
X5.052Y-1.4579
X5.052Y-1.5579
X5.052Y-1.6579
X5.052Y-1.7579
X5.052Y-1.8579
X5.052Y-1.9579
X5.052Y-2.0579
X5.052Y-2.1579
X5.052Y-2.2579
X5.052Y-2.3579
X5.052Y-2.4579
X5.052Y-2.5579
X5.052Y-2.6579
X5.052Y-2.7579
X5.052Y-2.8579
X5.052Y-2.9579
X5.052Y-3.0579
X5.052Y-3.1579
X5.052Y-3.2579
X5.052Y-3.3579
X5.052Y-3.4579
X5.052Y-3.5579
X5.052Y-3.6579
X5.7674Y-2.1943
X5.7674Y-2.2943
X5.7674Y-2.3943
T8
X2.1654Y-1.7717
X2.5591Y-2.5157
T5
G00X2.3031Y-2.0866
M15
G01X2.185Y-2.0866
M16
G05
G00X2.3031Y-2.3228
M15
G01X2.185Y-2.3228
M16
G05
G00X2.3031Y-2.7165
M15
G01X2.185Y-2.7165
M16
G05
G00X2.3031Y-2.9528
M15
G01X2.185Y-2.9528
M16
G05
G00X2.3031Y-3.3465
M15
G01X2.185Y-3.3465
M16
G05
G00X2.3031Y-3.5827
M15
G01X2.185Y-3.5827
M16
G05
G00X2.9331Y-2.0866
M15
G01X2.815Y-2.0866
M16
G05
G00X2.9331Y-2.3228
M15
G01X2.815Y-2.3228
M16
G05
G00X2.9331Y-2.7165
M15
G01X2.815Y-2.7165
M16
G05
G00X2.9331Y-2.9528
M15
G01X2.815Y-2.9528
M16
G05
G00X2.9331Y-3.3465
M15
G01X2.815Y-3.3465
M16
G05
G00X2.9331Y-3.5827
M15
G01X2.815Y-3.5827
M16
G05
G00X3.563Y-3.3465
M15
G01X3.4449Y-3.3465
M16
G05
G00X3.563Y-3.5827
M15
G01X3.4449Y-3.5827
M16
G05
G00X4.1929Y-3.3465
M15
G01X4.0748Y-3.3465
M16
G05
G00X4.1929Y-3.5827
M15
G01X4.0748Y-3.5827
M16
G05
G00X4.8228Y-3.3465
M15
G01X4.7047Y-3.3465
M16
G05
G00X4.8228Y-3.5827
M15
G01X4.7047Y-3.5827
M16
G05
G00X5.4528Y-3.3465
M15
G01X5.3346Y-3.3465
M16
G05
G00X5.4528Y-3.5827
M15
G01X5.3346Y-3.5827
M16
G05
T7
G00X2.3386Y-1.3898
M15
G01X2.3386Y-1.3465
M16
G05
G00X2.7795Y-1.3898
M15
G01X2.7795Y-1.3465
M16
G05
M30
