%TF.GenerationSoftware,KiCad,Pcbnew,8.0.1*%
%TF.CreationDate,2024-04-21T23:41:19+02:00*%
%TF.ProjectId,PreciPSLoadFront,50726563-6950-4534-9c6f-616446726f6e,rev?*%
%TF.SameCoordinates,Original*%
%TF.FileFunction,Legend,Top*%
%TF.FilePolarity,Positive*%
%FSLAX46Y46*%
G04 Gerber Fmt 4.6, Leading zero omitted, Abs format (unit mm)*
G04 Created by KiCad (PCBNEW 8.0.1) date 2024-04-21 23:41:19*
%MOMM*%
%LPD*%
G01*
G04 APERTURE LIST*
%ADD10C,0.150000*%
%ADD11C,0.100000*%
%ADD12C,0.120000*%
G04 APERTURE END LIST*
D10*
X135360588Y-78797550D02*
X135265350Y-78749931D01*
X135265350Y-78749931D02*
X135122493Y-78749931D01*
X135122493Y-78749931D02*
X134979636Y-78797550D01*
X134979636Y-78797550D02*
X134884398Y-78892788D01*
X134884398Y-78892788D02*
X134836779Y-78988026D01*
X134836779Y-78988026D02*
X134789160Y-79178502D01*
X134789160Y-79178502D02*
X134789160Y-79321359D01*
X134789160Y-79321359D02*
X134836779Y-79511835D01*
X134836779Y-79511835D02*
X134884398Y-79607073D01*
X134884398Y-79607073D02*
X134979636Y-79702312D01*
X134979636Y-79702312D02*
X135122493Y-79749931D01*
X135122493Y-79749931D02*
X135217731Y-79749931D01*
X135217731Y-79749931D02*
X135360588Y-79702312D01*
X135360588Y-79702312D02*
X135408207Y-79654692D01*
X135408207Y-79654692D02*
X135408207Y-79321359D01*
X135408207Y-79321359D02*
X135217731Y-79321359D01*
X135836779Y-79749931D02*
X135836779Y-78749931D01*
X135836779Y-78749931D02*
X136408207Y-79749931D01*
X136408207Y-79749931D02*
X136408207Y-78749931D01*
X136884398Y-79749931D02*
X136884398Y-78749931D01*
X136884398Y-78749931D02*
X137122493Y-78749931D01*
X137122493Y-78749931D02*
X137265350Y-78797550D01*
X137265350Y-78797550D02*
X137360588Y-78892788D01*
X137360588Y-78892788D02*
X137408207Y-78988026D01*
X137408207Y-78988026D02*
X137455826Y-79178502D01*
X137455826Y-79178502D02*
X137455826Y-79321359D01*
X137455826Y-79321359D02*
X137408207Y-79511835D01*
X137408207Y-79511835D02*
X137360588Y-79607073D01*
X137360588Y-79607073D02*
X137265350Y-79702312D01*
X137265350Y-79702312D02*
X137122493Y-79749931D01*
X137122493Y-79749931D02*
X136884398Y-79749931D01*
X134741541Y-80359875D02*
X135360588Y-80359875D01*
X135360588Y-80359875D02*
X135027255Y-80740827D01*
X135027255Y-80740827D02*
X135170112Y-80740827D01*
X135170112Y-80740827D02*
X135265350Y-80788446D01*
X135265350Y-80788446D02*
X135312969Y-80836065D01*
X135312969Y-80836065D02*
X135360588Y-80931303D01*
X135360588Y-80931303D02*
X135360588Y-81169398D01*
X135360588Y-81169398D02*
X135312969Y-81264636D01*
X135312969Y-81264636D02*
X135265350Y-81312256D01*
X135265350Y-81312256D02*
X135170112Y-81359875D01*
X135170112Y-81359875D02*
X134884398Y-81359875D01*
X134884398Y-81359875D02*
X134789160Y-81312256D01*
X134789160Y-81312256D02*
X134741541Y-81264636D01*
X135646303Y-80359875D02*
X135979636Y-81359875D01*
X135979636Y-81359875D02*
X136312969Y-80359875D01*
X136551065Y-80359875D02*
X137170112Y-80359875D01*
X137170112Y-80359875D02*
X136836779Y-80740827D01*
X136836779Y-80740827D02*
X136979636Y-80740827D01*
X136979636Y-80740827D02*
X137074874Y-80788446D01*
X137074874Y-80788446D02*
X137122493Y-80836065D01*
X137122493Y-80836065D02*
X137170112Y-80931303D01*
X137170112Y-80931303D02*
X137170112Y-81169398D01*
X137170112Y-81169398D02*
X137122493Y-81264636D01*
X137122493Y-81264636D02*
X137074874Y-81312256D01*
X137074874Y-81312256D02*
X136979636Y-81359875D01*
X136979636Y-81359875D02*
X136693922Y-81359875D01*
X136693922Y-81359875D02*
X136598684Y-81312256D01*
X136598684Y-81312256D02*
X136551065Y-81264636D01*
X135312969Y-81969819D02*
X134836779Y-81969819D01*
X134836779Y-81969819D02*
X134789160Y-82446009D01*
X134789160Y-82446009D02*
X134836779Y-82398390D01*
X134836779Y-82398390D02*
X134932017Y-82350771D01*
X134932017Y-82350771D02*
X135170112Y-82350771D01*
X135170112Y-82350771D02*
X135265350Y-82398390D01*
X135265350Y-82398390D02*
X135312969Y-82446009D01*
X135312969Y-82446009D02*
X135360588Y-82541247D01*
X135360588Y-82541247D02*
X135360588Y-82779342D01*
X135360588Y-82779342D02*
X135312969Y-82874580D01*
X135312969Y-82874580D02*
X135265350Y-82922200D01*
X135265350Y-82922200D02*
X135170112Y-82969819D01*
X135170112Y-82969819D02*
X134932017Y-82969819D01*
X134932017Y-82969819D02*
X134836779Y-82922200D01*
X134836779Y-82922200D02*
X134789160Y-82874580D01*
X135646303Y-81969819D02*
X135979636Y-82969819D01*
X135979636Y-82969819D02*
X136312969Y-81969819D01*
X104236779Y-60569819D02*
X104236779Y-61379342D01*
X104236779Y-61379342D02*
X104284398Y-61474580D01*
X104284398Y-61474580D02*
X104332017Y-61522200D01*
X104332017Y-61522200D02*
X104427255Y-61569819D01*
X104427255Y-61569819D02*
X104617731Y-61569819D01*
X104617731Y-61569819D02*
X104712969Y-61522200D01*
X104712969Y-61522200D02*
X104760588Y-61474580D01*
X104760588Y-61474580D02*
X104808207Y-61379342D01*
X104808207Y-61379342D02*
X104808207Y-60569819D01*
X105236779Y-61284104D02*
X105712969Y-61284104D01*
X105141541Y-61569819D02*
X105474874Y-60569819D01*
X105474874Y-60569819D02*
X105808207Y-61569819D01*
X106712969Y-61569819D02*
X106379636Y-61093628D01*
X106141541Y-61569819D02*
X106141541Y-60569819D01*
X106141541Y-60569819D02*
X106522493Y-60569819D01*
X106522493Y-60569819D02*
X106617731Y-60617438D01*
X106617731Y-60617438D02*
X106665350Y-60665057D01*
X106665350Y-60665057D02*
X106712969Y-60760295D01*
X106712969Y-60760295D02*
X106712969Y-60903152D01*
X106712969Y-60903152D02*
X106665350Y-60998390D01*
X106665350Y-60998390D02*
X106617731Y-61046009D01*
X106617731Y-61046009D02*
X106522493Y-61093628D01*
X106522493Y-61093628D02*
X106141541Y-61093628D01*
X106998684Y-60569819D02*
X107570112Y-60569819D01*
X107284398Y-61569819D02*
X107284398Y-60569819D01*
X107855827Y-60665057D02*
X107903446Y-60617438D01*
X107903446Y-60617438D02*
X107998684Y-60569819D01*
X107998684Y-60569819D02*
X108236779Y-60569819D01*
X108236779Y-60569819D02*
X108332017Y-60617438D01*
X108332017Y-60617438D02*
X108379636Y-60665057D01*
X108379636Y-60665057D02*
X108427255Y-60760295D01*
X108427255Y-60760295D02*
X108427255Y-60855533D01*
X108427255Y-60855533D02*
X108379636Y-60998390D01*
X108379636Y-60998390D02*
X107808208Y-61569819D01*
X107808208Y-61569819D02*
X108427255Y-61569819D01*
X103936779Y-35669819D02*
X103936779Y-36479342D01*
X103936779Y-36479342D02*
X103984398Y-36574580D01*
X103984398Y-36574580D02*
X104032017Y-36622200D01*
X104032017Y-36622200D02*
X104127255Y-36669819D01*
X104127255Y-36669819D02*
X104317731Y-36669819D01*
X104317731Y-36669819D02*
X104412969Y-36622200D01*
X104412969Y-36622200D02*
X104460588Y-36574580D01*
X104460588Y-36574580D02*
X104508207Y-36479342D01*
X104508207Y-36479342D02*
X104508207Y-35669819D01*
X104936779Y-36384104D02*
X105412969Y-36384104D01*
X104841541Y-36669819D02*
X105174874Y-35669819D01*
X105174874Y-35669819D02*
X105508207Y-36669819D01*
X106412969Y-36669819D02*
X106079636Y-36193628D01*
X105841541Y-36669819D02*
X105841541Y-35669819D01*
X105841541Y-35669819D02*
X106222493Y-35669819D01*
X106222493Y-35669819D02*
X106317731Y-35717438D01*
X106317731Y-35717438D02*
X106365350Y-35765057D01*
X106365350Y-35765057D02*
X106412969Y-35860295D01*
X106412969Y-35860295D02*
X106412969Y-36003152D01*
X106412969Y-36003152D02*
X106365350Y-36098390D01*
X106365350Y-36098390D02*
X106317731Y-36146009D01*
X106317731Y-36146009D02*
X106222493Y-36193628D01*
X106222493Y-36193628D02*
X105841541Y-36193628D01*
X106698684Y-35669819D02*
X107270112Y-35669819D01*
X106984398Y-36669819D02*
X106984398Y-35669819D01*
X108127255Y-36669819D02*
X107555827Y-36669819D01*
X107841541Y-36669819D02*
X107841541Y-35669819D01*
X107841541Y-35669819D02*
X107746303Y-35812676D01*
X107746303Y-35812676D02*
X107651065Y-35907914D01*
X107651065Y-35907914D02*
X107555827Y-35955533D01*
X141726366Y-37113220D02*
X141726366Y-36351316D01*
X148707319Y-34089411D02*
X148707319Y-34660839D01*
X148707319Y-34375125D02*
X147707319Y-34375125D01*
X147707319Y-34375125D02*
X147850176Y-34470363D01*
X147850176Y-34470363D02*
X147945414Y-34565601D01*
X147945414Y-34565601D02*
X147993033Y-34660839D01*
X147802557Y-33708458D02*
X147754938Y-33660839D01*
X147754938Y-33660839D02*
X147707319Y-33565601D01*
X147707319Y-33565601D02*
X147707319Y-33327506D01*
X147707319Y-33327506D02*
X147754938Y-33232268D01*
X147754938Y-33232268D02*
X147802557Y-33184649D01*
X147802557Y-33184649D02*
X147897795Y-33137030D01*
X147897795Y-33137030D02*
X147993033Y-33137030D01*
X147993033Y-33137030D02*
X148135890Y-33184649D01*
X148135890Y-33184649D02*
X148707319Y-33756077D01*
X148707319Y-33756077D02*
X148707319Y-33137030D01*
X147707319Y-32851315D02*
X148707319Y-32517982D01*
X148707319Y-32517982D02*
X147707319Y-32184649D01*
X148183509Y-30756077D02*
X148183509Y-31089410D01*
X148707319Y-31089410D02*
X147707319Y-31089410D01*
X147707319Y-31089410D02*
X147707319Y-30613220D01*
X148707319Y-29803696D02*
X148183509Y-29803696D01*
X148183509Y-29803696D02*
X148088271Y-29851315D01*
X148088271Y-29851315D02*
X148040652Y-29946553D01*
X148040652Y-29946553D02*
X148040652Y-30137029D01*
X148040652Y-30137029D02*
X148088271Y-30232267D01*
X148659700Y-29803696D02*
X148707319Y-29898934D01*
X148707319Y-29898934D02*
X148707319Y-30137029D01*
X148707319Y-30137029D02*
X148659700Y-30232267D01*
X148659700Y-30232267D02*
X148564461Y-30279886D01*
X148564461Y-30279886D02*
X148469223Y-30279886D01*
X148469223Y-30279886D02*
X148373985Y-30232267D01*
X148373985Y-30232267D02*
X148326366Y-30137029D01*
X148326366Y-30137029D02*
X148326366Y-29898934D01*
X148326366Y-29898934D02*
X148278747Y-29803696D01*
X148040652Y-29327505D02*
X148707319Y-29327505D01*
X148135890Y-29327505D02*
X148088271Y-29279886D01*
X148088271Y-29279886D02*
X148040652Y-29184648D01*
X148040652Y-29184648D02*
X148040652Y-29041791D01*
X148040652Y-29041791D02*
X148088271Y-28946553D01*
X148088271Y-28946553D02*
X148183509Y-28898934D01*
X148183509Y-28898934D02*
X148707319Y-28898934D01*
X148026366Y-48413220D02*
X148026366Y-47651316D01*
X148407319Y-48032268D02*
X147645414Y-48032268D01*
X148407319Y-45889411D02*
X148407319Y-46460839D01*
X148407319Y-46175125D02*
X147407319Y-46175125D01*
X147407319Y-46175125D02*
X147550176Y-46270363D01*
X147550176Y-46270363D02*
X147645414Y-46365601D01*
X147645414Y-46365601D02*
X147693033Y-46460839D01*
X147502557Y-45508458D02*
X147454938Y-45460839D01*
X147454938Y-45460839D02*
X147407319Y-45365601D01*
X147407319Y-45365601D02*
X147407319Y-45127506D01*
X147407319Y-45127506D02*
X147454938Y-45032268D01*
X147454938Y-45032268D02*
X147502557Y-44984649D01*
X147502557Y-44984649D02*
X147597795Y-44937030D01*
X147597795Y-44937030D02*
X147693033Y-44937030D01*
X147693033Y-44937030D02*
X147835890Y-44984649D01*
X147835890Y-44984649D02*
X148407319Y-45556077D01*
X148407319Y-45556077D02*
X148407319Y-44937030D01*
X147407319Y-44651315D02*
X148407319Y-44317982D01*
X148407319Y-44317982D02*
X147407319Y-43984649D01*
X148407319Y-42889410D02*
X147740652Y-42889410D01*
X147407319Y-42889410D02*
X147454938Y-42937029D01*
X147454938Y-42937029D02*
X147502557Y-42889410D01*
X147502557Y-42889410D02*
X147454938Y-42841791D01*
X147454938Y-42841791D02*
X147407319Y-42889410D01*
X147407319Y-42889410D02*
X147502557Y-42889410D01*
X147740652Y-42413220D02*
X148407319Y-42413220D01*
X147835890Y-42413220D02*
X147788271Y-42365601D01*
X147788271Y-42365601D02*
X147740652Y-42270363D01*
X147740652Y-42270363D02*
X147740652Y-42127506D01*
X147740652Y-42127506D02*
X147788271Y-42032268D01*
X147788271Y-42032268D02*
X147883509Y-41984649D01*
X147883509Y-41984649D02*
X148407319Y-41984649D01*
X148026366Y-40746553D02*
X148026366Y-39984649D01*
X122704819Y-59361904D02*
X123514342Y-59361904D01*
X123514342Y-59361904D02*
X123609580Y-59314285D01*
X123609580Y-59314285D02*
X123657200Y-59266666D01*
X123657200Y-59266666D02*
X123704819Y-59171428D01*
X123704819Y-59171428D02*
X123704819Y-58980952D01*
X123704819Y-58980952D02*
X123657200Y-58885714D01*
X123657200Y-58885714D02*
X123609580Y-58838095D01*
X123609580Y-58838095D02*
X123514342Y-58790476D01*
X123514342Y-58790476D02*
X122704819Y-58790476D01*
X122800057Y-58361904D02*
X122752438Y-58314285D01*
X122752438Y-58314285D02*
X122704819Y-58219047D01*
X122704819Y-58219047D02*
X122704819Y-57980952D01*
X122704819Y-57980952D02*
X122752438Y-57885714D01*
X122752438Y-57885714D02*
X122800057Y-57838095D01*
X122800057Y-57838095D02*
X122895295Y-57790476D01*
X122895295Y-57790476D02*
X122990533Y-57790476D01*
X122990533Y-57790476D02*
X123133390Y-57838095D01*
X123133390Y-57838095D02*
X123704819Y-58409523D01*
X123704819Y-58409523D02*
X123704819Y-57790476D01*
X121119456Y-51566009D02*
X121452789Y-51566009D01*
X121595646Y-52089819D02*
X121119456Y-52089819D01*
X121119456Y-52089819D02*
X121119456Y-51089819D01*
X121119456Y-51089819D02*
X121595646Y-51089819D01*
X121881361Y-51423152D02*
X122262313Y-51423152D01*
X122024218Y-51089819D02*
X122024218Y-51946961D01*
X122024218Y-51946961D02*
X122071837Y-52042200D01*
X122071837Y-52042200D02*
X122167075Y-52089819D01*
X122167075Y-52089819D02*
X122262313Y-52089819D01*
X122595647Y-52089819D02*
X122595647Y-51089819D01*
X123024218Y-52089819D02*
X123024218Y-51566009D01*
X123024218Y-51566009D02*
X122976599Y-51470771D01*
X122976599Y-51470771D02*
X122881361Y-51423152D01*
X122881361Y-51423152D02*
X122738504Y-51423152D01*
X122738504Y-51423152D02*
X122643266Y-51470771D01*
X122643266Y-51470771D02*
X122595647Y-51518390D01*
X123881361Y-52042200D02*
X123786123Y-52089819D01*
X123786123Y-52089819D02*
X123595647Y-52089819D01*
X123595647Y-52089819D02*
X123500409Y-52042200D01*
X123500409Y-52042200D02*
X123452790Y-51946961D01*
X123452790Y-51946961D02*
X123452790Y-51566009D01*
X123452790Y-51566009D02*
X123500409Y-51470771D01*
X123500409Y-51470771D02*
X123595647Y-51423152D01*
X123595647Y-51423152D02*
X123786123Y-51423152D01*
X123786123Y-51423152D02*
X123881361Y-51470771D01*
X123881361Y-51470771D02*
X123928980Y-51566009D01*
X123928980Y-51566009D02*
X123928980Y-51661247D01*
X123928980Y-51661247D02*
X123452790Y-51756485D01*
X124357552Y-52089819D02*
X124357552Y-51423152D01*
X124357552Y-51613628D02*
X124405171Y-51518390D01*
X124405171Y-51518390D02*
X124452790Y-51470771D01*
X124452790Y-51470771D02*
X124548028Y-51423152D01*
X124548028Y-51423152D02*
X124643266Y-51423152D01*
X124976600Y-51423152D02*
X124976600Y-52089819D01*
X124976600Y-51518390D02*
X125024219Y-51470771D01*
X125024219Y-51470771D02*
X125119457Y-51423152D01*
X125119457Y-51423152D02*
X125262314Y-51423152D01*
X125262314Y-51423152D02*
X125357552Y-51470771D01*
X125357552Y-51470771D02*
X125405171Y-51566009D01*
X125405171Y-51566009D02*
X125405171Y-52089819D01*
X126262314Y-52042200D02*
X126167076Y-52089819D01*
X126167076Y-52089819D02*
X125976600Y-52089819D01*
X125976600Y-52089819D02*
X125881362Y-52042200D01*
X125881362Y-52042200D02*
X125833743Y-51946961D01*
X125833743Y-51946961D02*
X125833743Y-51566009D01*
X125833743Y-51566009D02*
X125881362Y-51470771D01*
X125881362Y-51470771D02*
X125976600Y-51423152D01*
X125976600Y-51423152D02*
X126167076Y-51423152D01*
X126167076Y-51423152D02*
X126262314Y-51470771D01*
X126262314Y-51470771D02*
X126309933Y-51566009D01*
X126309933Y-51566009D02*
X126309933Y-51661247D01*
X126309933Y-51661247D02*
X125833743Y-51756485D01*
X126595648Y-51423152D02*
X126976600Y-51423152D01*
X126738505Y-51089819D02*
X126738505Y-51946961D01*
X126738505Y-51946961D02*
X126786124Y-52042200D01*
X126786124Y-52042200D02*
X126881362Y-52089819D01*
X126881362Y-52089819D02*
X126976600Y-52089819D01*
X117665619Y-48543723D02*
X118475142Y-48543723D01*
X118475142Y-48543723D02*
X118570380Y-48496104D01*
X118570380Y-48496104D02*
X118618000Y-48448485D01*
X118618000Y-48448485D02*
X118665619Y-48353247D01*
X118665619Y-48353247D02*
X118665619Y-48162771D01*
X118665619Y-48162771D02*
X118618000Y-48067533D01*
X118618000Y-48067533D02*
X118570380Y-48019914D01*
X118570380Y-48019914D02*
X118475142Y-47972295D01*
X118475142Y-47972295D02*
X117665619Y-47972295D01*
X118618000Y-47543723D02*
X118665619Y-47400866D01*
X118665619Y-47400866D02*
X118665619Y-47162771D01*
X118665619Y-47162771D02*
X118618000Y-47067533D01*
X118618000Y-47067533D02*
X118570380Y-47019914D01*
X118570380Y-47019914D02*
X118475142Y-46972295D01*
X118475142Y-46972295D02*
X118379904Y-46972295D01*
X118379904Y-46972295D02*
X118284666Y-47019914D01*
X118284666Y-47019914D02*
X118237047Y-47067533D01*
X118237047Y-47067533D02*
X118189428Y-47162771D01*
X118189428Y-47162771D02*
X118141809Y-47353247D01*
X118141809Y-47353247D02*
X118094190Y-47448485D01*
X118094190Y-47448485D02*
X118046571Y-47496104D01*
X118046571Y-47496104D02*
X117951333Y-47543723D01*
X117951333Y-47543723D02*
X117856095Y-47543723D01*
X117856095Y-47543723D02*
X117760857Y-47496104D01*
X117760857Y-47496104D02*
X117713238Y-47448485D01*
X117713238Y-47448485D02*
X117665619Y-47353247D01*
X117665619Y-47353247D02*
X117665619Y-47115152D01*
X117665619Y-47115152D02*
X117713238Y-46972295D01*
X118141809Y-46210390D02*
X118189428Y-46067533D01*
X118189428Y-46067533D02*
X118237047Y-46019914D01*
X118237047Y-46019914D02*
X118332285Y-45972295D01*
X118332285Y-45972295D02*
X118475142Y-45972295D01*
X118475142Y-45972295D02*
X118570380Y-46019914D01*
X118570380Y-46019914D02*
X118618000Y-46067533D01*
X118618000Y-46067533D02*
X118665619Y-46162771D01*
X118665619Y-46162771D02*
X118665619Y-46543723D01*
X118665619Y-46543723D02*
X117665619Y-46543723D01*
X117665619Y-46543723D02*
X117665619Y-46210390D01*
X117665619Y-46210390D02*
X117713238Y-46115152D01*
X117713238Y-46115152D02*
X117760857Y-46067533D01*
X117760857Y-46067533D02*
X117856095Y-46019914D01*
X117856095Y-46019914D02*
X117951333Y-46019914D01*
X117951333Y-46019914D02*
X118046571Y-46067533D01*
X118046571Y-46067533D02*
X118094190Y-46115152D01*
X118094190Y-46115152D02*
X118141809Y-46210390D01*
X118141809Y-46210390D02*
X118141809Y-46543723D01*
X118665619Y-44781818D02*
X117665619Y-44781818D01*
X118141809Y-44781818D02*
X118141809Y-44210390D01*
X118665619Y-44210390D02*
X117665619Y-44210390D01*
X118665619Y-43591342D02*
X118618000Y-43686580D01*
X118618000Y-43686580D02*
X118570380Y-43734199D01*
X118570380Y-43734199D02*
X118475142Y-43781818D01*
X118475142Y-43781818D02*
X118189428Y-43781818D01*
X118189428Y-43781818D02*
X118094190Y-43734199D01*
X118094190Y-43734199D02*
X118046571Y-43686580D01*
X118046571Y-43686580D02*
X117998952Y-43591342D01*
X117998952Y-43591342D02*
X117998952Y-43448485D01*
X117998952Y-43448485D02*
X118046571Y-43353247D01*
X118046571Y-43353247D02*
X118094190Y-43305628D01*
X118094190Y-43305628D02*
X118189428Y-43258009D01*
X118189428Y-43258009D02*
X118475142Y-43258009D01*
X118475142Y-43258009D02*
X118570380Y-43305628D01*
X118570380Y-43305628D02*
X118618000Y-43353247D01*
X118618000Y-43353247D02*
X118665619Y-43448485D01*
X118665619Y-43448485D02*
X118665619Y-43591342D01*
X118618000Y-42877056D02*
X118665619Y-42781818D01*
X118665619Y-42781818D02*
X118665619Y-42591342D01*
X118665619Y-42591342D02*
X118618000Y-42496104D01*
X118618000Y-42496104D02*
X118522761Y-42448485D01*
X118522761Y-42448485D02*
X118475142Y-42448485D01*
X118475142Y-42448485D02*
X118379904Y-42496104D01*
X118379904Y-42496104D02*
X118332285Y-42591342D01*
X118332285Y-42591342D02*
X118332285Y-42734199D01*
X118332285Y-42734199D02*
X118284666Y-42829437D01*
X118284666Y-42829437D02*
X118189428Y-42877056D01*
X118189428Y-42877056D02*
X118141809Y-42877056D01*
X118141809Y-42877056D02*
X118046571Y-42829437D01*
X118046571Y-42829437D02*
X117998952Y-42734199D01*
X117998952Y-42734199D02*
X117998952Y-42591342D01*
X117998952Y-42591342D02*
X118046571Y-42496104D01*
X117998952Y-42162770D02*
X117998952Y-41781818D01*
X117665619Y-42019913D02*
X118522761Y-42019913D01*
X118522761Y-42019913D02*
X118618000Y-41972294D01*
X118618000Y-41972294D02*
X118665619Y-41877056D01*
X118665619Y-41877056D02*
X118665619Y-41781818D01*
X119438095Y-36484819D02*
X119438095Y-37294342D01*
X119438095Y-37294342D02*
X119485714Y-37389580D01*
X119485714Y-37389580D02*
X119533333Y-37437200D01*
X119533333Y-37437200D02*
X119628571Y-37484819D01*
X119628571Y-37484819D02*
X119819047Y-37484819D01*
X119819047Y-37484819D02*
X119914285Y-37437200D01*
X119914285Y-37437200D02*
X119961904Y-37389580D01*
X119961904Y-37389580D02*
X120009523Y-37294342D01*
X120009523Y-37294342D02*
X120009523Y-36484819D01*
X120438095Y-37437200D02*
X120580952Y-37484819D01*
X120580952Y-37484819D02*
X120819047Y-37484819D01*
X120819047Y-37484819D02*
X120914285Y-37437200D01*
X120914285Y-37437200D02*
X120961904Y-37389580D01*
X120961904Y-37389580D02*
X121009523Y-37294342D01*
X121009523Y-37294342D02*
X121009523Y-37199104D01*
X121009523Y-37199104D02*
X120961904Y-37103866D01*
X120961904Y-37103866D02*
X120914285Y-37056247D01*
X120914285Y-37056247D02*
X120819047Y-37008628D01*
X120819047Y-37008628D02*
X120628571Y-36961009D01*
X120628571Y-36961009D02*
X120533333Y-36913390D01*
X120533333Y-36913390D02*
X120485714Y-36865771D01*
X120485714Y-36865771D02*
X120438095Y-36770533D01*
X120438095Y-36770533D02*
X120438095Y-36675295D01*
X120438095Y-36675295D02*
X120485714Y-36580057D01*
X120485714Y-36580057D02*
X120533333Y-36532438D01*
X120533333Y-36532438D02*
X120628571Y-36484819D01*
X120628571Y-36484819D02*
X120866666Y-36484819D01*
X120866666Y-36484819D02*
X121009523Y-36532438D01*
X121771428Y-36961009D02*
X121914285Y-37008628D01*
X121914285Y-37008628D02*
X121961904Y-37056247D01*
X121961904Y-37056247D02*
X122009523Y-37151485D01*
X122009523Y-37151485D02*
X122009523Y-37294342D01*
X122009523Y-37294342D02*
X121961904Y-37389580D01*
X121961904Y-37389580D02*
X121914285Y-37437200D01*
X121914285Y-37437200D02*
X121819047Y-37484819D01*
X121819047Y-37484819D02*
X121438095Y-37484819D01*
X121438095Y-37484819D02*
X121438095Y-36484819D01*
X121438095Y-36484819D02*
X121771428Y-36484819D01*
X121771428Y-36484819D02*
X121866666Y-36532438D01*
X121866666Y-36532438D02*
X121914285Y-36580057D01*
X121914285Y-36580057D02*
X121961904Y-36675295D01*
X121961904Y-36675295D02*
X121961904Y-36770533D01*
X121961904Y-36770533D02*
X121914285Y-36865771D01*
X121914285Y-36865771D02*
X121866666Y-36913390D01*
X121866666Y-36913390D02*
X121771428Y-36961009D01*
X121771428Y-36961009D02*
X121438095Y-36961009D01*
X121154819Y-90949047D02*
X120154819Y-90949047D01*
X120154819Y-90949047D02*
X120869104Y-90615714D01*
X120869104Y-90615714D02*
X120154819Y-90282381D01*
X120154819Y-90282381D02*
X121154819Y-90282381D01*
X121154819Y-89806190D02*
X120488152Y-89806190D01*
X120154819Y-89806190D02*
X120202438Y-89853809D01*
X120202438Y-89853809D02*
X120250057Y-89806190D01*
X120250057Y-89806190D02*
X120202438Y-89758571D01*
X120202438Y-89758571D02*
X120154819Y-89806190D01*
X120154819Y-89806190D02*
X120250057Y-89806190D01*
X121107200Y-88901429D02*
X121154819Y-88996667D01*
X121154819Y-88996667D02*
X121154819Y-89187143D01*
X121154819Y-89187143D02*
X121107200Y-89282381D01*
X121107200Y-89282381D02*
X121059580Y-89330000D01*
X121059580Y-89330000D02*
X120964342Y-89377619D01*
X120964342Y-89377619D02*
X120678628Y-89377619D01*
X120678628Y-89377619D02*
X120583390Y-89330000D01*
X120583390Y-89330000D02*
X120535771Y-89282381D01*
X120535771Y-89282381D02*
X120488152Y-89187143D01*
X120488152Y-89187143D02*
X120488152Y-88996667D01*
X120488152Y-88996667D02*
X120535771Y-88901429D01*
X121154819Y-88472857D02*
X120488152Y-88472857D01*
X120678628Y-88472857D02*
X120583390Y-88425238D01*
X120583390Y-88425238D02*
X120535771Y-88377619D01*
X120535771Y-88377619D02*
X120488152Y-88282381D01*
X120488152Y-88282381D02*
X120488152Y-88187143D01*
X121154819Y-87710952D02*
X121107200Y-87806190D01*
X121107200Y-87806190D02*
X121059580Y-87853809D01*
X121059580Y-87853809D02*
X120964342Y-87901428D01*
X120964342Y-87901428D02*
X120678628Y-87901428D01*
X120678628Y-87901428D02*
X120583390Y-87853809D01*
X120583390Y-87853809D02*
X120535771Y-87806190D01*
X120535771Y-87806190D02*
X120488152Y-87710952D01*
X120488152Y-87710952D02*
X120488152Y-87568095D01*
X120488152Y-87568095D02*
X120535771Y-87472857D01*
X120535771Y-87472857D02*
X120583390Y-87425238D01*
X120583390Y-87425238D02*
X120678628Y-87377619D01*
X120678628Y-87377619D02*
X120964342Y-87377619D01*
X120964342Y-87377619D02*
X121059580Y-87425238D01*
X121059580Y-87425238D02*
X121107200Y-87472857D01*
X121107200Y-87472857D02*
X121154819Y-87568095D01*
X121154819Y-87568095D02*
X121154819Y-87710952D01*
X121107200Y-86234761D02*
X121154819Y-86091904D01*
X121154819Y-86091904D02*
X121154819Y-85853809D01*
X121154819Y-85853809D02*
X121107200Y-85758571D01*
X121107200Y-85758571D02*
X121059580Y-85710952D01*
X121059580Y-85710952D02*
X120964342Y-85663333D01*
X120964342Y-85663333D02*
X120869104Y-85663333D01*
X120869104Y-85663333D02*
X120773866Y-85710952D01*
X120773866Y-85710952D02*
X120726247Y-85758571D01*
X120726247Y-85758571D02*
X120678628Y-85853809D01*
X120678628Y-85853809D02*
X120631009Y-86044285D01*
X120631009Y-86044285D02*
X120583390Y-86139523D01*
X120583390Y-86139523D02*
X120535771Y-86187142D01*
X120535771Y-86187142D02*
X120440533Y-86234761D01*
X120440533Y-86234761D02*
X120345295Y-86234761D01*
X120345295Y-86234761D02*
X120250057Y-86187142D01*
X120250057Y-86187142D02*
X120202438Y-86139523D01*
X120202438Y-86139523D02*
X120154819Y-86044285D01*
X120154819Y-86044285D02*
X120154819Y-85806190D01*
X120154819Y-85806190D02*
X120202438Y-85663333D01*
X121154819Y-85234761D02*
X120154819Y-85234761D01*
X120154819Y-85234761D02*
X120154819Y-84996666D01*
X120154819Y-84996666D02*
X120202438Y-84853809D01*
X120202438Y-84853809D02*
X120297676Y-84758571D01*
X120297676Y-84758571D02*
X120392914Y-84710952D01*
X120392914Y-84710952D02*
X120583390Y-84663333D01*
X120583390Y-84663333D02*
X120726247Y-84663333D01*
X120726247Y-84663333D02*
X120916723Y-84710952D01*
X120916723Y-84710952D02*
X121011961Y-84758571D01*
X121011961Y-84758571D02*
X121107200Y-84853809D01*
X121107200Y-84853809D02*
X121154819Y-84996666D01*
X121154819Y-84996666D02*
X121154819Y-85234761D01*
X119496666Y-61476033D02*
X119496666Y-60776033D01*
X119496666Y-60776033D02*
X119663333Y-60776033D01*
X119663333Y-60776033D02*
X119763333Y-60809366D01*
X119763333Y-60809366D02*
X119830000Y-60876033D01*
X119830000Y-60876033D02*
X119863333Y-60942700D01*
X119863333Y-60942700D02*
X119896666Y-61076033D01*
X119896666Y-61076033D02*
X119896666Y-61176033D01*
X119896666Y-61176033D02*
X119863333Y-61309366D01*
X119863333Y-61309366D02*
X119830000Y-61376033D01*
X119830000Y-61376033D02*
X119763333Y-61442700D01*
X119763333Y-61442700D02*
X119663333Y-61476033D01*
X119663333Y-61476033D02*
X119496666Y-61476033D01*
X120096666Y-60776033D02*
X120330000Y-61476033D01*
X120330000Y-61476033D02*
X120563333Y-60776033D01*
X120996666Y-60776033D02*
X120996666Y-61276033D01*
X120996666Y-61276033D02*
X120963333Y-61376033D01*
X120963333Y-61376033D02*
X120896666Y-61442700D01*
X120896666Y-61442700D02*
X120796666Y-61476033D01*
X120796666Y-61476033D02*
X120730000Y-61476033D01*
X121629999Y-60776033D02*
X121496666Y-60776033D01*
X121496666Y-60776033D02*
X121429999Y-60809366D01*
X121429999Y-60809366D02*
X121396666Y-60842700D01*
X121396666Y-60842700D02*
X121329999Y-60942700D01*
X121329999Y-60942700D02*
X121296666Y-61076033D01*
X121296666Y-61076033D02*
X121296666Y-61342700D01*
X121296666Y-61342700D02*
X121329999Y-61409366D01*
X121329999Y-61409366D02*
X121363333Y-61442700D01*
X121363333Y-61442700D02*
X121429999Y-61476033D01*
X121429999Y-61476033D02*
X121563333Y-61476033D01*
X121563333Y-61476033D02*
X121629999Y-61442700D01*
X121629999Y-61442700D02*
X121663333Y-61409366D01*
X121663333Y-61409366D02*
X121696666Y-61342700D01*
X121696666Y-61342700D02*
X121696666Y-61176033D01*
X121696666Y-61176033D02*
X121663333Y-61109366D01*
X121663333Y-61109366D02*
X121629999Y-61076033D01*
X121629999Y-61076033D02*
X121563333Y-61042700D01*
X121563333Y-61042700D02*
X121429999Y-61042700D01*
X121429999Y-61042700D02*
X121363333Y-61076033D01*
X121363333Y-61076033D02*
X121329999Y-61109366D01*
X121329999Y-61109366D02*
X121296666Y-61176033D01*
X121963333Y-61276033D02*
X122296666Y-61276033D01*
X121896666Y-61476033D02*
X122130000Y-60776033D01*
X122130000Y-60776033D02*
X122363333Y-61476033D01*
X117616666Y-62746033D02*
X117616666Y-62046033D01*
X117616666Y-62046033D02*
X117850000Y-62546033D01*
X117850000Y-62546033D02*
X118083333Y-62046033D01*
X118083333Y-62046033D02*
X118083333Y-62746033D01*
X118416666Y-62746033D02*
X118416666Y-62046033D01*
X118749999Y-62746033D02*
X118749999Y-62046033D01*
X118749999Y-62046033D02*
X118983333Y-62546033D01*
X118983333Y-62546033D02*
X119216666Y-62046033D01*
X119216666Y-62046033D02*
X119216666Y-62746033D01*
X119483333Y-62046033D02*
X119949999Y-62746033D01*
X119949999Y-62046033D02*
X119483333Y-62746033D01*
X120616666Y-62746033D02*
X120383333Y-62412700D01*
X120216666Y-62746033D02*
X120216666Y-62046033D01*
X120216666Y-62046033D02*
X120483333Y-62046033D01*
X120483333Y-62046033D02*
X120550000Y-62079366D01*
X120550000Y-62079366D02*
X120583333Y-62112700D01*
X120583333Y-62112700D02*
X120616666Y-62179366D01*
X120616666Y-62179366D02*
X120616666Y-62279366D01*
X120616666Y-62279366D02*
X120583333Y-62346033D01*
X120583333Y-62346033D02*
X120550000Y-62379366D01*
X120550000Y-62379366D02*
X120483333Y-62412700D01*
X120483333Y-62412700D02*
X120216666Y-62412700D01*
X120816666Y-62046033D02*
X121216666Y-62046033D01*
X121016666Y-62746033D02*
X121016666Y-62046033D01*
X121816666Y-62746033D02*
X121416666Y-62746033D01*
X121616666Y-62746033D02*
X121616666Y-62046033D01*
X121616666Y-62046033D02*
X121549999Y-62146033D01*
X121549999Y-62146033D02*
X121483333Y-62212700D01*
X121483333Y-62212700D02*
X121416666Y-62246033D01*
X122250000Y-62046033D02*
X122316666Y-62046033D01*
X122316666Y-62046033D02*
X122383333Y-62079366D01*
X122383333Y-62079366D02*
X122416666Y-62112700D01*
X122416666Y-62112700D02*
X122450000Y-62179366D01*
X122450000Y-62179366D02*
X122483333Y-62312700D01*
X122483333Y-62312700D02*
X122483333Y-62479366D01*
X122483333Y-62479366D02*
X122450000Y-62612700D01*
X122450000Y-62612700D02*
X122416666Y-62679366D01*
X122416666Y-62679366D02*
X122383333Y-62712700D01*
X122383333Y-62712700D02*
X122316666Y-62746033D01*
X122316666Y-62746033D02*
X122250000Y-62746033D01*
X122250000Y-62746033D02*
X122183333Y-62712700D01*
X122183333Y-62712700D02*
X122150000Y-62679366D01*
X122150000Y-62679366D02*
X122116666Y-62612700D01*
X122116666Y-62612700D02*
X122083333Y-62479366D01*
X122083333Y-62479366D02*
X122083333Y-62312700D01*
X122083333Y-62312700D02*
X122116666Y-62179366D01*
X122116666Y-62179366D02*
X122150000Y-62112700D01*
X122150000Y-62112700D02*
X122183333Y-62079366D01*
X122183333Y-62079366D02*
X122250000Y-62046033D01*
X123083333Y-62046033D02*
X122950000Y-62046033D01*
X122950000Y-62046033D02*
X122883333Y-62079366D01*
X122883333Y-62079366D02*
X122850000Y-62112700D01*
X122850000Y-62112700D02*
X122783333Y-62212700D01*
X122783333Y-62212700D02*
X122750000Y-62346033D01*
X122750000Y-62346033D02*
X122750000Y-62612700D01*
X122750000Y-62612700D02*
X122783333Y-62679366D01*
X122783333Y-62679366D02*
X122816667Y-62712700D01*
X122816667Y-62712700D02*
X122883333Y-62746033D01*
X122883333Y-62746033D02*
X123016667Y-62746033D01*
X123016667Y-62746033D02*
X123083333Y-62712700D01*
X123083333Y-62712700D02*
X123116667Y-62679366D01*
X123116667Y-62679366D02*
X123150000Y-62612700D01*
X123150000Y-62612700D02*
X123150000Y-62446033D01*
X123150000Y-62446033D02*
X123116667Y-62379366D01*
X123116667Y-62379366D02*
X123083333Y-62346033D01*
X123083333Y-62346033D02*
X123016667Y-62312700D01*
X123016667Y-62312700D02*
X122883333Y-62312700D01*
X122883333Y-62312700D02*
X122816667Y-62346033D01*
X122816667Y-62346033D02*
X122783333Y-62379366D01*
X122783333Y-62379366D02*
X122750000Y-62446033D01*
X123416667Y-62112700D02*
X123450000Y-62079366D01*
X123450000Y-62079366D02*
X123516667Y-62046033D01*
X123516667Y-62046033D02*
X123683334Y-62046033D01*
X123683334Y-62046033D02*
X123750000Y-62079366D01*
X123750000Y-62079366D02*
X123783334Y-62112700D01*
X123783334Y-62112700D02*
X123816667Y-62179366D01*
X123816667Y-62179366D02*
X123816667Y-62246033D01*
X123816667Y-62246033D02*
X123783334Y-62346033D01*
X123783334Y-62346033D02*
X123383334Y-62746033D01*
X123383334Y-62746033D02*
X123816667Y-62746033D01*
X131766666Y-86704819D02*
X131766666Y-87419104D01*
X131766666Y-87419104D02*
X131719047Y-87561961D01*
X131719047Y-87561961D02*
X131623809Y-87657200D01*
X131623809Y-87657200D02*
X131480952Y-87704819D01*
X131480952Y-87704819D02*
X131385714Y-87704819D01*
X132290476Y-87704819D02*
X132480952Y-87704819D01*
X132480952Y-87704819D02*
X132576190Y-87657200D01*
X132576190Y-87657200D02*
X132623809Y-87609580D01*
X132623809Y-87609580D02*
X132719047Y-87466723D01*
X132719047Y-87466723D02*
X132766666Y-87276247D01*
X132766666Y-87276247D02*
X132766666Y-86895295D01*
X132766666Y-86895295D02*
X132719047Y-86800057D01*
X132719047Y-86800057D02*
X132671428Y-86752438D01*
X132671428Y-86752438D02*
X132576190Y-86704819D01*
X132576190Y-86704819D02*
X132385714Y-86704819D01*
X132385714Y-86704819D02*
X132290476Y-86752438D01*
X132290476Y-86752438D02*
X132242857Y-86800057D01*
X132242857Y-86800057D02*
X132195238Y-86895295D01*
X132195238Y-86895295D02*
X132195238Y-87133390D01*
X132195238Y-87133390D02*
X132242857Y-87228628D01*
X132242857Y-87228628D02*
X132290476Y-87276247D01*
X132290476Y-87276247D02*
X132385714Y-87323866D01*
X132385714Y-87323866D02*
X132576190Y-87323866D01*
X132576190Y-87323866D02*
X132671428Y-87276247D01*
X132671428Y-87276247D02*
X132719047Y-87228628D01*
X132719047Y-87228628D02*
X132766666Y-87133390D01*
X140259580Y-65641666D02*
X140307200Y-65689285D01*
X140307200Y-65689285D02*
X140354819Y-65832142D01*
X140354819Y-65832142D02*
X140354819Y-65927380D01*
X140354819Y-65927380D02*
X140307200Y-66070237D01*
X140307200Y-66070237D02*
X140211961Y-66165475D01*
X140211961Y-66165475D02*
X140116723Y-66213094D01*
X140116723Y-66213094D02*
X139926247Y-66260713D01*
X139926247Y-66260713D02*
X139783390Y-66260713D01*
X139783390Y-66260713D02*
X139592914Y-66213094D01*
X139592914Y-66213094D02*
X139497676Y-66165475D01*
X139497676Y-66165475D02*
X139402438Y-66070237D01*
X139402438Y-66070237D02*
X139354819Y-65927380D01*
X139354819Y-65927380D02*
X139354819Y-65832142D01*
X139354819Y-65832142D02*
X139402438Y-65689285D01*
X139402438Y-65689285D02*
X139450057Y-65641666D01*
X139354819Y-64736904D02*
X139354819Y-65213094D01*
X139354819Y-65213094D02*
X139831009Y-65260713D01*
X139831009Y-65260713D02*
X139783390Y-65213094D01*
X139783390Y-65213094D02*
X139735771Y-65117856D01*
X139735771Y-65117856D02*
X139735771Y-64879761D01*
X139735771Y-64879761D02*
X139783390Y-64784523D01*
X139783390Y-64784523D02*
X139831009Y-64736904D01*
X139831009Y-64736904D02*
X139926247Y-64689285D01*
X139926247Y-64689285D02*
X140164342Y-64689285D01*
X140164342Y-64689285D02*
X140259580Y-64736904D01*
X140259580Y-64736904D02*
X140307200Y-64784523D01*
X140307200Y-64784523D02*
X140354819Y-64879761D01*
X140354819Y-64879761D02*
X140354819Y-65117856D01*
X140354819Y-65117856D02*
X140307200Y-65213094D01*
X140307200Y-65213094D02*
X140259580Y-65260713D01*
X136054819Y-71683333D02*
X136769104Y-71683333D01*
X136769104Y-71683333D02*
X136911961Y-71730952D01*
X136911961Y-71730952D02*
X137007200Y-71826190D01*
X137007200Y-71826190D02*
X137054819Y-71969047D01*
X137054819Y-71969047D02*
X137054819Y-72064285D01*
X136054819Y-71302380D02*
X136054819Y-70635714D01*
X136054819Y-70635714D02*
X137054819Y-71064285D01*
X77854819Y-52233333D02*
X78569104Y-52233333D01*
X78569104Y-52233333D02*
X78711961Y-52280952D01*
X78711961Y-52280952D02*
X78807200Y-52376190D01*
X78807200Y-52376190D02*
X78854819Y-52519047D01*
X78854819Y-52519047D02*
X78854819Y-52614285D01*
X78854819Y-51757142D02*
X77854819Y-51757142D01*
X77854819Y-51757142D02*
X77854819Y-51376190D01*
X77854819Y-51376190D02*
X77902438Y-51280952D01*
X77902438Y-51280952D02*
X77950057Y-51233333D01*
X77950057Y-51233333D02*
X78045295Y-51185714D01*
X78045295Y-51185714D02*
X78188152Y-51185714D01*
X78188152Y-51185714D02*
X78283390Y-51233333D01*
X78283390Y-51233333D02*
X78331009Y-51280952D01*
X78331009Y-51280952D02*
X78378628Y-51376190D01*
X78378628Y-51376190D02*
X78378628Y-51757142D01*
X77854819Y-50852380D02*
X77854819Y-50233333D01*
X77854819Y-50233333D02*
X78235771Y-50566666D01*
X78235771Y-50566666D02*
X78235771Y-50423809D01*
X78235771Y-50423809D02*
X78283390Y-50328571D01*
X78283390Y-50328571D02*
X78331009Y-50280952D01*
X78331009Y-50280952D02*
X78426247Y-50233333D01*
X78426247Y-50233333D02*
X78664342Y-50233333D01*
X78664342Y-50233333D02*
X78759580Y-50280952D01*
X78759580Y-50280952D02*
X78807200Y-50328571D01*
X78807200Y-50328571D02*
X78854819Y-50423809D01*
X78854819Y-50423809D02*
X78854819Y-50709523D01*
X78854819Y-50709523D02*
X78807200Y-50804761D01*
X78807200Y-50804761D02*
X78759580Y-50852380D01*
X80554819Y-52133333D02*
X81269104Y-52133333D01*
X81269104Y-52133333D02*
X81411961Y-52180952D01*
X81411961Y-52180952D02*
X81507200Y-52276190D01*
X81507200Y-52276190D02*
X81554819Y-52419047D01*
X81554819Y-52419047D02*
X81554819Y-52514285D01*
X81554819Y-51657142D02*
X80554819Y-51657142D01*
X80554819Y-51657142D02*
X80554819Y-51276190D01*
X80554819Y-51276190D02*
X80602438Y-51180952D01*
X80602438Y-51180952D02*
X80650057Y-51133333D01*
X80650057Y-51133333D02*
X80745295Y-51085714D01*
X80745295Y-51085714D02*
X80888152Y-51085714D01*
X80888152Y-51085714D02*
X80983390Y-51133333D01*
X80983390Y-51133333D02*
X81031009Y-51180952D01*
X81031009Y-51180952D02*
X81078628Y-51276190D01*
X81078628Y-51276190D02*
X81078628Y-51657142D01*
X80650057Y-50704761D02*
X80602438Y-50657142D01*
X80602438Y-50657142D02*
X80554819Y-50561904D01*
X80554819Y-50561904D02*
X80554819Y-50323809D01*
X80554819Y-50323809D02*
X80602438Y-50228571D01*
X80602438Y-50228571D02*
X80650057Y-50180952D01*
X80650057Y-50180952D02*
X80745295Y-50133333D01*
X80745295Y-50133333D02*
X80840533Y-50133333D01*
X80840533Y-50133333D02*
X80983390Y-50180952D01*
X80983390Y-50180952D02*
X81554819Y-50752380D01*
X81554819Y-50752380D02*
X81554819Y-50133333D01*
X86857142Y-34324819D02*
X86523809Y-33848628D01*
X86285714Y-34324819D02*
X86285714Y-33324819D01*
X86285714Y-33324819D02*
X86666666Y-33324819D01*
X86666666Y-33324819D02*
X86761904Y-33372438D01*
X86761904Y-33372438D02*
X86809523Y-33420057D01*
X86809523Y-33420057D02*
X86857142Y-33515295D01*
X86857142Y-33515295D02*
X86857142Y-33658152D01*
X86857142Y-33658152D02*
X86809523Y-33753390D01*
X86809523Y-33753390D02*
X86761904Y-33801009D01*
X86761904Y-33801009D02*
X86666666Y-33848628D01*
X86666666Y-33848628D02*
X86285714Y-33848628D01*
X87809523Y-34324819D02*
X87238095Y-34324819D01*
X87523809Y-34324819D02*
X87523809Y-33324819D01*
X87523809Y-33324819D02*
X87428571Y-33467676D01*
X87428571Y-33467676D02*
X87333333Y-33562914D01*
X87333333Y-33562914D02*
X87238095Y-33610533D01*
X88428571Y-33324819D02*
X88523809Y-33324819D01*
X88523809Y-33324819D02*
X88619047Y-33372438D01*
X88619047Y-33372438D02*
X88666666Y-33420057D01*
X88666666Y-33420057D02*
X88714285Y-33515295D01*
X88714285Y-33515295D02*
X88761904Y-33705771D01*
X88761904Y-33705771D02*
X88761904Y-33943866D01*
X88761904Y-33943866D02*
X88714285Y-34134342D01*
X88714285Y-34134342D02*
X88666666Y-34229580D01*
X88666666Y-34229580D02*
X88619047Y-34277200D01*
X88619047Y-34277200D02*
X88523809Y-34324819D01*
X88523809Y-34324819D02*
X88428571Y-34324819D01*
X88428571Y-34324819D02*
X88333333Y-34277200D01*
X88333333Y-34277200D02*
X88285714Y-34229580D01*
X88285714Y-34229580D02*
X88238095Y-34134342D01*
X88238095Y-34134342D02*
X88190476Y-33943866D01*
X88190476Y-33943866D02*
X88190476Y-33705771D01*
X88190476Y-33705771D02*
X88238095Y-33515295D01*
X88238095Y-33515295D02*
X88285714Y-33420057D01*
X88285714Y-33420057D02*
X88333333Y-33372438D01*
X88333333Y-33372438D02*
X88428571Y-33324819D01*
X64454819Y-39566666D02*
X63978628Y-39899999D01*
X64454819Y-40138094D02*
X63454819Y-40138094D01*
X63454819Y-40138094D02*
X63454819Y-39757142D01*
X63454819Y-39757142D02*
X63502438Y-39661904D01*
X63502438Y-39661904D02*
X63550057Y-39614285D01*
X63550057Y-39614285D02*
X63645295Y-39566666D01*
X63645295Y-39566666D02*
X63788152Y-39566666D01*
X63788152Y-39566666D02*
X63883390Y-39614285D01*
X63883390Y-39614285D02*
X63931009Y-39661904D01*
X63931009Y-39661904D02*
X63978628Y-39757142D01*
X63978628Y-39757142D02*
X63978628Y-40138094D01*
X63788152Y-38709523D02*
X64454819Y-38709523D01*
X63407200Y-38947618D02*
X64121485Y-39185713D01*
X64121485Y-39185713D02*
X64121485Y-38566666D01*
X79259580Y-67016666D02*
X79307200Y-67064285D01*
X79307200Y-67064285D02*
X79354819Y-67207142D01*
X79354819Y-67207142D02*
X79354819Y-67302380D01*
X79354819Y-67302380D02*
X79307200Y-67445237D01*
X79307200Y-67445237D02*
X79211961Y-67540475D01*
X79211961Y-67540475D02*
X79116723Y-67588094D01*
X79116723Y-67588094D02*
X78926247Y-67635713D01*
X78926247Y-67635713D02*
X78783390Y-67635713D01*
X78783390Y-67635713D02*
X78592914Y-67588094D01*
X78592914Y-67588094D02*
X78497676Y-67540475D01*
X78497676Y-67540475D02*
X78402438Y-67445237D01*
X78402438Y-67445237D02*
X78354819Y-67302380D01*
X78354819Y-67302380D02*
X78354819Y-67207142D01*
X78354819Y-67207142D02*
X78402438Y-67064285D01*
X78402438Y-67064285D02*
X78450057Y-67016666D01*
X79354819Y-66064285D02*
X79354819Y-66635713D01*
X79354819Y-66349999D02*
X78354819Y-66349999D01*
X78354819Y-66349999D02*
X78497676Y-66445237D01*
X78497676Y-66445237D02*
X78592914Y-66540475D01*
X78592914Y-66540475D02*
X78640533Y-66635713D01*
X90357142Y-53554819D02*
X90023809Y-53078628D01*
X89785714Y-53554819D02*
X89785714Y-52554819D01*
X89785714Y-52554819D02*
X90166666Y-52554819D01*
X90166666Y-52554819D02*
X90261904Y-52602438D01*
X90261904Y-52602438D02*
X90309523Y-52650057D01*
X90309523Y-52650057D02*
X90357142Y-52745295D01*
X90357142Y-52745295D02*
X90357142Y-52888152D01*
X90357142Y-52888152D02*
X90309523Y-52983390D01*
X90309523Y-52983390D02*
X90261904Y-53031009D01*
X90261904Y-53031009D02*
X90166666Y-53078628D01*
X90166666Y-53078628D02*
X89785714Y-53078628D01*
X90738095Y-52650057D02*
X90785714Y-52602438D01*
X90785714Y-52602438D02*
X90880952Y-52554819D01*
X90880952Y-52554819D02*
X91119047Y-52554819D01*
X91119047Y-52554819D02*
X91214285Y-52602438D01*
X91214285Y-52602438D02*
X91261904Y-52650057D01*
X91261904Y-52650057D02*
X91309523Y-52745295D01*
X91309523Y-52745295D02*
X91309523Y-52840533D01*
X91309523Y-52840533D02*
X91261904Y-52983390D01*
X91261904Y-52983390D02*
X90690476Y-53554819D01*
X90690476Y-53554819D02*
X91309523Y-53554819D01*
X91690476Y-52650057D02*
X91738095Y-52602438D01*
X91738095Y-52602438D02*
X91833333Y-52554819D01*
X91833333Y-52554819D02*
X92071428Y-52554819D01*
X92071428Y-52554819D02*
X92166666Y-52602438D01*
X92166666Y-52602438D02*
X92214285Y-52650057D01*
X92214285Y-52650057D02*
X92261904Y-52745295D01*
X92261904Y-52745295D02*
X92261904Y-52840533D01*
X92261904Y-52840533D02*
X92214285Y-52983390D01*
X92214285Y-52983390D02*
X91642857Y-53554819D01*
X91642857Y-53554819D02*
X92261904Y-53554819D01*
D11*
X131957419Y-46861904D02*
X131957419Y-46290476D01*
X132957419Y-46576190D02*
X131957419Y-46576190D01*
X132957419Y-45957142D02*
X131957419Y-45957142D01*
X131957419Y-45957142D02*
X131957419Y-45576190D01*
X131957419Y-45576190D02*
X132005038Y-45480952D01*
X132005038Y-45480952D02*
X132052657Y-45433333D01*
X132052657Y-45433333D02*
X132147895Y-45385714D01*
X132147895Y-45385714D02*
X132290752Y-45385714D01*
X132290752Y-45385714D02*
X132385990Y-45433333D01*
X132385990Y-45433333D02*
X132433609Y-45480952D01*
X132433609Y-45480952D02*
X132481228Y-45576190D01*
X132481228Y-45576190D02*
X132481228Y-45957142D01*
X132052657Y-45004761D02*
X132005038Y-44957142D01*
X132005038Y-44957142D02*
X131957419Y-44861904D01*
X131957419Y-44861904D02*
X131957419Y-44623809D01*
X131957419Y-44623809D02*
X132005038Y-44528571D01*
X132005038Y-44528571D02*
X132052657Y-44480952D01*
X132052657Y-44480952D02*
X132147895Y-44433333D01*
X132147895Y-44433333D02*
X132243133Y-44433333D01*
X132243133Y-44433333D02*
X132385990Y-44480952D01*
X132385990Y-44480952D02*
X132957419Y-45052380D01*
X132957419Y-45052380D02*
X132957419Y-44433333D01*
D10*
X64289580Y-36566666D02*
X64337200Y-36614285D01*
X64337200Y-36614285D02*
X64384819Y-36757142D01*
X64384819Y-36757142D02*
X64384819Y-36852380D01*
X64384819Y-36852380D02*
X64337200Y-36995237D01*
X64337200Y-36995237D02*
X64241961Y-37090475D01*
X64241961Y-37090475D02*
X64146723Y-37138094D01*
X64146723Y-37138094D02*
X63956247Y-37185713D01*
X63956247Y-37185713D02*
X63813390Y-37185713D01*
X63813390Y-37185713D02*
X63622914Y-37138094D01*
X63622914Y-37138094D02*
X63527676Y-37090475D01*
X63527676Y-37090475D02*
X63432438Y-36995237D01*
X63432438Y-36995237D02*
X63384819Y-36852380D01*
X63384819Y-36852380D02*
X63384819Y-36757142D01*
X63384819Y-36757142D02*
X63432438Y-36614285D01*
X63432438Y-36614285D02*
X63480057Y-36566666D01*
X63480057Y-36185713D02*
X63432438Y-36138094D01*
X63432438Y-36138094D02*
X63384819Y-36042856D01*
X63384819Y-36042856D02*
X63384819Y-35804761D01*
X63384819Y-35804761D02*
X63432438Y-35709523D01*
X63432438Y-35709523D02*
X63480057Y-35661904D01*
X63480057Y-35661904D02*
X63575295Y-35614285D01*
X63575295Y-35614285D02*
X63670533Y-35614285D01*
X63670533Y-35614285D02*
X63813390Y-35661904D01*
X63813390Y-35661904D02*
X64384819Y-36233332D01*
X64384819Y-36233332D02*
X64384819Y-35614285D01*
X137933333Y-48259580D02*
X137885714Y-48307200D01*
X137885714Y-48307200D02*
X137742857Y-48354819D01*
X137742857Y-48354819D02*
X137647619Y-48354819D01*
X137647619Y-48354819D02*
X137504762Y-48307200D01*
X137504762Y-48307200D02*
X137409524Y-48211961D01*
X137409524Y-48211961D02*
X137361905Y-48116723D01*
X137361905Y-48116723D02*
X137314286Y-47926247D01*
X137314286Y-47926247D02*
X137314286Y-47783390D01*
X137314286Y-47783390D02*
X137361905Y-47592914D01*
X137361905Y-47592914D02*
X137409524Y-47497676D01*
X137409524Y-47497676D02*
X137504762Y-47402438D01*
X137504762Y-47402438D02*
X137647619Y-47354819D01*
X137647619Y-47354819D02*
X137742857Y-47354819D01*
X137742857Y-47354819D02*
X137885714Y-47402438D01*
X137885714Y-47402438D02*
X137933333Y-47450057D01*
X138266667Y-47354819D02*
X138933333Y-47354819D01*
X138933333Y-47354819D02*
X138504762Y-48354819D01*
X97396666Y-49994819D02*
X97396666Y-50709104D01*
X97396666Y-50709104D02*
X97349047Y-50851961D01*
X97349047Y-50851961D02*
X97253809Y-50947200D01*
X97253809Y-50947200D02*
X97110952Y-50994819D01*
X97110952Y-50994819D02*
X97015714Y-50994819D01*
X98396666Y-50994819D02*
X97825238Y-50994819D01*
X98110952Y-50994819D02*
X98110952Y-49994819D01*
X98110952Y-49994819D02*
X98015714Y-50137676D01*
X98015714Y-50137676D02*
X97920476Y-50232914D01*
X97920476Y-50232914D02*
X97825238Y-50280533D01*
X137033333Y-37754819D02*
X136700000Y-37278628D01*
X136461905Y-37754819D02*
X136461905Y-36754819D01*
X136461905Y-36754819D02*
X136842857Y-36754819D01*
X136842857Y-36754819D02*
X136938095Y-36802438D01*
X136938095Y-36802438D02*
X136985714Y-36850057D01*
X136985714Y-36850057D02*
X137033333Y-36945295D01*
X137033333Y-36945295D02*
X137033333Y-37088152D01*
X137033333Y-37088152D02*
X136985714Y-37183390D01*
X136985714Y-37183390D02*
X136938095Y-37231009D01*
X136938095Y-37231009D02*
X136842857Y-37278628D01*
X136842857Y-37278628D02*
X136461905Y-37278628D01*
X137414286Y-36850057D02*
X137461905Y-36802438D01*
X137461905Y-36802438D02*
X137557143Y-36754819D01*
X137557143Y-36754819D02*
X137795238Y-36754819D01*
X137795238Y-36754819D02*
X137890476Y-36802438D01*
X137890476Y-36802438D02*
X137938095Y-36850057D01*
X137938095Y-36850057D02*
X137985714Y-36945295D01*
X137985714Y-36945295D02*
X137985714Y-37040533D01*
X137985714Y-37040533D02*
X137938095Y-37183390D01*
X137938095Y-37183390D02*
X137366667Y-37754819D01*
X137366667Y-37754819D02*
X137985714Y-37754819D01*
X90357142Y-56054819D02*
X90023809Y-55578628D01*
X89785714Y-56054819D02*
X89785714Y-55054819D01*
X89785714Y-55054819D02*
X90166666Y-55054819D01*
X90166666Y-55054819D02*
X90261904Y-55102438D01*
X90261904Y-55102438D02*
X90309523Y-55150057D01*
X90309523Y-55150057D02*
X90357142Y-55245295D01*
X90357142Y-55245295D02*
X90357142Y-55388152D01*
X90357142Y-55388152D02*
X90309523Y-55483390D01*
X90309523Y-55483390D02*
X90261904Y-55531009D01*
X90261904Y-55531009D02*
X90166666Y-55578628D01*
X90166666Y-55578628D02*
X89785714Y-55578628D01*
X90738095Y-55150057D02*
X90785714Y-55102438D01*
X90785714Y-55102438D02*
X90880952Y-55054819D01*
X90880952Y-55054819D02*
X91119047Y-55054819D01*
X91119047Y-55054819D02*
X91214285Y-55102438D01*
X91214285Y-55102438D02*
X91261904Y-55150057D01*
X91261904Y-55150057D02*
X91309523Y-55245295D01*
X91309523Y-55245295D02*
X91309523Y-55340533D01*
X91309523Y-55340533D02*
X91261904Y-55483390D01*
X91261904Y-55483390D02*
X90690476Y-56054819D01*
X90690476Y-56054819D02*
X91309523Y-56054819D01*
X91642857Y-55054819D02*
X92261904Y-55054819D01*
X92261904Y-55054819D02*
X91928571Y-55435771D01*
X91928571Y-55435771D02*
X92071428Y-55435771D01*
X92071428Y-55435771D02*
X92166666Y-55483390D01*
X92166666Y-55483390D02*
X92214285Y-55531009D01*
X92214285Y-55531009D02*
X92261904Y-55626247D01*
X92261904Y-55626247D02*
X92261904Y-55864342D01*
X92261904Y-55864342D02*
X92214285Y-55959580D01*
X92214285Y-55959580D02*
X92166666Y-56007200D01*
X92166666Y-56007200D02*
X92071428Y-56054819D01*
X92071428Y-56054819D02*
X91785714Y-56054819D01*
X91785714Y-56054819D02*
X91690476Y-56007200D01*
X91690476Y-56007200D02*
X91642857Y-55959580D01*
X138817319Y-44683333D02*
X139531604Y-44683333D01*
X139531604Y-44683333D02*
X139674461Y-44730952D01*
X139674461Y-44730952D02*
X139769700Y-44826190D01*
X139769700Y-44826190D02*
X139817319Y-44969047D01*
X139817319Y-44969047D02*
X139817319Y-45064285D01*
X138817319Y-43778571D02*
X138817319Y-43969047D01*
X138817319Y-43969047D02*
X138864938Y-44064285D01*
X138864938Y-44064285D02*
X138912557Y-44111904D01*
X138912557Y-44111904D02*
X139055414Y-44207142D01*
X139055414Y-44207142D02*
X139245890Y-44254761D01*
X139245890Y-44254761D02*
X139626842Y-44254761D01*
X139626842Y-44254761D02*
X139722080Y-44207142D01*
X139722080Y-44207142D02*
X139769700Y-44159523D01*
X139769700Y-44159523D02*
X139817319Y-44064285D01*
X139817319Y-44064285D02*
X139817319Y-43873809D01*
X139817319Y-43873809D02*
X139769700Y-43778571D01*
X139769700Y-43778571D02*
X139722080Y-43730952D01*
X139722080Y-43730952D02*
X139626842Y-43683333D01*
X139626842Y-43683333D02*
X139388747Y-43683333D01*
X139388747Y-43683333D02*
X139293509Y-43730952D01*
X139293509Y-43730952D02*
X139245890Y-43778571D01*
X139245890Y-43778571D02*
X139198271Y-43873809D01*
X139198271Y-43873809D02*
X139198271Y-44064285D01*
X139198271Y-44064285D02*
X139245890Y-44159523D01*
X139245890Y-44159523D02*
X139293509Y-44207142D01*
X139293509Y-44207142D02*
X139388747Y-44254761D01*
X66459580Y-36566666D02*
X66507200Y-36614285D01*
X66507200Y-36614285D02*
X66554819Y-36757142D01*
X66554819Y-36757142D02*
X66554819Y-36852380D01*
X66554819Y-36852380D02*
X66507200Y-36995237D01*
X66507200Y-36995237D02*
X66411961Y-37090475D01*
X66411961Y-37090475D02*
X66316723Y-37138094D01*
X66316723Y-37138094D02*
X66126247Y-37185713D01*
X66126247Y-37185713D02*
X65983390Y-37185713D01*
X65983390Y-37185713D02*
X65792914Y-37138094D01*
X65792914Y-37138094D02*
X65697676Y-37090475D01*
X65697676Y-37090475D02*
X65602438Y-36995237D01*
X65602438Y-36995237D02*
X65554819Y-36852380D01*
X65554819Y-36852380D02*
X65554819Y-36757142D01*
X65554819Y-36757142D02*
X65602438Y-36614285D01*
X65602438Y-36614285D02*
X65650057Y-36566666D01*
X65554819Y-36233332D02*
X65554819Y-35614285D01*
X65554819Y-35614285D02*
X65935771Y-35947618D01*
X65935771Y-35947618D02*
X65935771Y-35804761D01*
X65935771Y-35804761D02*
X65983390Y-35709523D01*
X65983390Y-35709523D02*
X66031009Y-35661904D01*
X66031009Y-35661904D02*
X66126247Y-35614285D01*
X66126247Y-35614285D02*
X66364342Y-35614285D01*
X66364342Y-35614285D02*
X66459580Y-35661904D01*
X66459580Y-35661904D02*
X66507200Y-35709523D01*
X66507200Y-35709523D02*
X66554819Y-35804761D01*
X66554819Y-35804761D02*
X66554819Y-36090475D01*
X66554819Y-36090475D02*
X66507200Y-36185713D01*
X66507200Y-36185713D02*
X66459580Y-36233332D01*
X137433333Y-57354819D02*
X137100000Y-56878628D01*
X136861905Y-57354819D02*
X136861905Y-56354819D01*
X136861905Y-56354819D02*
X137242857Y-56354819D01*
X137242857Y-56354819D02*
X137338095Y-56402438D01*
X137338095Y-56402438D02*
X137385714Y-56450057D01*
X137385714Y-56450057D02*
X137433333Y-56545295D01*
X137433333Y-56545295D02*
X137433333Y-56688152D01*
X137433333Y-56688152D02*
X137385714Y-56783390D01*
X137385714Y-56783390D02*
X137338095Y-56831009D01*
X137338095Y-56831009D02*
X137242857Y-56878628D01*
X137242857Y-56878628D02*
X136861905Y-56878628D01*
X137909524Y-57354819D02*
X138100000Y-57354819D01*
X138100000Y-57354819D02*
X138195238Y-57307200D01*
X138195238Y-57307200D02*
X138242857Y-57259580D01*
X138242857Y-57259580D02*
X138338095Y-57116723D01*
X138338095Y-57116723D02*
X138385714Y-56926247D01*
X138385714Y-56926247D02*
X138385714Y-56545295D01*
X138385714Y-56545295D02*
X138338095Y-56450057D01*
X138338095Y-56450057D02*
X138290476Y-56402438D01*
X138290476Y-56402438D02*
X138195238Y-56354819D01*
X138195238Y-56354819D02*
X138004762Y-56354819D01*
X138004762Y-56354819D02*
X137909524Y-56402438D01*
X137909524Y-56402438D02*
X137861905Y-56450057D01*
X137861905Y-56450057D02*
X137814286Y-56545295D01*
X137814286Y-56545295D02*
X137814286Y-56783390D01*
X137814286Y-56783390D02*
X137861905Y-56878628D01*
X137861905Y-56878628D02*
X137909524Y-56926247D01*
X137909524Y-56926247D02*
X138004762Y-56973866D01*
X138004762Y-56973866D02*
X138195238Y-56973866D01*
X138195238Y-56973866D02*
X138290476Y-56926247D01*
X138290476Y-56926247D02*
X138338095Y-56878628D01*
X138338095Y-56878628D02*
X138385714Y-56783390D01*
X143654819Y-54661904D02*
X144464342Y-54661904D01*
X144464342Y-54661904D02*
X144559580Y-54614285D01*
X144559580Y-54614285D02*
X144607200Y-54566666D01*
X144607200Y-54566666D02*
X144654819Y-54471428D01*
X144654819Y-54471428D02*
X144654819Y-54280952D01*
X144654819Y-54280952D02*
X144607200Y-54185714D01*
X144607200Y-54185714D02*
X144559580Y-54138095D01*
X144559580Y-54138095D02*
X144464342Y-54090476D01*
X144464342Y-54090476D02*
X143654819Y-54090476D01*
X143654819Y-53709523D02*
X143654819Y-53090476D01*
X143654819Y-53090476D02*
X144035771Y-53423809D01*
X144035771Y-53423809D02*
X144035771Y-53280952D01*
X144035771Y-53280952D02*
X144083390Y-53185714D01*
X144083390Y-53185714D02*
X144131009Y-53138095D01*
X144131009Y-53138095D02*
X144226247Y-53090476D01*
X144226247Y-53090476D02*
X144464342Y-53090476D01*
X144464342Y-53090476D02*
X144559580Y-53138095D01*
X144559580Y-53138095D02*
X144607200Y-53185714D01*
X144607200Y-53185714D02*
X144654819Y-53280952D01*
X144654819Y-53280952D02*
X144654819Y-53566666D01*
X144654819Y-53566666D02*
X144607200Y-53661904D01*
X144607200Y-53661904D02*
X144559580Y-53709523D01*
X73489580Y-30366666D02*
X73537200Y-30414285D01*
X73537200Y-30414285D02*
X73584819Y-30557142D01*
X73584819Y-30557142D02*
X73584819Y-30652380D01*
X73584819Y-30652380D02*
X73537200Y-30795237D01*
X73537200Y-30795237D02*
X73441961Y-30890475D01*
X73441961Y-30890475D02*
X73346723Y-30938094D01*
X73346723Y-30938094D02*
X73156247Y-30985713D01*
X73156247Y-30985713D02*
X73013390Y-30985713D01*
X73013390Y-30985713D02*
X72822914Y-30938094D01*
X72822914Y-30938094D02*
X72727676Y-30890475D01*
X72727676Y-30890475D02*
X72632438Y-30795237D01*
X72632438Y-30795237D02*
X72584819Y-30652380D01*
X72584819Y-30652380D02*
X72584819Y-30557142D01*
X72584819Y-30557142D02*
X72632438Y-30414285D01*
X72632438Y-30414285D02*
X72680057Y-30366666D01*
X72918152Y-29509523D02*
X73584819Y-29509523D01*
X72537200Y-29747618D02*
X73251485Y-29985713D01*
X73251485Y-29985713D02*
X73251485Y-29366666D01*
X135959580Y-54366666D02*
X136007200Y-54414285D01*
X136007200Y-54414285D02*
X136054819Y-54557142D01*
X136054819Y-54557142D02*
X136054819Y-54652380D01*
X136054819Y-54652380D02*
X136007200Y-54795237D01*
X136007200Y-54795237D02*
X135911961Y-54890475D01*
X135911961Y-54890475D02*
X135816723Y-54938094D01*
X135816723Y-54938094D02*
X135626247Y-54985713D01*
X135626247Y-54985713D02*
X135483390Y-54985713D01*
X135483390Y-54985713D02*
X135292914Y-54938094D01*
X135292914Y-54938094D02*
X135197676Y-54890475D01*
X135197676Y-54890475D02*
X135102438Y-54795237D01*
X135102438Y-54795237D02*
X135054819Y-54652380D01*
X135054819Y-54652380D02*
X135054819Y-54557142D01*
X135054819Y-54557142D02*
X135102438Y-54414285D01*
X135102438Y-54414285D02*
X135150057Y-54366666D01*
X135054819Y-53509523D02*
X135054819Y-53699999D01*
X135054819Y-53699999D02*
X135102438Y-53795237D01*
X135102438Y-53795237D02*
X135150057Y-53842856D01*
X135150057Y-53842856D02*
X135292914Y-53938094D01*
X135292914Y-53938094D02*
X135483390Y-53985713D01*
X135483390Y-53985713D02*
X135864342Y-53985713D01*
X135864342Y-53985713D02*
X135959580Y-53938094D01*
X135959580Y-53938094D02*
X136007200Y-53890475D01*
X136007200Y-53890475D02*
X136054819Y-53795237D01*
X136054819Y-53795237D02*
X136054819Y-53604761D01*
X136054819Y-53604761D02*
X136007200Y-53509523D01*
X136007200Y-53509523D02*
X135959580Y-53461904D01*
X135959580Y-53461904D02*
X135864342Y-53414285D01*
X135864342Y-53414285D02*
X135626247Y-53414285D01*
X135626247Y-53414285D02*
X135531009Y-53461904D01*
X135531009Y-53461904D02*
X135483390Y-53509523D01*
X135483390Y-53509523D02*
X135435771Y-53604761D01*
X135435771Y-53604761D02*
X135435771Y-53795237D01*
X135435771Y-53795237D02*
X135483390Y-53890475D01*
X135483390Y-53890475D02*
X135531009Y-53938094D01*
X135531009Y-53938094D02*
X135626247Y-53985713D01*
X59254819Y-41266666D02*
X58778628Y-41599999D01*
X59254819Y-41838094D02*
X58254819Y-41838094D01*
X58254819Y-41838094D02*
X58254819Y-41457142D01*
X58254819Y-41457142D02*
X58302438Y-41361904D01*
X58302438Y-41361904D02*
X58350057Y-41314285D01*
X58350057Y-41314285D02*
X58445295Y-41266666D01*
X58445295Y-41266666D02*
X58588152Y-41266666D01*
X58588152Y-41266666D02*
X58683390Y-41314285D01*
X58683390Y-41314285D02*
X58731009Y-41361904D01*
X58731009Y-41361904D02*
X58778628Y-41457142D01*
X58778628Y-41457142D02*
X58778628Y-41838094D01*
X58254819Y-40409523D02*
X58254819Y-40599999D01*
X58254819Y-40599999D02*
X58302438Y-40695237D01*
X58302438Y-40695237D02*
X58350057Y-40742856D01*
X58350057Y-40742856D02*
X58492914Y-40838094D01*
X58492914Y-40838094D02*
X58683390Y-40885713D01*
X58683390Y-40885713D02*
X59064342Y-40885713D01*
X59064342Y-40885713D02*
X59159580Y-40838094D01*
X59159580Y-40838094D02*
X59207200Y-40790475D01*
X59207200Y-40790475D02*
X59254819Y-40695237D01*
X59254819Y-40695237D02*
X59254819Y-40504761D01*
X59254819Y-40504761D02*
X59207200Y-40409523D01*
X59207200Y-40409523D02*
X59159580Y-40361904D01*
X59159580Y-40361904D02*
X59064342Y-40314285D01*
X59064342Y-40314285D02*
X58826247Y-40314285D01*
X58826247Y-40314285D02*
X58731009Y-40361904D01*
X58731009Y-40361904D02*
X58683390Y-40409523D01*
X58683390Y-40409523D02*
X58635771Y-40504761D01*
X58635771Y-40504761D02*
X58635771Y-40695237D01*
X58635771Y-40695237D02*
X58683390Y-40790475D01*
X58683390Y-40790475D02*
X58731009Y-40838094D01*
X58731009Y-40838094D02*
X58826247Y-40885713D01*
X137854819Y-63488094D02*
X136854819Y-63488094D01*
X136854819Y-63488094D02*
X136854819Y-63249999D01*
X136854819Y-63249999D02*
X136902438Y-63107142D01*
X136902438Y-63107142D02*
X136997676Y-63011904D01*
X136997676Y-63011904D02*
X137092914Y-62964285D01*
X137092914Y-62964285D02*
X137283390Y-62916666D01*
X137283390Y-62916666D02*
X137426247Y-62916666D01*
X137426247Y-62916666D02*
X137616723Y-62964285D01*
X137616723Y-62964285D02*
X137711961Y-63011904D01*
X137711961Y-63011904D02*
X137807200Y-63107142D01*
X137807200Y-63107142D02*
X137854819Y-63249999D01*
X137854819Y-63249999D02*
X137854819Y-63488094D01*
X136950057Y-62535713D02*
X136902438Y-62488094D01*
X136902438Y-62488094D02*
X136854819Y-62392856D01*
X136854819Y-62392856D02*
X136854819Y-62154761D01*
X136854819Y-62154761D02*
X136902438Y-62059523D01*
X136902438Y-62059523D02*
X136950057Y-62011904D01*
X136950057Y-62011904D02*
X137045295Y-61964285D01*
X137045295Y-61964285D02*
X137140533Y-61964285D01*
X137140533Y-61964285D02*
X137283390Y-62011904D01*
X137283390Y-62011904D02*
X137854819Y-62583332D01*
X137854819Y-62583332D02*
X137854819Y-61964285D01*
X142759580Y-65641666D02*
X142807200Y-65689285D01*
X142807200Y-65689285D02*
X142854819Y-65832142D01*
X142854819Y-65832142D02*
X142854819Y-65927380D01*
X142854819Y-65927380D02*
X142807200Y-66070237D01*
X142807200Y-66070237D02*
X142711961Y-66165475D01*
X142711961Y-66165475D02*
X142616723Y-66213094D01*
X142616723Y-66213094D02*
X142426247Y-66260713D01*
X142426247Y-66260713D02*
X142283390Y-66260713D01*
X142283390Y-66260713D02*
X142092914Y-66213094D01*
X142092914Y-66213094D02*
X141997676Y-66165475D01*
X141997676Y-66165475D02*
X141902438Y-66070237D01*
X141902438Y-66070237D02*
X141854819Y-65927380D01*
X141854819Y-65927380D02*
X141854819Y-65832142D01*
X141854819Y-65832142D02*
X141902438Y-65689285D01*
X141902438Y-65689285D02*
X141950057Y-65641666D01*
X142283390Y-65070237D02*
X142235771Y-65165475D01*
X142235771Y-65165475D02*
X142188152Y-65213094D01*
X142188152Y-65213094D02*
X142092914Y-65260713D01*
X142092914Y-65260713D02*
X142045295Y-65260713D01*
X142045295Y-65260713D02*
X141950057Y-65213094D01*
X141950057Y-65213094D02*
X141902438Y-65165475D01*
X141902438Y-65165475D02*
X141854819Y-65070237D01*
X141854819Y-65070237D02*
X141854819Y-64879761D01*
X141854819Y-64879761D02*
X141902438Y-64784523D01*
X141902438Y-64784523D02*
X141950057Y-64736904D01*
X141950057Y-64736904D02*
X142045295Y-64689285D01*
X142045295Y-64689285D02*
X142092914Y-64689285D01*
X142092914Y-64689285D02*
X142188152Y-64736904D01*
X142188152Y-64736904D02*
X142235771Y-64784523D01*
X142235771Y-64784523D02*
X142283390Y-64879761D01*
X142283390Y-64879761D02*
X142283390Y-65070237D01*
X142283390Y-65070237D02*
X142331009Y-65165475D01*
X142331009Y-65165475D02*
X142378628Y-65213094D01*
X142378628Y-65213094D02*
X142473866Y-65260713D01*
X142473866Y-65260713D02*
X142664342Y-65260713D01*
X142664342Y-65260713D02*
X142759580Y-65213094D01*
X142759580Y-65213094D02*
X142807200Y-65165475D01*
X142807200Y-65165475D02*
X142854819Y-65070237D01*
X142854819Y-65070237D02*
X142854819Y-64879761D01*
X142854819Y-64879761D02*
X142807200Y-64784523D01*
X142807200Y-64784523D02*
X142759580Y-64736904D01*
X142759580Y-64736904D02*
X142664342Y-64689285D01*
X142664342Y-64689285D02*
X142473866Y-64689285D01*
X142473866Y-64689285D02*
X142378628Y-64736904D01*
X142378628Y-64736904D02*
X142331009Y-64784523D01*
X142331009Y-64784523D02*
X142283390Y-64879761D01*
X146588095Y-67502438D02*
X146492857Y-67454819D01*
X146492857Y-67454819D02*
X146350000Y-67454819D01*
X146350000Y-67454819D02*
X146207143Y-67502438D01*
X146207143Y-67502438D02*
X146111905Y-67597676D01*
X146111905Y-67597676D02*
X146064286Y-67692914D01*
X146064286Y-67692914D02*
X146016667Y-67883390D01*
X146016667Y-67883390D02*
X146016667Y-68026247D01*
X146016667Y-68026247D02*
X146064286Y-68216723D01*
X146064286Y-68216723D02*
X146111905Y-68311961D01*
X146111905Y-68311961D02*
X146207143Y-68407200D01*
X146207143Y-68407200D02*
X146350000Y-68454819D01*
X146350000Y-68454819D02*
X146445238Y-68454819D01*
X146445238Y-68454819D02*
X146588095Y-68407200D01*
X146588095Y-68407200D02*
X146635714Y-68359580D01*
X146635714Y-68359580D02*
X146635714Y-68026247D01*
X146635714Y-68026247D02*
X146445238Y-68026247D01*
X147064286Y-68454819D02*
X147064286Y-67454819D01*
X147064286Y-67454819D02*
X147635714Y-68454819D01*
X147635714Y-68454819D02*
X147635714Y-67454819D01*
X148111905Y-68454819D02*
X148111905Y-67454819D01*
X148111905Y-67454819D02*
X148350000Y-67454819D01*
X148350000Y-67454819D02*
X148492857Y-67502438D01*
X148492857Y-67502438D02*
X148588095Y-67597676D01*
X148588095Y-67597676D02*
X148635714Y-67692914D01*
X148635714Y-67692914D02*
X148683333Y-67883390D01*
X148683333Y-67883390D02*
X148683333Y-68026247D01*
X148683333Y-68026247D02*
X148635714Y-68216723D01*
X148635714Y-68216723D02*
X148588095Y-68311961D01*
X148588095Y-68311961D02*
X148492857Y-68407200D01*
X148492857Y-68407200D02*
X148350000Y-68454819D01*
X148350000Y-68454819D02*
X148111905Y-68454819D01*
X90357142Y-63754819D02*
X90023809Y-63278628D01*
X89785714Y-63754819D02*
X89785714Y-62754819D01*
X89785714Y-62754819D02*
X90166666Y-62754819D01*
X90166666Y-62754819D02*
X90261904Y-62802438D01*
X90261904Y-62802438D02*
X90309523Y-62850057D01*
X90309523Y-62850057D02*
X90357142Y-62945295D01*
X90357142Y-62945295D02*
X90357142Y-63088152D01*
X90357142Y-63088152D02*
X90309523Y-63183390D01*
X90309523Y-63183390D02*
X90261904Y-63231009D01*
X90261904Y-63231009D02*
X90166666Y-63278628D01*
X90166666Y-63278628D02*
X89785714Y-63278628D01*
X90738095Y-62850057D02*
X90785714Y-62802438D01*
X90785714Y-62802438D02*
X90880952Y-62754819D01*
X90880952Y-62754819D02*
X91119047Y-62754819D01*
X91119047Y-62754819D02*
X91214285Y-62802438D01*
X91214285Y-62802438D02*
X91261904Y-62850057D01*
X91261904Y-62850057D02*
X91309523Y-62945295D01*
X91309523Y-62945295D02*
X91309523Y-63040533D01*
X91309523Y-63040533D02*
X91261904Y-63183390D01*
X91261904Y-63183390D02*
X90690476Y-63754819D01*
X90690476Y-63754819D02*
X91309523Y-63754819D01*
X92166666Y-62754819D02*
X91976190Y-62754819D01*
X91976190Y-62754819D02*
X91880952Y-62802438D01*
X91880952Y-62802438D02*
X91833333Y-62850057D01*
X91833333Y-62850057D02*
X91738095Y-62992914D01*
X91738095Y-62992914D02*
X91690476Y-63183390D01*
X91690476Y-63183390D02*
X91690476Y-63564342D01*
X91690476Y-63564342D02*
X91738095Y-63659580D01*
X91738095Y-63659580D02*
X91785714Y-63707200D01*
X91785714Y-63707200D02*
X91880952Y-63754819D01*
X91880952Y-63754819D02*
X92071428Y-63754819D01*
X92071428Y-63754819D02*
X92166666Y-63707200D01*
X92166666Y-63707200D02*
X92214285Y-63659580D01*
X92214285Y-63659580D02*
X92261904Y-63564342D01*
X92261904Y-63564342D02*
X92261904Y-63326247D01*
X92261904Y-63326247D02*
X92214285Y-63231009D01*
X92214285Y-63231009D02*
X92166666Y-63183390D01*
X92166666Y-63183390D02*
X92071428Y-63135771D01*
X92071428Y-63135771D02*
X91880952Y-63135771D01*
X91880952Y-63135771D02*
X91785714Y-63183390D01*
X91785714Y-63183390D02*
X91738095Y-63231009D01*
X91738095Y-63231009D02*
X91690476Y-63326247D01*
X90757142Y-49454819D02*
X90423809Y-48978628D01*
X90185714Y-49454819D02*
X90185714Y-48454819D01*
X90185714Y-48454819D02*
X90566666Y-48454819D01*
X90566666Y-48454819D02*
X90661904Y-48502438D01*
X90661904Y-48502438D02*
X90709523Y-48550057D01*
X90709523Y-48550057D02*
X90757142Y-48645295D01*
X90757142Y-48645295D02*
X90757142Y-48788152D01*
X90757142Y-48788152D02*
X90709523Y-48883390D01*
X90709523Y-48883390D02*
X90661904Y-48931009D01*
X90661904Y-48931009D02*
X90566666Y-48978628D01*
X90566666Y-48978628D02*
X90185714Y-48978628D01*
X91138095Y-48550057D02*
X91185714Y-48502438D01*
X91185714Y-48502438D02*
X91280952Y-48454819D01*
X91280952Y-48454819D02*
X91519047Y-48454819D01*
X91519047Y-48454819D02*
X91614285Y-48502438D01*
X91614285Y-48502438D02*
X91661904Y-48550057D01*
X91661904Y-48550057D02*
X91709523Y-48645295D01*
X91709523Y-48645295D02*
X91709523Y-48740533D01*
X91709523Y-48740533D02*
X91661904Y-48883390D01*
X91661904Y-48883390D02*
X91090476Y-49454819D01*
X91090476Y-49454819D02*
X91709523Y-49454819D01*
X92661904Y-49454819D02*
X92090476Y-49454819D01*
X92376190Y-49454819D02*
X92376190Y-48454819D01*
X92376190Y-48454819D02*
X92280952Y-48597676D01*
X92280952Y-48597676D02*
X92185714Y-48692914D01*
X92185714Y-48692914D02*
X92090476Y-48740533D01*
X147154819Y-38169047D02*
X147154819Y-38740475D01*
X147154819Y-38454761D02*
X146154819Y-38454761D01*
X146154819Y-38454761D02*
X146297676Y-38549999D01*
X146297676Y-38549999D02*
X146392914Y-38645237D01*
X146392914Y-38645237D02*
X146440533Y-38740475D01*
X146250057Y-37788094D02*
X146202438Y-37740475D01*
X146202438Y-37740475D02*
X146154819Y-37645237D01*
X146154819Y-37645237D02*
X146154819Y-37407142D01*
X146154819Y-37407142D02*
X146202438Y-37311904D01*
X146202438Y-37311904D02*
X146250057Y-37264285D01*
X146250057Y-37264285D02*
X146345295Y-37216666D01*
X146345295Y-37216666D02*
X146440533Y-37216666D01*
X146440533Y-37216666D02*
X146583390Y-37264285D01*
X146583390Y-37264285D02*
X147154819Y-37835713D01*
X147154819Y-37835713D02*
X147154819Y-37216666D01*
X146154819Y-36930951D02*
X147154819Y-36597618D01*
X147154819Y-36597618D02*
X146154819Y-36264285D01*
X90357142Y-61154819D02*
X90023809Y-60678628D01*
X89785714Y-61154819D02*
X89785714Y-60154819D01*
X89785714Y-60154819D02*
X90166666Y-60154819D01*
X90166666Y-60154819D02*
X90261904Y-60202438D01*
X90261904Y-60202438D02*
X90309523Y-60250057D01*
X90309523Y-60250057D02*
X90357142Y-60345295D01*
X90357142Y-60345295D02*
X90357142Y-60488152D01*
X90357142Y-60488152D02*
X90309523Y-60583390D01*
X90309523Y-60583390D02*
X90261904Y-60631009D01*
X90261904Y-60631009D02*
X90166666Y-60678628D01*
X90166666Y-60678628D02*
X89785714Y-60678628D01*
X90738095Y-60250057D02*
X90785714Y-60202438D01*
X90785714Y-60202438D02*
X90880952Y-60154819D01*
X90880952Y-60154819D02*
X91119047Y-60154819D01*
X91119047Y-60154819D02*
X91214285Y-60202438D01*
X91214285Y-60202438D02*
X91261904Y-60250057D01*
X91261904Y-60250057D02*
X91309523Y-60345295D01*
X91309523Y-60345295D02*
X91309523Y-60440533D01*
X91309523Y-60440533D02*
X91261904Y-60583390D01*
X91261904Y-60583390D02*
X90690476Y-61154819D01*
X90690476Y-61154819D02*
X91309523Y-61154819D01*
X92214285Y-60154819D02*
X91738095Y-60154819D01*
X91738095Y-60154819D02*
X91690476Y-60631009D01*
X91690476Y-60631009D02*
X91738095Y-60583390D01*
X91738095Y-60583390D02*
X91833333Y-60535771D01*
X91833333Y-60535771D02*
X92071428Y-60535771D01*
X92071428Y-60535771D02*
X92166666Y-60583390D01*
X92166666Y-60583390D02*
X92214285Y-60631009D01*
X92214285Y-60631009D02*
X92261904Y-60726247D01*
X92261904Y-60726247D02*
X92261904Y-60964342D01*
X92261904Y-60964342D02*
X92214285Y-61059580D01*
X92214285Y-61059580D02*
X92166666Y-61107200D01*
X92166666Y-61107200D02*
X92071428Y-61154819D01*
X92071428Y-61154819D02*
X91833333Y-61154819D01*
X91833333Y-61154819D02*
X91738095Y-61107200D01*
X91738095Y-61107200D02*
X91690476Y-61059580D01*
X141954819Y-54613094D02*
X140954819Y-54613094D01*
X140954819Y-54613094D02*
X140954819Y-54374999D01*
X140954819Y-54374999D02*
X141002438Y-54232142D01*
X141002438Y-54232142D02*
X141097676Y-54136904D01*
X141097676Y-54136904D02*
X141192914Y-54089285D01*
X141192914Y-54089285D02*
X141383390Y-54041666D01*
X141383390Y-54041666D02*
X141526247Y-54041666D01*
X141526247Y-54041666D02*
X141716723Y-54089285D01*
X141716723Y-54089285D02*
X141811961Y-54136904D01*
X141811961Y-54136904D02*
X141907200Y-54232142D01*
X141907200Y-54232142D02*
X141954819Y-54374999D01*
X141954819Y-54374999D02*
X141954819Y-54613094D01*
X140954819Y-53708332D02*
X140954819Y-53089285D01*
X140954819Y-53089285D02*
X141335771Y-53422618D01*
X141335771Y-53422618D02*
X141335771Y-53279761D01*
X141335771Y-53279761D02*
X141383390Y-53184523D01*
X141383390Y-53184523D02*
X141431009Y-53136904D01*
X141431009Y-53136904D02*
X141526247Y-53089285D01*
X141526247Y-53089285D02*
X141764342Y-53089285D01*
X141764342Y-53089285D02*
X141859580Y-53136904D01*
X141859580Y-53136904D02*
X141907200Y-53184523D01*
X141907200Y-53184523D02*
X141954819Y-53279761D01*
X141954819Y-53279761D02*
X141954819Y-53565475D01*
X141954819Y-53565475D02*
X141907200Y-53660713D01*
X141907200Y-53660713D02*
X141859580Y-53708332D01*
X139854819Y-51966666D02*
X139378628Y-52299999D01*
X139854819Y-52538094D02*
X138854819Y-52538094D01*
X138854819Y-52538094D02*
X138854819Y-52157142D01*
X138854819Y-52157142D02*
X138902438Y-52061904D01*
X138902438Y-52061904D02*
X138950057Y-52014285D01*
X138950057Y-52014285D02*
X139045295Y-51966666D01*
X139045295Y-51966666D02*
X139188152Y-51966666D01*
X139188152Y-51966666D02*
X139283390Y-52014285D01*
X139283390Y-52014285D02*
X139331009Y-52061904D01*
X139331009Y-52061904D02*
X139378628Y-52157142D01*
X139378628Y-52157142D02*
X139378628Y-52538094D01*
X139283390Y-51395237D02*
X139235771Y-51490475D01*
X139235771Y-51490475D02*
X139188152Y-51538094D01*
X139188152Y-51538094D02*
X139092914Y-51585713D01*
X139092914Y-51585713D02*
X139045295Y-51585713D01*
X139045295Y-51585713D02*
X138950057Y-51538094D01*
X138950057Y-51538094D02*
X138902438Y-51490475D01*
X138902438Y-51490475D02*
X138854819Y-51395237D01*
X138854819Y-51395237D02*
X138854819Y-51204761D01*
X138854819Y-51204761D02*
X138902438Y-51109523D01*
X138902438Y-51109523D02*
X138950057Y-51061904D01*
X138950057Y-51061904D02*
X139045295Y-51014285D01*
X139045295Y-51014285D02*
X139092914Y-51014285D01*
X139092914Y-51014285D02*
X139188152Y-51061904D01*
X139188152Y-51061904D02*
X139235771Y-51109523D01*
X139235771Y-51109523D02*
X139283390Y-51204761D01*
X139283390Y-51204761D02*
X139283390Y-51395237D01*
X139283390Y-51395237D02*
X139331009Y-51490475D01*
X139331009Y-51490475D02*
X139378628Y-51538094D01*
X139378628Y-51538094D02*
X139473866Y-51585713D01*
X139473866Y-51585713D02*
X139664342Y-51585713D01*
X139664342Y-51585713D02*
X139759580Y-51538094D01*
X139759580Y-51538094D02*
X139807200Y-51490475D01*
X139807200Y-51490475D02*
X139854819Y-51395237D01*
X139854819Y-51395237D02*
X139854819Y-51204761D01*
X139854819Y-51204761D02*
X139807200Y-51109523D01*
X139807200Y-51109523D02*
X139759580Y-51061904D01*
X139759580Y-51061904D02*
X139664342Y-51014285D01*
X139664342Y-51014285D02*
X139473866Y-51014285D01*
X139473866Y-51014285D02*
X139378628Y-51061904D01*
X139378628Y-51061904D02*
X139331009Y-51109523D01*
X139331009Y-51109523D02*
X139283390Y-51204761D01*
X71584819Y-41366666D02*
X71108628Y-41699999D01*
X71584819Y-41938094D02*
X70584819Y-41938094D01*
X70584819Y-41938094D02*
X70584819Y-41557142D01*
X70584819Y-41557142D02*
X70632438Y-41461904D01*
X70632438Y-41461904D02*
X70680057Y-41414285D01*
X70680057Y-41414285D02*
X70775295Y-41366666D01*
X70775295Y-41366666D02*
X70918152Y-41366666D01*
X70918152Y-41366666D02*
X71013390Y-41414285D01*
X71013390Y-41414285D02*
X71061009Y-41461904D01*
X71061009Y-41461904D02*
X71108628Y-41557142D01*
X71108628Y-41557142D02*
X71108628Y-41938094D01*
X70584819Y-40461904D02*
X70584819Y-40938094D01*
X70584819Y-40938094D02*
X71061009Y-40985713D01*
X71061009Y-40985713D02*
X71013390Y-40938094D01*
X71013390Y-40938094D02*
X70965771Y-40842856D01*
X70965771Y-40842856D02*
X70965771Y-40604761D01*
X70965771Y-40604761D02*
X71013390Y-40509523D01*
X71013390Y-40509523D02*
X71061009Y-40461904D01*
X71061009Y-40461904D02*
X71156247Y-40414285D01*
X71156247Y-40414285D02*
X71394342Y-40414285D01*
X71394342Y-40414285D02*
X71489580Y-40461904D01*
X71489580Y-40461904D02*
X71537200Y-40509523D01*
X71537200Y-40509523D02*
X71584819Y-40604761D01*
X71584819Y-40604761D02*
X71584819Y-40842856D01*
X71584819Y-40842856D02*
X71537200Y-40938094D01*
X71537200Y-40938094D02*
X71489580Y-40985713D01*
X145850057Y-38195238D02*
X145802438Y-38290476D01*
X145802438Y-38290476D02*
X145707200Y-38385714D01*
X145707200Y-38385714D02*
X145564342Y-38528571D01*
X145564342Y-38528571D02*
X145516723Y-38623809D01*
X145516723Y-38623809D02*
X145516723Y-38719047D01*
X145754819Y-38671428D02*
X145707200Y-38766666D01*
X145707200Y-38766666D02*
X145611961Y-38861904D01*
X145611961Y-38861904D02*
X145421485Y-38909523D01*
X145421485Y-38909523D02*
X145088152Y-38909523D01*
X145088152Y-38909523D02*
X144897676Y-38861904D01*
X144897676Y-38861904D02*
X144802438Y-38766666D01*
X144802438Y-38766666D02*
X144754819Y-38671428D01*
X144754819Y-38671428D02*
X144754819Y-38480952D01*
X144754819Y-38480952D02*
X144802438Y-38385714D01*
X144802438Y-38385714D02*
X144897676Y-38290476D01*
X144897676Y-38290476D02*
X145088152Y-38242857D01*
X145088152Y-38242857D02*
X145421485Y-38242857D01*
X145421485Y-38242857D02*
X145611961Y-38290476D01*
X145611961Y-38290476D02*
X145707200Y-38385714D01*
X145707200Y-38385714D02*
X145754819Y-38480952D01*
X145754819Y-38480952D02*
X145754819Y-38671428D01*
X145754819Y-37290476D02*
X145754819Y-37861904D01*
X145754819Y-37576190D02*
X144754819Y-37576190D01*
X144754819Y-37576190D02*
X144897676Y-37671428D01*
X144897676Y-37671428D02*
X144992914Y-37766666D01*
X144992914Y-37766666D02*
X145040533Y-37861904D01*
X66554819Y-39566666D02*
X66078628Y-39899999D01*
X66554819Y-40138094D02*
X65554819Y-40138094D01*
X65554819Y-40138094D02*
X65554819Y-39757142D01*
X65554819Y-39757142D02*
X65602438Y-39661904D01*
X65602438Y-39661904D02*
X65650057Y-39614285D01*
X65650057Y-39614285D02*
X65745295Y-39566666D01*
X65745295Y-39566666D02*
X65888152Y-39566666D01*
X65888152Y-39566666D02*
X65983390Y-39614285D01*
X65983390Y-39614285D02*
X66031009Y-39661904D01*
X66031009Y-39661904D02*
X66078628Y-39757142D01*
X66078628Y-39757142D02*
X66078628Y-40138094D01*
X65554819Y-39233332D02*
X65554819Y-38614285D01*
X65554819Y-38614285D02*
X65935771Y-38947618D01*
X65935771Y-38947618D02*
X65935771Y-38804761D01*
X65935771Y-38804761D02*
X65983390Y-38709523D01*
X65983390Y-38709523D02*
X66031009Y-38661904D01*
X66031009Y-38661904D02*
X66126247Y-38614285D01*
X66126247Y-38614285D02*
X66364342Y-38614285D01*
X66364342Y-38614285D02*
X66459580Y-38661904D01*
X66459580Y-38661904D02*
X66507200Y-38709523D01*
X66507200Y-38709523D02*
X66554819Y-38804761D01*
X66554819Y-38804761D02*
X66554819Y-39090475D01*
X66554819Y-39090475D02*
X66507200Y-39185713D01*
X66507200Y-39185713D02*
X66459580Y-39233332D01*
X137133333Y-39754819D02*
X136800000Y-39278628D01*
X136561905Y-39754819D02*
X136561905Y-38754819D01*
X136561905Y-38754819D02*
X136942857Y-38754819D01*
X136942857Y-38754819D02*
X137038095Y-38802438D01*
X137038095Y-38802438D02*
X137085714Y-38850057D01*
X137085714Y-38850057D02*
X137133333Y-38945295D01*
X137133333Y-38945295D02*
X137133333Y-39088152D01*
X137133333Y-39088152D02*
X137085714Y-39183390D01*
X137085714Y-39183390D02*
X137038095Y-39231009D01*
X137038095Y-39231009D02*
X136942857Y-39278628D01*
X136942857Y-39278628D02*
X136561905Y-39278628D01*
X138085714Y-39754819D02*
X137514286Y-39754819D01*
X137800000Y-39754819D02*
X137800000Y-38754819D01*
X137800000Y-38754819D02*
X137704762Y-38897676D01*
X137704762Y-38897676D02*
X137609524Y-38992914D01*
X137609524Y-38992914D02*
X137514286Y-39040533D01*
X90357142Y-58654819D02*
X90023809Y-58178628D01*
X89785714Y-58654819D02*
X89785714Y-57654819D01*
X89785714Y-57654819D02*
X90166666Y-57654819D01*
X90166666Y-57654819D02*
X90261904Y-57702438D01*
X90261904Y-57702438D02*
X90309523Y-57750057D01*
X90309523Y-57750057D02*
X90357142Y-57845295D01*
X90357142Y-57845295D02*
X90357142Y-57988152D01*
X90357142Y-57988152D02*
X90309523Y-58083390D01*
X90309523Y-58083390D02*
X90261904Y-58131009D01*
X90261904Y-58131009D02*
X90166666Y-58178628D01*
X90166666Y-58178628D02*
X89785714Y-58178628D01*
X90738095Y-57750057D02*
X90785714Y-57702438D01*
X90785714Y-57702438D02*
X90880952Y-57654819D01*
X90880952Y-57654819D02*
X91119047Y-57654819D01*
X91119047Y-57654819D02*
X91214285Y-57702438D01*
X91214285Y-57702438D02*
X91261904Y-57750057D01*
X91261904Y-57750057D02*
X91309523Y-57845295D01*
X91309523Y-57845295D02*
X91309523Y-57940533D01*
X91309523Y-57940533D02*
X91261904Y-58083390D01*
X91261904Y-58083390D02*
X90690476Y-58654819D01*
X90690476Y-58654819D02*
X91309523Y-58654819D01*
X92166666Y-57988152D02*
X92166666Y-58654819D01*
X91928571Y-57607200D02*
X91690476Y-58321485D01*
X91690476Y-58321485D02*
X92309523Y-58321485D01*
X137504819Y-32388094D02*
X136504819Y-32388094D01*
X136504819Y-32388094D02*
X136504819Y-32149999D01*
X136504819Y-32149999D02*
X136552438Y-32007142D01*
X136552438Y-32007142D02*
X136647676Y-31911904D01*
X136647676Y-31911904D02*
X136742914Y-31864285D01*
X136742914Y-31864285D02*
X136933390Y-31816666D01*
X136933390Y-31816666D02*
X137076247Y-31816666D01*
X137076247Y-31816666D02*
X137266723Y-31864285D01*
X137266723Y-31864285D02*
X137361961Y-31911904D01*
X137361961Y-31911904D02*
X137457200Y-32007142D01*
X137457200Y-32007142D02*
X137504819Y-32149999D01*
X137504819Y-32149999D02*
X137504819Y-32388094D01*
X137504819Y-30864285D02*
X137504819Y-31435713D01*
X137504819Y-31149999D02*
X136504819Y-31149999D01*
X136504819Y-31149999D02*
X136647676Y-31245237D01*
X136647676Y-31245237D02*
X136742914Y-31340475D01*
X136742914Y-31340475D02*
X136790533Y-31435713D01*
X70633333Y-29684819D02*
X70300000Y-29208628D01*
X70061905Y-29684819D02*
X70061905Y-28684819D01*
X70061905Y-28684819D02*
X70442857Y-28684819D01*
X70442857Y-28684819D02*
X70538095Y-28732438D01*
X70538095Y-28732438D02*
X70585714Y-28780057D01*
X70585714Y-28780057D02*
X70633333Y-28875295D01*
X70633333Y-28875295D02*
X70633333Y-29018152D01*
X70633333Y-29018152D02*
X70585714Y-29113390D01*
X70585714Y-29113390D02*
X70538095Y-29161009D01*
X70538095Y-29161009D02*
X70442857Y-29208628D01*
X70442857Y-29208628D02*
X70061905Y-29208628D01*
X70966667Y-28684819D02*
X71633333Y-28684819D01*
X71633333Y-28684819D02*
X71204762Y-29684819D01*
X76274819Y-80383333D02*
X76989104Y-80383333D01*
X76989104Y-80383333D02*
X77131961Y-80430952D01*
X77131961Y-80430952D02*
X77227200Y-80526190D01*
X77227200Y-80526190D02*
X77274819Y-80669047D01*
X77274819Y-80669047D02*
X77274819Y-80764285D01*
X76274819Y-79430952D02*
X76274819Y-79907142D01*
X76274819Y-79907142D02*
X76751009Y-79954761D01*
X76751009Y-79954761D02*
X76703390Y-79907142D01*
X76703390Y-79907142D02*
X76655771Y-79811904D01*
X76655771Y-79811904D02*
X76655771Y-79573809D01*
X76655771Y-79573809D02*
X76703390Y-79478571D01*
X76703390Y-79478571D02*
X76751009Y-79430952D01*
X76751009Y-79430952D02*
X76846247Y-79383333D01*
X76846247Y-79383333D02*
X77084342Y-79383333D01*
X77084342Y-79383333D02*
X77179580Y-79430952D01*
X77179580Y-79430952D02*
X77227200Y-79478571D01*
X77227200Y-79478571D02*
X77274819Y-79573809D01*
X77274819Y-79573809D02*
X77274819Y-79811904D01*
X77274819Y-79811904D02*
X77227200Y-79907142D01*
X77227200Y-79907142D02*
X77179580Y-79954761D01*
X97396666Y-76554819D02*
X97396666Y-77269104D01*
X97396666Y-77269104D02*
X97349047Y-77411961D01*
X97349047Y-77411961D02*
X97253809Y-77507200D01*
X97253809Y-77507200D02*
X97110952Y-77554819D01*
X97110952Y-77554819D02*
X97015714Y-77554819D01*
X97825238Y-76650057D02*
X97872857Y-76602438D01*
X97872857Y-76602438D02*
X97968095Y-76554819D01*
X97968095Y-76554819D02*
X98206190Y-76554819D01*
X98206190Y-76554819D02*
X98301428Y-76602438D01*
X98301428Y-76602438D02*
X98349047Y-76650057D01*
X98349047Y-76650057D02*
X98396666Y-76745295D01*
X98396666Y-76745295D02*
X98396666Y-76840533D01*
X98396666Y-76840533D02*
X98349047Y-76983390D01*
X98349047Y-76983390D02*
X97777619Y-77554819D01*
X97777619Y-77554819D02*
X98396666Y-77554819D01*
%TO.C,U2*%
X111810000Y-33220000D02*
X129590000Y-33220000D01*
X111810000Y-94180000D02*
X111810000Y-33220000D01*
X114350000Y-56080000D02*
X114350000Y-68780000D01*
X114350000Y-68780000D02*
X127050000Y-68780000D01*
X114350000Y-81480000D02*
X114350000Y-94180000D01*
X114860800Y-39519200D02*
X117400800Y-39519200D01*
X114860800Y-52219200D02*
X114860800Y-39519200D01*
X115620000Y-92910000D02*
X115620000Y-94180000D01*
X116890000Y-31950000D02*
X124510000Y-31950000D01*
X116890000Y-33220000D02*
X116890000Y-31950000D01*
X116890000Y-38300000D02*
X116890000Y-33220000D01*
X116890000Y-38300000D02*
X124510000Y-38300000D01*
X117400800Y-39519200D02*
X117400800Y-42059200D01*
X117400800Y-39519200D02*
X117400800Y-52219200D01*
X117400800Y-42059200D02*
X114860800Y-42059200D01*
X117400800Y-52219200D02*
X114860800Y-52219200D01*
X119430000Y-73860000D02*
X121970000Y-73860000D01*
X119430000Y-77670000D02*
X119430000Y-73860000D01*
X120801600Y-46450000D02*
X120801600Y-50450000D01*
X120801600Y-50450000D02*
X127051600Y-50450000D01*
X121970000Y-73860000D02*
X121970000Y-77670000D01*
X121970000Y-77670000D02*
X119430000Y-77670000D01*
X124510000Y-31950000D02*
X124510000Y-33220000D01*
X124510000Y-38300000D02*
X124510000Y-33220000D01*
X125780000Y-92910000D02*
X115620000Y-92910000D01*
X125780000Y-94180000D02*
X125780000Y-92910000D01*
X126801600Y-46450000D02*
X120801600Y-46450000D01*
X127050000Y-56080000D02*
X114350000Y-56080000D01*
X127050000Y-68780000D02*
X127050000Y-56080000D01*
X127050000Y-81480000D02*
X114350000Y-81480000D01*
X127050000Y-94180000D02*
X127050000Y-81480000D01*
X127051600Y-46450000D02*
X126801600Y-46450000D01*
X127051600Y-50450000D02*
X127051600Y-46450000D01*
X129590000Y-33220000D02*
X129590000Y-94180000D01*
X129590000Y-94180000D02*
X111810000Y-94180000D01*
X121598026Y-75765000D02*
G75*
G02*
X119801974Y-75765000I-898026J0D01*
G01*
X119801974Y-75765000D02*
G75*
G02*
X121598026Y-75765000I898026J0D01*
G01*
D11*
X120626000Y-65881000D02*
X120245000Y-66135000D01*
X119991000Y-65881000D01*
X120372000Y-65627000D01*
X120626000Y-65881000D01*
G36*
X120626000Y-65881000D02*
G01*
X120245000Y-66135000D01*
X119991000Y-65881000D01*
X120372000Y-65627000D01*
X120626000Y-65881000D01*
G37*
X120753000Y-65119000D02*
X120372000Y-65373000D01*
X120118000Y-65119000D01*
X120499000Y-64865000D01*
X120753000Y-65119000D01*
G36*
X120753000Y-65119000D02*
G01*
X120372000Y-65373000D01*
X120118000Y-65119000D01*
X120499000Y-64865000D01*
X120753000Y-65119000D01*
G37*
X121007000Y-66262000D02*
X120626000Y-66516000D01*
X120372000Y-66262000D01*
X120753000Y-66008000D01*
X121007000Y-66262000D01*
G36*
X121007000Y-66262000D02*
G01*
X120626000Y-66516000D01*
X120372000Y-66262000D01*
X120753000Y-66008000D01*
X121007000Y-66262000D01*
G37*
X121134000Y-65500000D02*
X120753000Y-65754000D01*
X120499000Y-65500000D01*
X120880000Y-65246000D01*
X121134000Y-65500000D01*
G36*
X121134000Y-65500000D02*
G01*
X120753000Y-65754000D01*
X120499000Y-65500000D01*
X120880000Y-65246000D01*
X121134000Y-65500000D01*
G37*
X121261000Y-64738000D02*
X120880000Y-64992000D01*
X120626000Y-64738000D01*
X121007000Y-64484000D01*
X121261000Y-64738000D01*
G36*
X121261000Y-64738000D02*
G01*
X120880000Y-64992000D01*
X120626000Y-64738000D01*
X121007000Y-64484000D01*
X121261000Y-64738000D01*
G37*
X121388000Y-66643000D02*
X121007000Y-66897000D01*
X120753000Y-66643000D01*
X121134000Y-66389000D01*
X121388000Y-66643000D01*
G36*
X121388000Y-66643000D02*
G01*
X121007000Y-66897000D01*
X120753000Y-66643000D01*
X121134000Y-66389000D01*
X121388000Y-66643000D01*
G37*
X121642000Y-65119000D02*
X121261000Y-65373000D01*
X121007000Y-65119000D01*
X121388000Y-64865000D01*
X121642000Y-65119000D01*
G36*
X121642000Y-65119000D02*
G01*
X121261000Y-65373000D01*
X121007000Y-65119000D01*
X121388000Y-64865000D01*
X121642000Y-65119000D01*
G37*
X121769000Y-64357000D02*
X121388000Y-64611000D01*
X121134000Y-64357000D01*
X121515000Y-64103000D01*
X121769000Y-64357000D01*
G36*
X121769000Y-64357000D02*
G01*
X121388000Y-64611000D01*
X121134000Y-64357000D01*
X121515000Y-64103000D01*
X121769000Y-64357000D01*
G37*
D12*
%TO.C,J9*%
X133430000Y-86250000D02*
X132100000Y-86250000D01*
X133430000Y-84920000D02*
X133430000Y-86250000D01*
X133430000Y-83650000D02*
X133430000Y-60730000D01*
X133430000Y-83650000D02*
X130770000Y-83650000D01*
X133430000Y-60730000D02*
X130770000Y-60730000D01*
X130770000Y-83650000D02*
X130770000Y-60730000D01*
%TO.C,C5*%
X138990000Y-61588748D02*
X138990000Y-63011252D01*
X140810000Y-61588748D02*
X140810000Y-63011252D01*
%TO.C,J7*%
X137400000Y-76700000D02*
X138650000Y-76700000D01*
X137690000Y-76410000D02*
X143660000Y-76410000D01*
X143660000Y-76410000D02*
X143660000Y-66290000D01*
X137700000Y-76400000D02*
X138450000Y-76400000D01*
X138450000Y-76400000D02*
X138450000Y-74600000D01*
X139950000Y-76400000D02*
X139950000Y-75650000D01*
X139950000Y-75650000D02*
X142900000Y-75650000D01*
X142900000Y-75650000D02*
X142900000Y-71350000D01*
X137400000Y-75450000D02*
X137400000Y-76700000D01*
X137700000Y-74600000D02*
X137700000Y-76400000D01*
X138450000Y-74600000D02*
X137700000Y-74600000D01*
X137700000Y-73100000D02*
X138450000Y-73100000D01*
X138450000Y-73100000D02*
X138450000Y-69600000D01*
X137700000Y-69600000D02*
X137700000Y-73100000D01*
X138450000Y-69600000D02*
X137700000Y-69600000D01*
X137700000Y-68100000D02*
X138450000Y-68100000D01*
X138450000Y-68100000D02*
X138450000Y-66300000D01*
X139950000Y-67050000D02*
X142900000Y-67050000D01*
X142900000Y-67050000D02*
X142900000Y-71350000D01*
X137700000Y-66300000D02*
X137700000Y-68100000D01*
X138450000Y-66300000D02*
X137700000Y-66300000D01*
X139950000Y-66300000D02*
X139950000Y-67050000D01*
X137690000Y-66290000D02*
X137690000Y-76410000D01*
X143660000Y-66290000D02*
X137690000Y-66290000D01*
%TO.C,JP3*%
X79400000Y-46875000D02*
X79400000Y-49675000D01*
X77400000Y-46875000D02*
X79400000Y-46875000D01*
X79400000Y-49675000D02*
X77400000Y-49675000D01*
X77400000Y-49675000D02*
X77400000Y-46875000D01*
%TO.C,JP2*%
X82000000Y-46875000D02*
X82000000Y-49675000D01*
X80000000Y-46875000D02*
X82000000Y-46875000D01*
X82000000Y-49675000D02*
X80000000Y-49675000D01*
X80000000Y-49675000D02*
X80000000Y-46875000D01*
%TO.C,R10*%
X87237742Y-34777500D02*
X87712258Y-34777500D01*
X87237742Y-35822500D02*
X87712258Y-35822500D01*
%TO.C,R4*%
X61977500Y-39737258D02*
X61977500Y-39262742D01*
X63022500Y-39737258D02*
X63022500Y-39262742D01*
%TO.C,C1*%
X79840000Y-67561252D02*
X79840000Y-66138748D01*
X81660000Y-67561252D02*
X81660000Y-66138748D01*
%TO.C,R22*%
X87912742Y-52527500D02*
X88387258Y-52527500D01*
X87912742Y-53572500D02*
X88387258Y-53572500D01*
%TO.C,TP2*%
D11*
X133300000Y-47500000D02*
X135500000Y-47500000D01*
X135500000Y-43700000D01*
X133300000Y-43700000D01*
X133300000Y-47500000D01*
D12*
%TO.C,C2*%
X61990000Y-36259420D02*
X61990000Y-36540580D01*
X63010000Y-36259420D02*
X63010000Y-36540580D01*
%TO.C,C7*%
X135588748Y-48990000D02*
X137011252Y-48990000D01*
X135588748Y-50810000D02*
X137011252Y-50810000D01*
%TO.C,J1*%
X93170000Y-29170000D02*
X102290000Y-29170000D01*
X93170000Y-49750000D02*
X93170000Y-29170000D01*
X94480000Y-30470000D02*
X100980000Y-30470000D01*
X94480000Y-48450000D02*
X94480000Y-30470000D01*
X100980000Y-30470000D02*
X100980000Y-37410000D01*
X100980000Y-37410000D02*
X100980000Y-37410000D01*
X100980000Y-37410000D02*
X102290000Y-37410000D01*
X100980000Y-41510000D02*
X100980000Y-48450000D01*
X100980000Y-48450000D02*
X94480000Y-48450000D01*
X102290000Y-29170000D02*
X102290000Y-49750000D01*
X102290000Y-41510000D02*
X100980000Y-41510000D01*
X102290000Y-49750000D02*
X93170000Y-49750000D01*
X102680000Y-44540000D02*
X103680000Y-45040000D01*
X103680000Y-44040000D02*
X102680000Y-44540000D01*
X103680000Y-45040000D02*
X103680000Y-44040000D01*
%TO.C,R2*%
X139987258Y-36727500D02*
X139512742Y-36727500D01*
X139987258Y-37772500D02*
X139512742Y-37772500D01*
%TO.C,R23*%
X87912742Y-55077500D02*
X88387258Y-55077500D01*
X87912742Y-56122500D02*
X88387258Y-56122500D01*
%TO.C,J6*%
X140162500Y-47200000D02*
X140162500Y-48450000D01*
X140162500Y-48450000D02*
X141412500Y-48450000D01*
X140452500Y-40540000D02*
X140452500Y-48160000D01*
X140452500Y-48160000D02*
X146422500Y-48160000D01*
X140462500Y-40550000D02*
X140462500Y-42350000D01*
X140462500Y-42350000D02*
X141212500Y-42350000D01*
X140462500Y-43850000D02*
X140462500Y-44850000D01*
X140462500Y-44850000D02*
X141212500Y-44850000D01*
X140462500Y-46350000D02*
X140462500Y-48150000D01*
X140462500Y-48150000D02*
X141212500Y-48150000D01*
X141212500Y-40550000D02*
X140462500Y-40550000D01*
X141212500Y-42350000D02*
X141212500Y-40550000D01*
X141212500Y-43850000D02*
X140462500Y-43850000D01*
X141212500Y-44850000D02*
X141212500Y-43850000D01*
X141212500Y-46350000D02*
X140462500Y-46350000D01*
X141212500Y-48150000D02*
X141212500Y-46350000D01*
X142712500Y-40550000D02*
X142712500Y-41300000D01*
X142712500Y-41300000D02*
X145662500Y-41300000D01*
X142712500Y-47400000D02*
X145662500Y-47400000D01*
X142712500Y-48150000D02*
X142712500Y-47400000D01*
X145662500Y-41300000D02*
X145662500Y-44350000D01*
X145662500Y-47400000D02*
X145662500Y-44350000D01*
X146422500Y-40540000D02*
X140452500Y-40540000D01*
X146422500Y-48160000D02*
X146422500Y-40540000D01*
%TO.C,C3*%
X66990000Y-36259420D02*
X66990000Y-36540580D01*
X68010000Y-36259420D02*
X68010000Y-36540580D01*
%TO.C,R9*%
X138877500Y-57737258D02*
X138877500Y-57262742D01*
X139922500Y-57737258D02*
X139922500Y-57262742D01*
%TO.C,U3*%
X145121500Y-53155000D02*
X145121500Y-63395000D01*
X148252500Y-53155000D02*
X148252500Y-63395000D01*
X149762500Y-53155000D02*
X145121500Y-53155000D01*
X149762500Y-53155000D02*
X149762500Y-63395000D01*
X149762500Y-56425000D02*
X148252500Y-56425000D01*
X149762500Y-60126000D02*
X148252500Y-60126000D01*
X149762500Y-63395000D02*
X145121500Y-63395000D01*
%TO.C,C4*%
X71190000Y-30059420D02*
X71190000Y-30340580D01*
X72210000Y-30059420D02*
X72210000Y-30340580D01*
%TO.C,C6*%
X136490000Y-54811252D02*
X136490000Y-53388748D01*
X138310000Y-54811252D02*
X138310000Y-53388748D01*
%TO.C,R6*%
X59777500Y-40962742D02*
X59777500Y-41437258D01*
X60822500Y-40962742D02*
X60822500Y-41437258D01*
%TO.C,D2*%
X136400000Y-61760000D02*
X136400000Y-57900000D01*
X136400000Y-61760000D02*
X138400000Y-61760000D01*
X138400000Y-61760000D02*
X138400000Y-57900000D01*
%TO.C,C8*%
X141390000Y-61588748D02*
X141390000Y-63011252D01*
X143210000Y-61588748D02*
X143210000Y-63011252D01*
%TO.C,TP1*%
D11*
X145450000Y-68900000D02*
X149250000Y-68900000D01*
X149250000Y-71100000D01*
X145450000Y-71100000D01*
X145450000Y-68900000D01*
D12*
%TO.C,R26*%
X87912742Y-62727500D02*
X88387258Y-62727500D01*
X87912742Y-63772500D02*
X88387258Y-63772500D01*
%TO.C,R21*%
X88262742Y-48477500D02*
X88737258Y-48477500D01*
X88262742Y-49522500D02*
X88737258Y-49522500D01*
%TO.C,TP3*%
D11*
X147500000Y-39450000D02*
X149700000Y-39450000D01*
X149700000Y-35650000D01*
X147500000Y-35650000D01*
X147500000Y-39450000D01*
D12*
%TO.C,R25*%
X87912742Y-60177500D02*
X88387258Y-60177500D01*
X87912742Y-61222500D02*
X88387258Y-61222500D01*
%TO.C,D3*%
X140600000Y-59210000D02*
X140600000Y-55350000D01*
X140600000Y-59210000D02*
X142600000Y-59210000D01*
X142600000Y-59210000D02*
X142600000Y-55350000D01*
%TO.C,R8*%
X138877500Y-54537258D02*
X138877500Y-54062742D01*
X139922500Y-54537258D02*
X139922500Y-54062742D01*
%TO.C,R5*%
X69177500Y-40962742D02*
X69177500Y-41437258D01*
X70222500Y-40962742D02*
X70222500Y-41437258D01*
%TO.C,Q1*%
X141540000Y-38062500D02*
X141540000Y-37262500D01*
X141540000Y-38062500D02*
X141540000Y-38862500D01*
X144660000Y-38062500D02*
X144660000Y-37262500D01*
X144660000Y-38062500D02*
X144660000Y-38862500D01*
X141590000Y-39362500D02*
X141260000Y-39602500D01*
X141260000Y-39122500D01*
X141590000Y-39362500D01*
G36*
X141590000Y-39362500D02*
G01*
X141260000Y-39602500D01*
X141260000Y-39122500D01*
X141590000Y-39362500D01*
G37*
%TO.C,R3*%
X66977500Y-39262742D02*
X66977500Y-39737258D01*
X68022500Y-39262742D02*
X68022500Y-39737258D01*
%TO.C,R1*%
X139512742Y-38727500D02*
X139987258Y-38727500D01*
X139512742Y-39772500D02*
X139987258Y-39772500D01*
%TO.C,R24*%
X87912742Y-57627500D02*
X88387258Y-57627500D01*
X87912742Y-58672500D02*
X88387258Y-58672500D01*
%TO.C,D1*%
X137850000Y-29540000D02*
X137850000Y-33400000D01*
X139850000Y-29540000D02*
X137850000Y-29540000D01*
X139850000Y-29540000D02*
X139850000Y-33400000D01*
%TO.C,J3*%
X140187500Y-34550000D02*
X140187500Y-35800000D01*
X140187500Y-35800000D02*
X141437500Y-35800000D01*
X140477500Y-27890000D02*
X140477500Y-35510000D01*
X140477500Y-35510000D02*
X146447500Y-35510000D01*
X140487500Y-27900000D02*
X140487500Y-29700000D01*
X140487500Y-29700000D02*
X141237500Y-29700000D01*
X140487500Y-31200000D02*
X140487500Y-32200000D01*
X140487500Y-32200000D02*
X141237500Y-32200000D01*
X140487500Y-33700000D02*
X140487500Y-35500000D01*
X140487500Y-35500000D02*
X141237500Y-35500000D01*
X141237500Y-27900000D02*
X140487500Y-27900000D01*
X141237500Y-29700000D02*
X141237500Y-27900000D01*
X141237500Y-31200000D02*
X140487500Y-31200000D01*
X141237500Y-32200000D02*
X141237500Y-31200000D01*
X141237500Y-33700000D02*
X140487500Y-33700000D01*
X141237500Y-35500000D02*
X141237500Y-33700000D01*
X142737500Y-27900000D02*
X142737500Y-28650000D01*
X142737500Y-28650000D02*
X145687500Y-28650000D01*
X142737500Y-34750000D02*
X145687500Y-34750000D01*
X142737500Y-35500000D02*
X142737500Y-34750000D01*
X145687500Y-28650000D02*
X145687500Y-31700000D01*
X145687500Y-34750000D02*
X145687500Y-31700000D01*
X146447500Y-27890000D02*
X140477500Y-27890000D01*
X146447500Y-35510000D02*
X146447500Y-27890000D01*
%TO.C,R7*%
X71037258Y-27277500D02*
X70562742Y-27277500D01*
X71037258Y-28322500D02*
X70562742Y-28322500D01*
%TO.C,J5*%
X54940000Y-78720000D02*
X54940000Y-81380000D01*
X72780000Y-78720000D02*
X54940000Y-78720000D01*
X72780000Y-78720000D02*
X72780000Y-81380000D01*
X72780000Y-81380000D02*
X54940000Y-81380000D01*
X75380000Y-80050000D02*
X75380000Y-81380000D01*
X75380000Y-81380000D02*
X74050000Y-81380000D01*
%TO.C,J2*%
X93170000Y-55630000D02*
X102290000Y-55630000D01*
X93170000Y-76210000D02*
X93170000Y-55630000D01*
X94480000Y-56930000D02*
X100980000Y-56930000D01*
X94480000Y-74910000D02*
X94480000Y-56930000D01*
X100980000Y-56930000D02*
X100980000Y-63870000D01*
X100980000Y-63870000D02*
X100980000Y-63870000D01*
X100980000Y-63870000D02*
X102290000Y-63870000D01*
X100980000Y-67970000D02*
X100980000Y-74910000D01*
X100980000Y-74910000D02*
X94480000Y-74910000D01*
X102290000Y-55630000D02*
X102290000Y-76210000D01*
X102290000Y-67970000D02*
X100980000Y-67970000D01*
X102290000Y-76210000D02*
X93170000Y-76210000D01*
X102680000Y-71000000D02*
X103680000Y-71500000D01*
X103680000Y-70500000D02*
X102680000Y-71000000D01*
X103680000Y-71500000D02*
X103680000Y-70500000D01*
%TD*%
M02*
