%TF.GenerationSoftware,KiCad,Pcbnew,8.0.1*%
%TF.CreationDate,2024-04-21T23:41:19+02:00*%
%TF.ProjectId,PreciPSLoadFront,50726563-6950-4534-9c6f-616446726f6e,rev?*%
%TF.SameCoordinates,Original*%
%TF.FileFunction,Paste,Top*%
%TF.FilePolarity,Positive*%
%FSLAX46Y46*%
G04 Gerber Fmt 4.6, Leading zero omitted, Abs format (unit mm)*
G04 Created by KiCad (PCBNEW 8.0.1) date 2024-04-21 23:41:19*
%MOMM*%
%LPD*%
G01*
G04 APERTURE LIST*
G04 Aperture macros list*
%AMRoundRect*
0 Rectangle with rounded corners*
0 $1 Rounding radius*
0 $2 $3 $4 $5 $6 $7 $8 $9 X,Y pos of 4 corners*
0 Add a 4 corners polygon primitive as box body*
4,1,4,$2,$3,$4,$5,$6,$7,$8,$9,$2,$3,0*
0 Add four circle primitives for the rounded corners*
1,1,$1+$1,$2,$3*
1,1,$1+$1,$4,$5*
1,1,$1+$1,$6,$7*
1,1,$1+$1,$8,$9*
0 Add four rect primitives between the rounded corners*
20,1,$1+$1,$2,$3,$4,$5,0*
20,1,$1+$1,$4,$5,$6,$7,0*
20,1,$1+$1,$6,$7,$8,$9,0*
20,1,$1+$1,$8,$9,$2,$3,0*%
G04 Aperture macros list end*
%ADD10RoundRect,0.250000X-0.650000X0.325000X-0.650000X-0.325000X0.650000X-0.325000X0.650000X0.325000X0*%
%ADD11RoundRect,0.200000X-0.200000X-0.275000X0.200000X-0.275000X0.200000X0.275000X-0.200000X0.275000X0*%
%ADD12RoundRect,0.200000X0.275000X-0.200000X0.275000X0.200000X-0.275000X0.200000X-0.275000X-0.200000X0*%
%ADD13RoundRect,0.250000X0.650000X-0.325000X0.650000X0.325000X-0.650000X0.325000X-0.650000X-0.325000X0*%
%ADD14RoundRect,0.200000X0.750000X-1.550000X0.750000X1.550000X-0.750000X1.550000X-0.750000X-1.550000X0*%
%ADD15RoundRect,0.225000X-0.250000X0.225000X-0.250000X-0.225000X0.250000X-0.225000X0.250000X0.225000X0*%
%ADD16RoundRect,0.250000X-0.325000X-0.650000X0.325000X-0.650000X0.325000X0.650000X-0.325000X0.650000X0*%
%ADD17RoundRect,0.200000X0.200000X0.275000X-0.200000X0.275000X-0.200000X-0.275000X0.200000X-0.275000X0*%
%ADD18RoundRect,0.200000X-0.275000X0.200000X-0.275000X-0.200000X0.275000X-0.200000X0.275000X0.200000X0*%
%ADD19RoundRect,0.250000X0.300000X-0.300000X0.300000X0.300000X-0.300000X0.300000X-0.300000X-0.300000X0*%
%ADD20RoundRect,0.200000X-1.550000X-0.750000X1.550000X-0.750000X1.550000X0.750000X-1.550000X0.750000X0*%
%ADD21RoundRect,0.150000X0.150000X-0.512500X0.150000X0.512500X-0.150000X0.512500X-0.150000X-0.512500X0*%
%ADD22RoundRect,0.250000X-0.300000X0.300000X-0.300000X-0.300000X0.300000X-0.300000X0.300000X0.300000X0*%
G04 APERTURE END LIST*
D10*
%TO.C,C5*%
X139900000Y-60825000D03*
X139900000Y-63775000D03*
%TD*%
D11*
%TO.C,R10*%
X86650000Y-35300000D03*
X88300000Y-35300000D03*
%TD*%
D12*
%TO.C,R4*%
X62500000Y-40325000D03*
X62500000Y-38675000D03*
%TD*%
D13*
%TO.C,C1*%
X80750000Y-68325000D03*
X80750000Y-65375000D03*
%TD*%
D11*
%TO.C,R22*%
X87325000Y-53050000D03*
X88975000Y-53050000D03*
%TD*%
D14*
%TO.C,TP2*%
X134400000Y-45600000D03*
%TD*%
D15*
%TO.C,C2*%
X62500000Y-35625000D03*
X62500000Y-37175000D03*
%TD*%
D16*
%TO.C,C7*%
X134825000Y-49900000D03*
X137775000Y-49900000D03*
%TD*%
D17*
%TO.C,R2*%
X140575000Y-37250000D03*
X138925000Y-37250000D03*
%TD*%
D11*
%TO.C,R23*%
X87325000Y-55600000D03*
X88975000Y-55600000D03*
%TD*%
D15*
%TO.C,C3*%
X67500000Y-35625000D03*
X67500000Y-37175000D03*
%TD*%
D12*
%TO.C,R9*%
X139400000Y-58325000D03*
X139400000Y-56675000D03*
%TD*%
D15*
%TO.C,C4*%
X71700000Y-29425000D03*
X71700000Y-30975000D03*
%TD*%
D13*
%TO.C,C6*%
X137400000Y-55575000D03*
X137400000Y-52625000D03*
%TD*%
D18*
%TO.C,R6*%
X60300000Y-40375000D03*
X60300000Y-42025000D03*
%TD*%
D19*
%TO.C,D2*%
X137400000Y-60950000D03*
X137400000Y-58150000D03*
%TD*%
D10*
%TO.C,C8*%
X142300000Y-60825000D03*
X142300000Y-63775000D03*
%TD*%
D20*
%TO.C,TP1*%
X147350000Y-70000000D03*
%TD*%
D11*
%TO.C,R26*%
X87325000Y-63250000D03*
X88975000Y-63250000D03*
%TD*%
%TO.C,R21*%
X87675000Y-49000000D03*
X89325000Y-49000000D03*
%TD*%
D14*
%TO.C,TP3*%
X148600000Y-37550000D03*
%TD*%
D11*
%TO.C,R25*%
X87325000Y-60700000D03*
X88975000Y-60700000D03*
%TD*%
D19*
%TO.C,D3*%
X141600000Y-58400000D03*
X141600000Y-55600000D03*
%TD*%
D12*
%TO.C,R8*%
X139400000Y-55125000D03*
X139400000Y-53475000D03*
%TD*%
D18*
%TO.C,R5*%
X69700000Y-40375000D03*
X69700000Y-42025000D03*
%TD*%
D21*
%TO.C,Q1*%
X142150000Y-39200000D03*
X144050000Y-39200000D03*
X143100000Y-36925000D03*
%TD*%
D18*
%TO.C,R3*%
X67500000Y-38675000D03*
X67500000Y-40325000D03*
%TD*%
D11*
%TO.C,R1*%
X138925000Y-39250000D03*
X140575000Y-39250000D03*
%TD*%
%TO.C,R24*%
X87325000Y-58150000D03*
X88975000Y-58150000D03*
%TD*%
D22*
%TO.C,D1*%
X138850000Y-30350000D03*
X138850000Y-33150000D03*
%TD*%
D17*
%TO.C,R7*%
X71625000Y-27800000D03*
X69975000Y-27800000D03*
%TD*%
M02*
