%TF.GenerationSoftware,KiCad,Pcbnew,8.0.1*%
%TF.CreationDate,2024-04-21T23:41:19+02:00*%
%TF.ProjectId,PreciPSLoadFront,50726563-6950-4534-9c6f-616446726f6e,rev?*%
%TF.SameCoordinates,Original*%
%TF.FileFunction,Legend,Bot*%
%TF.FilePolarity,Positive*%
%FSLAX46Y46*%
G04 Gerber Fmt 4.6, Leading zero omitted, Abs format (unit mm)*
G04 Created by KiCad (PCBNEW 8.0.1) date 2024-04-21 23:41:19*
%MOMM*%
%LPD*%
G01*
G04 APERTURE LIST*
%ADD10C,0.150000*%
%ADD11C,0.100000*%
%ADD12C,0.120000*%
G04 APERTURE END LIST*
D10*
X77954819Y-41716666D02*
X78669104Y-41716666D01*
X78669104Y-41716666D02*
X78811961Y-41669047D01*
X78811961Y-41669047D02*
X78907200Y-41573809D01*
X78907200Y-41573809D02*
X78954819Y-41430952D01*
X78954819Y-41430952D02*
X78954819Y-41335714D01*
X78954819Y-42192857D02*
X77954819Y-42192857D01*
X77954819Y-42192857D02*
X77954819Y-42573809D01*
X77954819Y-42573809D02*
X78002438Y-42669047D01*
X78002438Y-42669047D02*
X78050057Y-42716666D01*
X78050057Y-42716666D02*
X78145295Y-42764285D01*
X78145295Y-42764285D02*
X78288152Y-42764285D01*
X78288152Y-42764285D02*
X78383390Y-42716666D01*
X78383390Y-42716666D02*
X78431009Y-42669047D01*
X78431009Y-42669047D02*
X78478628Y-42573809D01*
X78478628Y-42573809D02*
X78478628Y-42192857D01*
X78954819Y-43716666D02*
X78954819Y-43145238D01*
X78954819Y-43430952D02*
X77954819Y-43430952D01*
X77954819Y-43430952D02*
X78097676Y-43335714D01*
X78097676Y-43335714D02*
X78192914Y-43240476D01*
X78192914Y-43240476D02*
X78240533Y-43145238D01*
D11*
X106333332Y-87909800D02*
X106190475Y-87957419D01*
X106190475Y-87957419D02*
X105952380Y-87957419D01*
X105952380Y-87957419D02*
X105857142Y-87909800D01*
X105857142Y-87909800D02*
X105809523Y-87862180D01*
X105809523Y-87862180D02*
X105761904Y-87766942D01*
X105761904Y-87766942D02*
X105761904Y-87671704D01*
X105761904Y-87671704D02*
X105809523Y-87576466D01*
X105809523Y-87576466D02*
X105857142Y-87528847D01*
X105857142Y-87528847D02*
X105952380Y-87481228D01*
X105952380Y-87481228D02*
X106142856Y-87433609D01*
X106142856Y-87433609D02*
X106238094Y-87385990D01*
X106238094Y-87385990D02*
X106285713Y-87338371D01*
X106285713Y-87338371D02*
X106333332Y-87243133D01*
X106333332Y-87243133D02*
X106333332Y-87147895D01*
X106333332Y-87147895D02*
X106285713Y-87052657D01*
X106285713Y-87052657D02*
X106238094Y-87005038D01*
X106238094Y-87005038D02*
X106142856Y-86957419D01*
X106142856Y-86957419D02*
X105904761Y-86957419D01*
X105904761Y-86957419D02*
X105761904Y-87005038D01*
X105428570Y-86957419D02*
X105190475Y-87957419D01*
X105190475Y-87957419D02*
X104999999Y-87243133D01*
X104999999Y-87243133D02*
X104809523Y-87957419D01*
X104809523Y-87957419D02*
X104571428Y-86957419D01*
X103761904Y-87290752D02*
X103761904Y-87957419D01*
X103999999Y-86909800D02*
X104238094Y-87624085D01*
X104238094Y-87624085D02*
X103619047Y-87624085D01*
X74333332Y-55909800D02*
X74190475Y-55957419D01*
X74190475Y-55957419D02*
X73952380Y-55957419D01*
X73952380Y-55957419D02*
X73857142Y-55909800D01*
X73857142Y-55909800D02*
X73809523Y-55862180D01*
X73809523Y-55862180D02*
X73761904Y-55766942D01*
X73761904Y-55766942D02*
X73761904Y-55671704D01*
X73761904Y-55671704D02*
X73809523Y-55576466D01*
X73809523Y-55576466D02*
X73857142Y-55528847D01*
X73857142Y-55528847D02*
X73952380Y-55481228D01*
X73952380Y-55481228D02*
X74142856Y-55433609D01*
X74142856Y-55433609D02*
X74238094Y-55385990D01*
X74238094Y-55385990D02*
X74285713Y-55338371D01*
X74285713Y-55338371D02*
X74333332Y-55243133D01*
X74333332Y-55243133D02*
X74333332Y-55147895D01*
X74333332Y-55147895D02*
X74285713Y-55052657D01*
X74285713Y-55052657D02*
X74238094Y-55005038D01*
X74238094Y-55005038D02*
X74142856Y-54957419D01*
X74142856Y-54957419D02*
X73904761Y-54957419D01*
X73904761Y-54957419D02*
X73761904Y-55005038D01*
X73428570Y-54957419D02*
X73190475Y-55957419D01*
X73190475Y-55957419D02*
X72999999Y-55243133D01*
X72999999Y-55243133D02*
X72809523Y-55957419D01*
X72809523Y-55957419D02*
X72571428Y-54957419D01*
X72142856Y-55957419D02*
X71952380Y-55957419D01*
X71952380Y-55957419D02*
X71857142Y-55909800D01*
X71857142Y-55909800D02*
X71809523Y-55862180D01*
X71809523Y-55862180D02*
X71714285Y-55719323D01*
X71714285Y-55719323D02*
X71666666Y-55528847D01*
X71666666Y-55528847D02*
X71666666Y-55147895D01*
X71666666Y-55147895D02*
X71714285Y-55052657D01*
X71714285Y-55052657D02*
X71761904Y-55005038D01*
X71761904Y-55005038D02*
X71857142Y-54957419D01*
X71857142Y-54957419D02*
X72047618Y-54957419D01*
X72047618Y-54957419D02*
X72142856Y-55005038D01*
X72142856Y-55005038D02*
X72190475Y-55052657D01*
X72190475Y-55052657D02*
X72238094Y-55147895D01*
X72238094Y-55147895D02*
X72238094Y-55385990D01*
X72238094Y-55385990D02*
X72190475Y-55481228D01*
X72190475Y-55481228D02*
X72142856Y-55528847D01*
X72142856Y-55528847D02*
X72047618Y-55576466D01*
X72047618Y-55576466D02*
X71857142Y-55576466D01*
X71857142Y-55576466D02*
X71761904Y-55528847D01*
X71761904Y-55528847D02*
X71714285Y-55481228D01*
X71714285Y-55481228D02*
X71666666Y-55385990D01*
X58333332Y-71909800D02*
X58190475Y-71957419D01*
X58190475Y-71957419D02*
X57952380Y-71957419D01*
X57952380Y-71957419D02*
X57857142Y-71909800D01*
X57857142Y-71909800D02*
X57809523Y-71862180D01*
X57809523Y-71862180D02*
X57761904Y-71766942D01*
X57761904Y-71766942D02*
X57761904Y-71671704D01*
X57761904Y-71671704D02*
X57809523Y-71576466D01*
X57809523Y-71576466D02*
X57857142Y-71528847D01*
X57857142Y-71528847D02*
X57952380Y-71481228D01*
X57952380Y-71481228D02*
X58142856Y-71433609D01*
X58142856Y-71433609D02*
X58238094Y-71385990D01*
X58238094Y-71385990D02*
X58285713Y-71338371D01*
X58285713Y-71338371D02*
X58333332Y-71243133D01*
X58333332Y-71243133D02*
X58333332Y-71147895D01*
X58333332Y-71147895D02*
X58285713Y-71052657D01*
X58285713Y-71052657D02*
X58238094Y-71005038D01*
X58238094Y-71005038D02*
X58142856Y-70957419D01*
X58142856Y-70957419D02*
X57904761Y-70957419D01*
X57904761Y-70957419D02*
X57761904Y-71005038D01*
X57428570Y-70957419D02*
X57190475Y-71957419D01*
X57190475Y-71957419D02*
X56999999Y-71243133D01*
X56999999Y-71243133D02*
X56809523Y-71957419D01*
X56809523Y-71957419D02*
X56571428Y-70957419D01*
X56285713Y-70957419D02*
X55619047Y-70957419D01*
X55619047Y-70957419D02*
X56047618Y-71957419D01*
D10*
X72807200Y-37290476D02*
X72854819Y-37433333D01*
X72854819Y-37433333D02*
X72854819Y-37671428D01*
X72854819Y-37671428D02*
X72807200Y-37766666D01*
X72807200Y-37766666D02*
X72759580Y-37814285D01*
X72759580Y-37814285D02*
X72664342Y-37861904D01*
X72664342Y-37861904D02*
X72569104Y-37861904D01*
X72569104Y-37861904D02*
X72473866Y-37814285D01*
X72473866Y-37814285D02*
X72426247Y-37766666D01*
X72426247Y-37766666D02*
X72378628Y-37671428D01*
X72378628Y-37671428D02*
X72331009Y-37480952D01*
X72331009Y-37480952D02*
X72283390Y-37385714D01*
X72283390Y-37385714D02*
X72235771Y-37338095D01*
X72235771Y-37338095D02*
X72140533Y-37290476D01*
X72140533Y-37290476D02*
X72045295Y-37290476D01*
X72045295Y-37290476D02*
X71950057Y-37338095D01*
X71950057Y-37338095D02*
X71902438Y-37385714D01*
X71902438Y-37385714D02*
X71854819Y-37480952D01*
X71854819Y-37480952D02*
X71854819Y-37719047D01*
X71854819Y-37719047D02*
X71902438Y-37861904D01*
X71854819Y-38195238D02*
X72854819Y-38433333D01*
X72854819Y-38433333D02*
X72140533Y-38623809D01*
X72140533Y-38623809D02*
X72854819Y-38814285D01*
X72854819Y-38814285D02*
X71854819Y-39052381D01*
X72854819Y-39957142D02*
X72854819Y-39385714D01*
X72854819Y-39671428D02*
X71854819Y-39671428D01*
X71854819Y-39671428D02*
X71997676Y-39576190D01*
X71997676Y-39576190D02*
X72092914Y-39480952D01*
X72092914Y-39480952D02*
X72140533Y-39385714D01*
X71854819Y-40576190D02*
X71854819Y-40671428D01*
X71854819Y-40671428D02*
X71902438Y-40766666D01*
X71902438Y-40766666D02*
X71950057Y-40814285D01*
X71950057Y-40814285D02*
X72045295Y-40861904D01*
X72045295Y-40861904D02*
X72235771Y-40909523D01*
X72235771Y-40909523D02*
X72473866Y-40909523D01*
X72473866Y-40909523D02*
X72664342Y-40861904D01*
X72664342Y-40861904D02*
X72759580Y-40814285D01*
X72759580Y-40814285D02*
X72807200Y-40766666D01*
X72807200Y-40766666D02*
X72854819Y-40671428D01*
X72854819Y-40671428D02*
X72854819Y-40576190D01*
X72854819Y-40576190D02*
X72807200Y-40480952D01*
X72807200Y-40480952D02*
X72759580Y-40433333D01*
X72759580Y-40433333D02*
X72664342Y-40385714D01*
X72664342Y-40385714D02*
X72473866Y-40338095D01*
X72473866Y-40338095D02*
X72235771Y-40338095D01*
X72235771Y-40338095D02*
X72045295Y-40385714D01*
X72045295Y-40385714D02*
X71950057Y-40433333D01*
X71950057Y-40433333D02*
X71902438Y-40480952D01*
X71902438Y-40480952D02*
X71854819Y-40576190D01*
D11*
X138809523Y-87909800D02*
X138666666Y-87957419D01*
X138666666Y-87957419D02*
X138428571Y-87957419D01*
X138428571Y-87957419D02*
X138333333Y-87909800D01*
X138333333Y-87909800D02*
X138285714Y-87862180D01*
X138285714Y-87862180D02*
X138238095Y-87766942D01*
X138238095Y-87766942D02*
X138238095Y-87671704D01*
X138238095Y-87671704D02*
X138285714Y-87576466D01*
X138285714Y-87576466D02*
X138333333Y-87528847D01*
X138333333Y-87528847D02*
X138428571Y-87481228D01*
X138428571Y-87481228D02*
X138619047Y-87433609D01*
X138619047Y-87433609D02*
X138714285Y-87385990D01*
X138714285Y-87385990D02*
X138761904Y-87338371D01*
X138761904Y-87338371D02*
X138809523Y-87243133D01*
X138809523Y-87243133D02*
X138809523Y-87147895D01*
X138809523Y-87147895D02*
X138761904Y-87052657D01*
X138761904Y-87052657D02*
X138714285Y-87005038D01*
X138714285Y-87005038D02*
X138619047Y-86957419D01*
X138619047Y-86957419D02*
X138380952Y-86957419D01*
X138380952Y-86957419D02*
X138238095Y-87005038D01*
X137904761Y-86957419D02*
X137666666Y-87957419D01*
X137666666Y-87957419D02*
X137476190Y-87243133D01*
X137476190Y-87243133D02*
X137285714Y-87957419D01*
X137285714Y-87957419D02*
X137047619Y-86957419D01*
X136142857Y-87957419D02*
X136714285Y-87957419D01*
X136428571Y-87957419D02*
X136428571Y-86957419D01*
X136428571Y-86957419D02*
X136523809Y-87100276D01*
X136523809Y-87100276D02*
X136619047Y-87195514D01*
X136619047Y-87195514D02*
X136714285Y-87243133D01*
X135190476Y-87957419D02*
X135761904Y-87957419D01*
X135476190Y-87957419D02*
X135476190Y-86957419D01*
X135476190Y-86957419D02*
X135571428Y-87100276D01*
X135571428Y-87100276D02*
X135666666Y-87195514D01*
X135666666Y-87195514D02*
X135761904Y-87243133D01*
X90333332Y-88409800D02*
X90190475Y-88457419D01*
X90190475Y-88457419D02*
X89952380Y-88457419D01*
X89952380Y-88457419D02*
X89857142Y-88409800D01*
X89857142Y-88409800D02*
X89809523Y-88362180D01*
X89809523Y-88362180D02*
X89761904Y-88266942D01*
X89761904Y-88266942D02*
X89761904Y-88171704D01*
X89761904Y-88171704D02*
X89809523Y-88076466D01*
X89809523Y-88076466D02*
X89857142Y-88028847D01*
X89857142Y-88028847D02*
X89952380Y-87981228D01*
X89952380Y-87981228D02*
X90142856Y-87933609D01*
X90142856Y-87933609D02*
X90238094Y-87885990D01*
X90238094Y-87885990D02*
X90285713Y-87838371D01*
X90285713Y-87838371D02*
X90333332Y-87743133D01*
X90333332Y-87743133D02*
X90333332Y-87647895D01*
X90333332Y-87647895D02*
X90285713Y-87552657D01*
X90285713Y-87552657D02*
X90238094Y-87505038D01*
X90238094Y-87505038D02*
X90142856Y-87457419D01*
X90142856Y-87457419D02*
X89904761Y-87457419D01*
X89904761Y-87457419D02*
X89761904Y-87505038D01*
X89428570Y-87457419D02*
X89190475Y-88457419D01*
X89190475Y-88457419D02*
X88999999Y-87743133D01*
X88999999Y-87743133D02*
X88809523Y-88457419D01*
X88809523Y-88457419D02*
X88571428Y-87457419D01*
X88285713Y-87457419D02*
X87666666Y-87457419D01*
X87666666Y-87457419D02*
X87999999Y-87838371D01*
X87999999Y-87838371D02*
X87857142Y-87838371D01*
X87857142Y-87838371D02*
X87761904Y-87885990D01*
X87761904Y-87885990D02*
X87714285Y-87933609D01*
X87714285Y-87933609D02*
X87666666Y-88028847D01*
X87666666Y-88028847D02*
X87666666Y-88266942D01*
X87666666Y-88266942D02*
X87714285Y-88362180D01*
X87714285Y-88362180D02*
X87761904Y-88409800D01*
X87761904Y-88409800D02*
X87857142Y-88457419D01*
X87857142Y-88457419D02*
X88142856Y-88457419D01*
X88142856Y-88457419D02*
X88238094Y-88409800D01*
X88238094Y-88409800D02*
X88285713Y-88362180D01*
D10*
X84333333Y-31984819D02*
X84333333Y-32699104D01*
X84333333Y-32699104D02*
X84380952Y-32841961D01*
X84380952Y-32841961D02*
X84476190Y-32937200D01*
X84476190Y-32937200D02*
X84619047Y-32984819D01*
X84619047Y-32984819D02*
X84714285Y-32984819D01*
X83428571Y-32318152D02*
X83428571Y-32984819D01*
X83666666Y-31937200D02*
X83904761Y-32651485D01*
X83904761Y-32651485D02*
X83285714Y-32651485D01*
D11*
X122333332Y-87909800D02*
X122190475Y-87957419D01*
X122190475Y-87957419D02*
X121952380Y-87957419D01*
X121952380Y-87957419D02*
X121857142Y-87909800D01*
X121857142Y-87909800D02*
X121809523Y-87862180D01*
X121809523Y-87862180D02*
X121761904Y-87766942D01*
X121761904Y-87766942D02*
X121761904Y-87671704D01*
X121761904Y-87671704D02*
X121809523Y-87576466D01*
X121809523Y-87576466D02*
X121857142Y-87528847D01*
X121857142Y-87528847D02*
X121952380Y-87481228D01*
X121952380Y-87481228D02*
X122142856Y-87433609D01*
X122142856Y-87433609D02*
X122238094Y-87385990D01*
X122238094Y-87385990D02*
X122285713Y-87338371D01*
X122285713Y-87338371D02*
X122333332Y-87243133D01*
X122333332Y-87243133D02*
X122333332Y-87147895D01*
X122333332Y-87147895D02*
X122285713Y-87052657D01*
X122285713Y-87052657D02*
X122238094Y-87005038D01*
X122238094Y-87005038D02*
X122142856Y-86957419D01*
X122142856Y-86957419D02*
X121904761Y-86957419D01*
X121904761Y-86957419D02*
X121761904Y-87005038D01*
X121428570Y-86957419D02*
X121190475Y-87957419D01*
X121190475Y-87957419D02*
X120999999Y-87243133D01*
X120999999Y-87243133D02*
X120809523Y-87957419D01*
X120809523Y-87957419D02*
X120571428Y-86957419D01*
X119714285Y-86957419D02*
X120190475Y-86957419D01*
X120190475Y-86957419D02*
X120238094Y-87433609D01*
X120238094Y-87433609D02*
X120190475Y-87385990D01*
X120190475Y-87385990D02*
X120095237Y-87338371D01*
X120095237Y-87338371D02*
X119857142Y-87338371D01*
X119857142Y-87338371D02*
X119761904Y-87385990D01*
X119761904Y-87385990D02*
X119714285Y-87433609D01*
X119714285Y-87433609D02*
X119666666Y-87528847D01*
X119666666Y-87528847D02*
X119666666Y-87766942D01*
X119666666Y-87766942D02*
X119714285Y-87862180D01*
X119714285Y-87862180D02*
X119761904Y-87909800D01*
X119761904Y-87909800D02*
X119857142Y-87957419D01*
X119857142Y-87957419D02*
X120095237Y-87957419D01*
X120095237Y-87957419D02*
X120190475Y-87909800D01*
X120190475Y-87909800D02*
X120238094Y-87862180D01*
X58333332Y-87909800D02*
X58190475Y-87957419D01*
X58190475Y-87957419D02*
X57952380Y-87957419D01*
X57952380Y-87957419D02*
X57857142Y-87909800D01*
X57857142Y-87909800D02*
X57809523Y-87862180D01*
X57809523Y-87862180D02*
X57761904Y-87766942D01*
X57761904Y-87766942D02*
X57761904Y-87671704D01*
X57761904Y-87671704D02*
X57809523Y-87576466D01*
X57809523Y-87576466D02*
X57857142Y-87528847D01*
X57857142Y-87528847D02*
X57952380Y-87481228D01*
X57952380Y-87481228D02*
X58142856Y-87433609D01*
X58142856Y-87433609D02*
X58238094Y-87385990D01*
X58238094Y-87385990D02*
X58285713Y-87338371D01*
X58285713Y-87338371D02*
X58333332Y-87243133D01*
X58333332Y-87243133D02*
X58333332Y-87147895D01*
X58333332Y-87147895D02*
X58285713Y-87052657D01*
X58285713Y-87052657D02*
X58238094Y-87005038D01*
X58238094Y-87005038D02*
X58142856Y-86957419D01*
X58142856Y-86957419D02*
X57904761Y-86957419D01*
X57904761Y-86957419D02*
X57761904Y-87005038D01*
X57428570Y-86957419D02*
X57190475Y-87957419D01*
X57190475Y-87957419D02*
X56999999Y-87243133D01*
X56999999Y-87243133D02*
X56809523Y-87957419D01*
X56809523Y-87957419D02*
X56571428Y-86957419D01*
X55666666Y-87957419D02*
X56238094Y-87957419D01*
X55952380Y-87957419D02*
X55952380Y-86957419D01*
X55952380Y-86957419D02*
X56047618Y-87100276D01*
X56047618Y-87100276D02*
X56142856Y-87195514D01*
X56142856Y-87195514D02*
X56238094Y-87243133D01*
X74333332Y-87909800D02*
X74190475Y-87957419D01*
X74190475Y-87957419D02*
X73952380Y-87957419D01*
X73952380Y-87957419D02*
X73857142Y-87909800D01*
X73857142Y-87909800D02*
X73809523Y-87862180D01*
X73809523Y-87862180D02*
X73761904Y-87766942D01*
X73761904Y-87766942D02*
X73761904Y-87671704D01*
X73761904Y-87671704D02*
X73809523Y-87576466D01*
X73809523Y-87576466D02*
X73857142Y-87528847D01*
X73857142Y-87528847D02*
X73952380Y-87481228D01*
X73952380Y-87481228D02*
X74142856Y-87433609D01*
X74142856Y-87433609D02*
X74238094Y-87385990D01*
X74238094Y-87385990D02*
X74285713Y-87338371D01*
X74285713Y-87338371D02*
X74333332Y-87243133D01*
X74333332Y-87243133D02*
X74333332Y-87147895D01*
X74333332Y-87147895D02*
X74285713Y-87052657D01*
X74285713Y-87052657D02*
X74238094Y-87005038D01*
X74238094Y-87005038D02*
X74142856Y-86957419D01*
X74142856Y-86957419D02*
X73904761Y-86957419D01*
X73904761Y-86957419D02*
X73761904Y-87005038D01*
X73428570Y-86957419D02*
X73190475Y-87957419D01*
X73190475Y-87957419D02*
X72999999Y-87243133D01*
X72999999Y-87243133D02*
X72809523Y-87957419D01*
X72809523Y-87957419D02*
X72571428Y-86957419D01*
X72238094Y-87052657D02*
X72190475Y-87005038D01*
X72190475Y-87005038D02*
X72095237Y-86957419D01*
X72095237Y-86957419D02*
X71857142Y-86957419D01*
X71857142Y-86957419D02*
X71761904Y-87005038D01*
X71761904Y-87005038D02*
X71714285Y-87052657D01*
X71714285Y-87052657D02*
X71666666Y-87147895D01*
X71666666Y-87147895D02*
X71666666Y-87243133D01*
X71666666Y-87243133D02*
X71714285Y-87385990D01*
X71714285Y-87385990D02*
X72285713Y-87957419D01*
X72285713Y-87957419D02*
X71666666Y-87957419D01*
X74333332Y-71909800D02*
X74190475Y-71957419D01*
X74190475Y-71957419D02*
X73952380Y-71957419D01*
X73952380Y-71957419D02*
X73857142Y-71909800D01*
X73857142Y-71909800D02*
X73809523Y-71862180D01*
X73809523Y-71862180D02*
X73761904Y-71766942D01*
X73761904Y-71766942D02*
X73761904Y-71671704D01*
X73761904Y-71671704D02*
X73809523Y-71576466D01*
X73809523Y-71576466D02*
X73857142Y-71528847D01*
X73857142Y-71528847D02*
X73952380Y-71481228D01*
X73952380Y-71481228D02*
X74142856Y-71433609D01*
X74142856Y-71433609D02*
X74238094Y-71385990D01*
X74238094Y-71385990D02*
X74285713Y-71338371D01*
X74285713Y-71338371D02*
X74333332Y-71243133D01*
X74333332Y-71243133D02*
X74333332Y-71147895D01*
X74333332Y-71147895D02*
X74285713Y-71052657D01*
X74285713Y-71052657D02*
X74238094Y-71005038D01*
X74238094Y-71005038D02*
X74142856Y-70957419D01*
X74142856Y-70957419D02*
X73904761Y-70957419D01*
X73904761Y-70957419D02*
X73761904Y-71005038D01*
X73428570Y-70957419D02*
X73190475Y-71957419D01*
X73190475Y-71957419D02*
X72999999Y-71243133D01*
X72999999Y-71243133D02*
X72809523Y-71957419D01*
X72809523Y-71957419D02*
X72571428Y-70957419D01*
X71761904Y-70957419D02*
X71952380Y-70957419D01*
X71952380Y-70957419D02*
X72047618Y-71005038D01*
X72047618Y-71005038D02*
X72095237Y-71052657D01*
X72095237Y-71052657D02*
X72190475Y-71195514D01*
X72190475Y-71195514D02*
X72238094Y-71385990D01*
X72238094Y-71385990D02*
X72238094Y-71766942D01*
X72238094Y-71766942D02*
X72190475Y-71862180D01*
X72190475Y-71862180D02*
X72142856Y-71909800D01*
X72142856Y-71909800D02*
X72047618Y-71957419D01*
X72047618Y-71957419D02*
X71857142Y-71957419D01*
X71857142Y-71957419D02*
X71761904Y-71909800D01*
X71761904Y-71909800D02*
X71714285Y-71862180D01*
X71714285Y-71862180D02*
X71666666Y-71766942D01*
X71666666Y-71766942D02*
X71666666Y-71528847D01*
X71666666Y-71528847D02*
X71714285Y-71433609D01*
X71714285Y-71433609D02*
X71761904Y-71385990D01*
X71761904Y-71385990D02*
X71857142Y-71338371D01*
X71857142Y-71338371D02*
X72047618Y-71338371D01*
X72047618Y-71338371D02*
X72142856Y-71385990D01*
X72142856Y-71385990D02*
X72190475Y-71433609D01*
X72190475Y-71433609D02*
X72238094Y-71528847D01*
X58333332Y-55909800D02*
X58190475Y-55957419D01*
X58190475Y-55957419D02*
X57952380Y-55957419D01*
X57952380Y-55957419D02*
X57857142Y-55909800D01*
X57857142Y-55909800D02*
X57809523Y-55862180D01*
X57809523Y-55862180D02*
X57761904Y-55766942D01*
X57761904Y-55766942D02*
X57761904Y-55671704D01*
X57761904Y-55671704D02*
X57809523Y-55576466D01*
X57809523Y-55576466D02*
X57857142Y-55528847D01*
X57857142Y-55528847D02*
X57952380Y-55481228D01*
X57952380Y-55481228D02*
X58142856Y-55433609D01*
X58142856Y-55433609D02*
X58238094Y-55385990D01*
X58238094Y-55385990D02*
X58285713Y-55338371D01*
X58285713Y-55338371D02*
X58333332Y-55243133D01*
X58333332Y-55243133D02*
X58333332Y-55147895D01*
X58333332Y-55147895D02*
X58285713Y-55052657D01*
X58285713Y-55052657D02*
X58238094Y-55005038D01*
X58238094Y-55005038D02*
X58142856Y-54957419D01*
X58142856Y-54957419D02*
X57904761Y-54957419D01*
X57904761Y-54957419D02*
X57761904Y-55005038D01*
X57428570Y-54957419D02*
X57190475Y-55957419D01*
X57190475Y-55957419D02*
X56999999Y-55243133D01*
X56999999Y-55243133D02*
X56809523Y-55957419D01*
X56809523Y-55957419D02*
X56571428Y-54957419D01*
X56047618Y-55385990D02*
X56142856Y-55338371D01*
X56142856Y-55338371D02*
X56190475Y-55290752D01*
X56190475Y-55290752D02*
X56238094Y-55195514D01*
X56238094Y-55195514D02*
X56238094Y-55147895D01*
X56238094Y-55147895D02*
X56190475Y-55052657D01*
X56190475Y-55052657D02*
X56142856Y-55005038D01*
X56142856Y-55005038D02*
X56047618Y-54957419D01*
X56047618Y-54957419D02*
X55857142Y-54957419D01*
X55857142Y-54957419D02*
X55761904Y-55005038D01*
X55761904Y-55005038D02*
X55714285Y-55052657D01*
X55714285Y-55052657D02*
X55666666Y-55147895D01*
X55666666Y-55147895D02*
X55666666Y-55195514D01*
X55666666Y-55195514D02*
X55714285Y-55290752D01*
X55714285Y-55290752D02*
X55761904Y-55338371D01*
X55761904Y-55338371D02*
X55857142Y-55385990D01*
X55857142Y-55385990D02*
X56047618Y-55385990D01*
X56047618Y-55385990D02*
X56142856Y-55433609D01*
X56142856Y-55433609D02*
X56190475Y-55481228D01*
X56190475Y-55481228D02*
X56238094Y-55576466D01*
X56238094Y-55576466D02*
X56238094Y-55766942D01*
X56238094Y-55766942D02*
X56190475Y-55862180D01*
X56190475Y-55862180D02*
X56142856Y-55909800D01*
X56142856Y-55909800D02*
X56047618Y-55957419D01*
X56047618Y-55957419D02*
X55857142Y-55957419D01*
X55857142Y-55957419D02*
X55761904Y-55909800D01*
X55761904Y-55909800D02*
X55714285Y-55862180D01*
X55714285Y-55862180D02*
X55666666Y-55766942D01*
X55666666Y-55766942D02*
X55666666Y-55576466D01*
X55666666Y-55576466D02*
X55714285Y-55481228D01*
X55714285Y-55481228D02*
X55761904Y-55433609D01*
X55761904Y-55433609D02*
X55857142Y-55385990D01*
D12*
%TO.C,JP1*%
X79300000Y-43950000D02*
X79300000Y-41150000D01*
X79300000Y-41150000D02*
X81300000Y-41150000D01*
X81300000Y-43950000D02*
X79300000Y-43950000D01*
X81300000Y-41150000D02*
X81300000Y-43950000D01*
%TO.C,SW4*%
D11*
X98000000Y-95000000D02*
X112000000Y-95000000D01*
X112000000Y-81000000D01*
X98000000Y-81000000D01*
X98000000Y-95000000D01*
%TO.C,SW9*%
X66000000Y-63000000D02*
X80000000Y-63000000D01*
X80000000Y-49000000D01*
X66000000Y-49000000D01*
X66000000Y-63000000D01*
%TO.C,SW7*%
X50000000Y-79000000D02*
X64000000Y-79000000D01*
X64000000Y-65000000D01*
X50000000Y-65000000D01*
X50000000Y-79000000D01*
D12*
%TO.C,SW10*%
X58690000Y-27940000D02*
X61400000Y-27940000D01*
X58690000Y-32550000D02*
X58690000Y-27940000D01*
X58690000Y-41560000D02*
X58690000Y-36950000D01*
X58690000Y-41560000D02*
X61650000Y-41560000D01*
X63350000Y-41560000D02*
X64150000Y-41560000D01*
X63600000Y-27940000D02*
X66400000Y-27940000D01*
X65850000Y-41560000D02*
X66450000Y-41560000D01*
X68600000Y-27940000D02*
X71300000Y-27940000D01*
X71300000Y-27940000D02*
X71300000Y-32550000D01*
X71310000Y-36950000D02*
X71310000Y-41560000D01*
X71310000Y-41560000D02*
X68550000Y-41560000D01*
%TO.C,SW11*%
D11*
X130000000Y-95000000D02*
X144000000Y-95000000D01*
X144000000Y-81000000D01*
X130000000Y-81000000D01*
X130000000Y-95000000D01*
%TO.C,SW3*%
X82000000Y-95000000D02*
X96000000Y-95000000D01*
X96000000Y-81000000D01*
X82000000Y-81000000D01*
X82000000Y-95000000D01*
D12*
%TO.C,J4*%
X82670000Y-33970000D02*
X84000000Y-33970000D01*
X82670000Y-35300000D02*
X82670000Y-33970000D01*
X82670000Y-36570000D02*
X85330000Y-36570000D01*
X82670000Y-69650000D02*
X82670000Y-36570000D01*
X82670000Y-69650000D02*
X85330000Y-69650000D01*
X85330000Y-69650000D02*
X85330000Y-36570000D01*
D11*
X82670000Y-80610000D02*
X171670000Y-80610000D01*
X171670000Y-25610000D01*
X82670000Y-25610000D01*
X82670000Y-80610000D01*
%TO.C,SW5*%
X114000000Y-95000000D02*
X128000000Y-95000000D01*
X128000000Y-81000000D01*
X114000000Y-81000000D01*
X114000000Y-95000000D01*
%TO.C,SW1*%
X50000000Y-95000000D02*
X64000000Y-95000000D01*
X64000000Y-81000000D01*
X50000000Y-81000000D01*
X50000000Y-95000000D01*
%TO.C,SW2*%
X66000000Y-95000000D02*
X80000000Y-95000000D01*
X80000000Y-81000000D01*
X66000000Y-81000000D01*
X66000000Y-95000000D01*
%TO.C,SW6*%
X66000000Y-79000000D02*
X80000000Y-79000000D01*
X80000000Y-65000000D01*
X66000000Y-65000000D01*
X66000000Y-79000000D01*
%TO.C,SW8*%
X50000000Y-63000000D02*
X64000000Y-63000000D01*
X64000000Y-49000000D01*
X50000000Y-49000000D01*
X50000000Y-63000000D01*
%TD*%
M02*
