%TF.GenerationSoftware,KiCad,Pcbnew,8.0.0*%
%TF.CreationDate,2024-03-22T17:01:39+01:00*%
%TF.ProjectId,PrezisoinPowerSupply,5072657a-6973-46f6-996e-506f77657253,rev?*%
%TF.SameCoordinates,Original*%
%TF.FileFunction,Legend,Bot*%
%TF.FilePolarity,Positive*%
%FSLAX46Y46*%
G04 Gerber Fmt 4.6, Leading zero omitted, Abs format (unit mm)*
G04 Created by KiCad (PCBNEW 8.0.0) date 2024-03-22 17:01:39*
%MOMM*%
%LPD*%
G01*
G04 APERTURE LIST*
%ADD10C,0.150000*%
%ADD11C,0.120000*%
%ADD12C,0.100000*%
G04 APERTURE END LIST*
D10*
X176914819Y-99038095D02*
X177724342Y-99038095D01*
X177724342Y-99038095D02*
X177819580Y-99085714D01*
X177819580Y-99085714D02*
X177867200Y-99133333D01*
X177867200Y-99133333D02*
X177914819Y-99228571D01*
X177914819Y-99228571D02*
X177914819Y-99419047D01*
X177914819Y-99419047D02*
X177867200Y-99514285D01*
X177867200Y-99514285D02*
X177819580Y-99561904D01*
X177819580Y-99561904D02*
X177724342Y-99609523D01*
X177724342Y-99609523D02*
X176914819Y-99609523D01*
X177914819Y-100133333D02*
X177914819Y-100323809D01*
X177914819Y-100323809D02*
X177867200Y-100419047D01*
X177867200Y-100419047D02*
X177819580Y-100466666D01*
X177819580Y-100466666D02*
X177676723Y-100561904D01*
X177676723Y-100561904D02*
X177486247Y-100609523D01*
X177486247Y-100609523D02*
X177105295Y-100609523D01*
X177105295Y-100609523D02*
X177010057Y-100561904D01*
X177010057Y-100561904D02*
X176962438Y-100514285D01*
X176962438Y-100514285D02*
X176914819Y-100419047D01*
X176914819Y-100419047D02*
X176914819Y-100228571D01*
X176914819Y-100228571D02*
X176962438Y-100133333D01*
X176962438Y-100133333D02*
X177010057Y-100085714D01*
X177010057Y-100085714D02*
X177105295Y-100038095D01*
X177105295Y-100038095D02*
X177343390Y-100038095D01*
X177343390Y-100038095D02*
X177438628Y-100085714D01*
X177438628Y-100085714D02*
X177486247Y-100133333D01*
X177486247Y-100133333D02*
X177533866Y-100228571D01*
X177533866Y-100228571D02*
X177533866Y-100419047D01*
X177533866Y-100419047D02*
X177486247Y-100514285D01*
X177486247Y-100514285D02*
X177438628Y-100561904D01*
X177438628Y-100561904D02*
X177343390Y-100609523D01*
X113944819Y-99118095D02*
X114754342Y-99118095D01*
X114754342Y-99118095D02*
X114849580Y-99165714D01*
X114849580Y-99165714D02*
X114897200Y-99213333D01*
X114897200Y-99213333D02*
X114944819Y-99308571D01*
X114944819Y-99308571D02*
X114944819Y-99499047D01*
X114944819Y-99499047D02*
X114897200Y-99594285D01*
X114897200Y-99594285D02*
X114849580Y-99641904D01*
X114849580Y-99641904D02*
X114754342Y-99689523D01*
X114754342Y-99689523D02*
X113944819Y-99689523D01*
X114373390Y-100308571D02*
X114325771Y-100213333D01*
X114325771Y-100213333D02*
X114278152Y-100165714D01*
X114278152Y-100165714D02*
X114182914Y-100118095D01*
X114182914Y-100118095D02*
X114135295Y-100118095D01*
X114135295Y-100118095D02*
X114040057Y-100165714D01*
X114040057Y-100165714D02*
X113992438Y-100213333D01*
X113992438Y-100213333D02*
X113944819Y-100308571D01*
X113944819Y-100308571D02*
X113944819Y-100499047D01*
X113944819Y-100499047D02*
X113992438Y-100594285D01*
X113992438Y-100594285D02*
X114040057Y-100641904D01*
X114040057Y-100641904D02*
X114135295Y-100689523D01*
X114135295Y-100689523D02*
X114182914Y-100689523D01*
X114182914Y-100689523D02*
X114278152Y-100641904D01*
X114278152Y-100641904D02*
X114325771Y-100594285D01*
X114325771Y-100594285D02*
X114373390Y-100499047D01*
X114373390Y-100499047D02*
X114373390Y-100308571D01*
X114373390Y-100308571D02*
X114421009Y-100213333D01*
X114421009Y-100213333D02*
X114468628Y-100165714D01*
X114468628Y-100165714D02*
X114563866Y-100118095D01*
X114563866Y-100118095D02*
X114754342Y-100118095D01*
X114754342Y-100118095D02*
X114849580Y-100165714D01*
X114849580Y-100165714D02*
X114897200Y-100213333D01*
X114897200Y-100213333D02*
X114944819Y-100308571D01*
X114944819Y-100308571D02*
X114944819Y-100499047D01*
X114944819Y-100499047D02*
X114897200Y-100594285D01*
X114897200Y-100594285D02*
X114849580Y-100641904D01*
X114849580Y-100641904D02*
X114754342Y-100689523D01*
X114754342Y-100689523D02*
X114563866Y-100689523D01*
X114563866Y-100689523D02*
X114468628Y-100641904D01*
X114468628Y-100641904D02*
X114421009Y-100594285D01*
X114421009Y-100594285D02*
X114373390Y-100499047D01*
X178850057Y-87904761D02*
X178802438Y-87809523D01*
X178802438Y-87809523D02*
X178707200Y-87714285D01*
X178707200Y-87714285D02*
X178564342Y-87571428D01*
X178564342Y-87571428D02*
X178516723Y-87476190D01*
X178516723Y-87476190D02*
X178516723Y-87380952D01*
X178754819Y-87428571D02*
X178707200Y-87333333D01*
X178707200Y-87333333D02*
X178611961Y-87238095D01*
X178611961Y-87238095D02*
X178421485Y-87190476D01*
X178421485Y-87190476D02*
X178088152Y-87190476D01*
X178088152Y-87190476D02*
X177897676Y-87238095D01*
X177897676Y-87238095D02*
X177802438Y-87333333D01*
X177802438Y-87333333D02*
X177754819Y-87428571D01*
X177754819Y-87428571D02*
X177754819Y-87619047D01*
X177754819Y-87619047D02*
X177802438Y-87714285D01*
X177802438Y-87714285D02*
X177897676Y-87809523D01*
X177897676Y-87809523D02*
X178088152Y-87857142D01*
X178088152Y-87857142D02*
X178421485Y-87857142D01*
X178421485Y-87857142D02*
X178611961Y-87809523D01*
X178611961Y-87809523D02*
X178707200Y-87714285D01*
X178707200Y-87714285D02*
X178754819Y-87619047D01*
X178754819Y-87619047D02*
X178754819Y-87428571D01*
X178754819Y-88809523D02*
X178754819Y-88238095D01*
X178754819Y-88523809D02*
X177754819Y-88523809D01*
X177754819Y-88523809D02*
X177897676Y-88428571D01*
X177897676Y-88428571D02*
X177992914Y-88333333D01*
X177992914Y-88333333D02*
X178040533Y-88238095D01*
X114654819Y-73161905D02*
X113654819Y-73161905D01*
X113654819Y-73161905D02*
X113654819Y-73400000D01*
X113654819Y-73400000D02*
X113702438Y-73542857D01*
X113702438Y-73542857D02*
X113797676Y-73638095D01*
X113797676Y-73638095D02*
X113892914Y-73685714D01*
X113892914Y-73685714D02*
X114083390Y-73733333D01*
X114083390Y-73733333D02*
X114226247Y-73733333D01*
X114226247Y-73733333D02*
X114416723Y-73685714D01*
X114416723Y-73685714D02*
X114511961Y-73638095D01*
X114511961Y-73638095D02*
X114607200Y-73542857D01*
X114607200Y-73542857D02*
X114654819Y-73400000D01*
X114654819Y-73400000D02*
X114654819Y-73161905D01*
X113654819Y-74638095D02*
X113654819Y-74161905D01*
X113654819Y-74161905D02*
X114131009Y-74114286D01*
X114131009Y-74114286D02*
X114083390Y-74161905D01*
X114083390Y-74161905D02*
X114035771Y-74257143D01*
X114035771Y-74257143D02*
X114035771Y-74495238D01*
X114035771Y-74495238D02*
X114083390Y-74590476D01*
X114083390Y-74590476D02*
X114131009Y-74638095D01*
X114131009Y-74638095D02*
X114226247Y-74685714D01*
X114226247Y-74685714D02*
X114464342Y-74685714D01*
X114464342Y-74685714D02*
X114559580Y-74638095D01*
X114559580Y-74638095D02*
X114607200Y-74590476D01*
X114607200Y-74590476D02*
X114654819Y-74495238D01*
X114654819Y-74495238D02*
X114654819Y-74257143D01*
X114654819Y-74257143D02*
X114607200Y-74161905D01*
X114607200Y-74161905D02*
X114559580Y-74114286D01*
X114150057Y-88504761D02*
X114102438Y-88409523D01*
X114102438Y-88409523D02*
X114007200Y-88314285D01*
X114007200Y-88314285D02*
X113864342Y-88171428D01*
X113864342Y-88171428D02*
X113816723Y-88076190D01*
X113816723Y-88076190D02*
X113816723Y-87980952D01*
X114054819Y-88028571D02*
X114007200Y-87933333D01*
X114007200Y-87933333D02*
X113911961Y-87838095D01*
X113911961Y-87838095D02*
X113721485Y-87790476D01*
X113721485Y-87790476D02*
X113388152Y-87790476D01*
X113388152Y-87790476D02*
X113197676Y-87838095D01*
X113197676Y-87838095D02*
X113102438Y-87933333D01*
X113102438Y-87933333D02*
X113054819Y-88028571D01*
X113054819Y-88028571D02*
X113054819Y-88219047D01*
X113054819Y-88219047D02*
X113102438Y-88314285D01*
X113102438Y-88314285D02*
X113197676Y-88409523D01*
X113197676Y-88409523D02*
X113388152Y-88457142D01*
X113388152Y-88457142D02*
X113721485Y-88457142D01*
X113721485Y-88457142D02*
X113911961Y-88409523D01*
X113911961Y-88409523D02*
X114007200Y-88314285D01*
X114007200Y-88314285D02*
X114054819Y-88219047D01*
X114054819Y-88219047D02*
X114054819Y-88028571D01*
X114054819Y-88933333D02*
X114054819Y-89123809D01*
X114054819Y-89123809D02*
X114007200Y-89219047D01*
X114007200Y-89219047D02*
X113959580Y-89266666D01*
X113959580Y-89266666D02*
X113816723Y-89361904D01*
X113816723Y-89361904D02*
X113626247Y-89409523D01*
X113626247Y-89409523D02*
X113245295Y-89409523D01*
X113245295Y-89409523D02*
X113150057Y-89361904D01*
X113150057Y-89361904D02*
X113102438Y-89314285D01*
X113102438Y-89314285D02*
X113054819Y-89219047D01*
X113054819Y-89219047D02*
X113054819Y-89028571D01*
X113054819Y-89028571D02*
X113102438Y-88933333D01*
X113102438Y-88933333D02*
X113150057Y-88885714D01*
X113150057Y-88885714D02*
X113245295Y-88838095D01*
X113245295Y-88838095D02*
X113483390Y-88838095D01*
X113483390Y-88838095D02*
X113578628Y-88885714D01*
X113578628Y-88885714D02*
X113626247Y-88933333D01*
X113626247Y-88933333D02*
X113673866Y-89028571D01*
X113673866Y-89028571D02*
X113673866Y-89219047D01*
X113673866Y-89219047D02*
X113626247Y-89314285D01*
X113626247Y-89314285D02*
X113578628Y-89361904D01*
X113578628Y-89361904D02*
X113483390Y-89409523D01*
X114250057Y-111804761D02*
X114202438Y-111709523D01*
X114202438Y-111709523D02*
X114107200Y-111614285D01*
X114107200Y-111614285D02*
X113964342Y-111471428D01*
X113964342Y-111471428D02*
X113916723Y-111376190D01*
X113916723Y-111376190D02*
X113916723Y-111280952D01*
X114154819Y-111328571D02*
X114107200Y-111233333D01*
X114107200Y-111233333D02*
X114011961Y-111138095D01*
X114011961Y-111138095D02*
X113821485Y-111090476D01*
X113821485Y-111090476D02*
X113488152Y-111090476D01*
X113488152Y-111090476D02*
X113297676Y-111138095D01*
X113297676Y-111138095D02*
X113202438Y-111233333D01*
X113202438Y-111233333D02*
X113154819Y-111328571D01*
X113154819Y-111328571D02*
X113154819Y-111519047D01*
X113154819Y-111519047D02*
X113202438Y-111614285D01*
X113202438Y-111614285D02*
X113297676Y-111709523D01*
X113297676Y-111709523D02*
X113488152Y-111757142D01*
X113488152Y-111757142D02*
X113821485Y-111757142D01*
X113821485Y-111757142D02*
X114011961Y-111709523D01*
X114011961Y-111709523D02*
X114107200Y-111614285D01*
X114107200Y-111614285D02*
X114154819Y-111519047D01*
X114154819Y-111519047D02*
X114154819Y-111328571D01*
X113488152Y-112614285D02*
X114154819Y-112614285D01*
X113107200Y-112376190D02*
X113821485Y-112138095D01*
X113821485Y-112138095D02*
X113821485Y-112757142D01*
X155567857Y-113589580D02*
X155615476Y-113637200D01*
X155615476Y-113637200D02*
X155758333Y-113684819D01*
X155758333Y-113684819D02*
X155853571Y-113684819D01*
X155853571Y-113684819D02*
X155996428Y-113637200D01*
X155996428Y-113637200D02*
X156091666Y-113541961D01*
X156091666Y-113541961D02*
X156139285Y-113446723D01*
X156139285Y-113446723D02*
X156186904Y-113256247D01*
X156186904Y-113256247D02*
X156186904Y-113113390D01*
X156186904Y-113113390D02*
X156139285Y-112922914D01*
X156139285Y-112922914D02*
X156091666Y-112827676D01*
X156091666Y-112827676D02*
X155996428Y-112732438D01*
X155996428Y-112732438D02*
X155853571Y-112684819D01*
X155853571Y-112684819D02*
X155758333Y-112684819D01*
X155758333Y-112684819D02*
X155615476Y-112732438D01*
X155615476Y-112732438D02*
X155567857Y-112780057D01*
X155186904Y-112780057D02*
X155139285Y-112732438D01*
X155139285Y-112732438D02*
X155044047Y-112684819D01*
X155044047Y-112684819D02*
X154805952Y-112684819D01*
X154805952Y-112684819D02*
X154710714Y-112732438D01*
X154710714Y-112732438D02*
X154663095Y-112780057D01*
X154663095Y-112780057D02*
X154615476Y-112875295D01*
X154615476Y-112875295D02*
X154615476Y-112970533D01*
X154615476Y-112970533D02*
X154663095Y-113113390D01*
X154663095Y-113113390D02*
X155234523Y-113684819D01*
X155234523Y-113684819D02*
X154615476Y-113684819D01*
X153996428Y-112684819D02*
X153901190Y-112684819D01*
X153901190Y-112684819D02*
X153805952Y-112732438D01*
X153805952Y-112732438D02*
X153758333Y-112780057D01*
X153758333Y-112780057D02*
X153710714Y-112875295D01*
X153710714Y-112875295D02*
X153663095Y-113065771D01*
X153663095Y-113065771D02*
X153663095Y-113303866D01*
X153663095Y-113303866D02*
X153710714Y-113494342D01*
X153710714Y-113494342D02*
X153758333Y-113589580D01*
X153758333Y-113589580D02*
X153805952Y-113637200D01*
X153805952Y-113637200D02*
X153901190Y-113684819D01*
X153901190Y-113684819D02*
X153996428Y-113684819D01*
X153996428Y-113684819D02*
X154091666Y-113637200D01*
X154091666Y-113637200D02*
X154139285Y-113589580D01*
X154139285Y-113589580D02*
X154186904Y-113494342D01*
X154186904Y-113494342D02*
X154234523Y-113303866D01*
X154234523Y-113303866D02*
X154234523Y-113065771D01*
X154234523Y-113065771D02*
X154186904Y-112875295D01*
X154186904Y-112875295D02*
X154139285Y-112780057D01*
X154139285Y-112780057D02*
X154091666Y-112732438D01*
X154091666Y-112732438D02*
X153996428Y-112684819D01*
X140567857Y-109069580D02*
X140615476Y-109117200D01*
X140615476Y-109117200D02*
X140758333Y-109164819D01*
X140758333Y-109164819D02*
X140853571Y-109164819D01*
X140853571Y-109164819D02*
X140996428Y-109117200D01*
X140996428Y-109117200D02*
X141091666Y-109021961D01*
X141091666Y-109021961D02*
X141139285Y-108926723D01*
X141139285Y-108926723D02*
X141186904Y-108736247D01*
X141186904Y-108736247D02*
X141186904Y-108593390D01*
X141186904Y-108593390D02*
X141139285Y-108402914D01*
X141139285Y-108402914D02*
X141091666Y-108307676D01*
X141091666Y-108307676D02*
X140996428Y-108212438D01*
X140996428Y-108212438D02*
X140853571Y-108164819D01*
X140853571Y-108164819D02*
X140758333Y-108164819D01*
X140758333Y-108164819D02*
X140615476Y-108212438D01*
X140615476Y-108212438D02*
X140567857Y-108260057D01*
X139710714Y-108498152D02*
X139710714Y-109164819D01*
X139948809Y-108117200D02*
X140186904Y-108831485D01*
X140186904Y-108831485D02*
X139567857Y-108831485D01*
X138710714Y-108164819D02*
X139186904Y-108164819D01*
X139186904Y-108164819D02*
X139234523Y-108641009D01*
X139234523Y-108641009D02*
X139186904Y-108593390D01*
X139186904Y-108593390D02*
X139091666Y-108545771D01*
X139091666Y-108545771D02*
X138853571Y-108545771D01*
X138853571Y-108545771D02*
X138758333Y-108593390D01*
X138758333Y-108593390D02*
X138710714Y-108641009D01*
X138710714Y-108641009D02*
X138663095Y-108736247D01*
X138663095Y-108736247D02*
X138663095Y-108974342D01*
X138663095Y-108974342D02*
X138710714Y-109069580D01*
X138710714Y-109069580D02*
X138758333Y-109117200D01*
X138758333Y-109117200D02*
X138853571Y-109164819D01*
X138853571Y-109164819D02*
X139091666Y-109164819D01*
X139091666Y-109164819D02*
X139186904Y-109117200D01*
X139186904Y-109117200D02*
X139234523Y-109069580D01*
X177554819Y-127561905D02*
X178364342Y-127561905D01*
X178364342Y-127561905D02*
X178459580Y-127609524D01*
X178459580Y-127609524D02*
X178507200Y-127657143D01*
X178507200Y-127657143D02*
X178554819Y-127752381D01*
X178554819Y-127752381D02*
X178554819Y-127942857D01*
X178554819Y-127942857D02*
X178507200Y-128038095D01*
X178507200Y-128038095D02*
X178459580Y-128085714D01*
X178459580Y-128085714D02*
X178364342Y-128133333D01*
X178364342Y-128133333D02*
X177554819Y-128133333D01*
X178554819Y-129133333D02*
X178554819Y-128561905D01*
X178554819Y-128847619D02*
X177554819Y-128847619D01*
X177554819Y-128847619D02*
X177697676Y-128752381D01*
X177697676Y-128752381D02*
X177792914Y-128657143D01*
X177792914Y-128657143D02*
X177840533Y-128561905D01*
X177888152Y-129990476D02*
X178554819Y-129990476D01*
X177507200Y-129752381D02*
X178221485Y-129514286D01*
X178221485Y-129514286D02*
X178221485Y-130133333D01*
X177654819Y-58161905D02*
X178464342Y-58161905D01*
X178464342Y-58161905D02*
X178559580Y-58209524D01*
X178559580Y-58209524D02*
X178607200Y-58257143D01*
X178607200Y-58257143D02*
X178654819Y-58352381D01*
X178654819Y-58352381D02*
X178654819Y-58542857D01*
X178654819Y-58542857D02*
X178607200Y-58638095D01*
X178607200Y-58638095D02*
X178559580Y-58685714D01*
X178559580Y-58685714D02*
X178464342Y-58733333D01*
X178464342Y-58733333D02*
X177654819Y-58733333D01*
X178654819Y-59733333D02*
X178654819Y-59161905D01*
X178654819Y-59447619D02*
X177654819Y-59447619D01*
X177654819Y-59447619D02*
X177797676Y-59352381D01*
X177797676Y-59352381D02*
X177892914Y-59257143D01*
X177892914Y-59257143D02*
X177940533Y-59161905D01*
X178083390Y-60304762D02*
X178035771Y-60209524D01*
X178035771Y-60209524D02*
X177988152Y-60161905D01*
X177988152Y-60161905D02*
X177892914Y-60114286D01*
X177892914Y-60114286D02*
X177845295Y-60114286D01*
X177845295Y-60114286D02*
X177750057Y-60161905D01*
X177750057Y-60161905D02*
X177702438Y-60209524D01*
X177702438Y-60209524D02*
X177654819Y-60304762D01*
X177654819Y-60304762D02*
X177654819Y-60495238D01*
X177654819Y-60495238D02*
X177702438Y-60590476D01*
X177702438Y-60590476D02*
X177750057Y-60638095D01*
X177750057Y-60638095D02*
X177845295Y-60685714D01*
X177845295Y-60685714D02*
X177892914Y-60685714D01*
X177892914Y-60685714D02*
X177988152Y-60638095D01*
X177988152Y-60638095D02*
X178035771Y-60590476D01*
X178035771Y-60590476D02*
X178083390Y-60495238D01*
X178083390Y-60495238D02*
X178083390Y-60304762D01*
X178083390Y-60304762D02*
X178131009Y-60209524D01*
X178131009Y-60209524D02*
X178178628Y-60161905D01*
X178178628Y-60161905D02*
X178273866Y-60114286D01*
X178273866Y-60114286D02*
X178464342Y-60114286D01*
X178464342Y-60114286D02*
X178559580Y-60161905D01*
X178559580Y-60161905D02*
X178607200Y-60209524D01*
X178607200Y-60209524D02*
X178654819Y-60304762D01*
X178654819Y-60304762D02*
X178654819Y-60495238D01*
X178654819Y-60495238D02*
X178607200Y-60590476D01*
X178607200Y-60590476D02*
X178559580Y-60638095D01*
X178559580Y-60638095D02*
X178464342Y-60685714D01*
X178464342Y-60685714D02*
X178273866Y-60685714D01*
X178273866Y-60685714D02*
X178178628Y-60638095D01*
X178178628Y-60638095D02*
X178131009Y-60590476D01*
X178131009Y-60590476D02*
X178083390Y-60495238D01*
X179050057Y-111204761D02*
X179002438Y-111109523D01*
X179002438Y-111109523D02*
X178907200Y-111014285D01*
X178907200Y-111014285D02*
X178764342Y-110871428D01*
X178764342Y-110871428D02*
X178716723Y-110776190D01*
X178716723Y-110776190D02*
X178716723Y-110680952D01*
X178954819Y-110728571D02*
X178907200Y-110633333D01*
X178907200Y-110633333D02*
X178811961Y-110538095D01*
X178811961Y-110538095D02*
X178621485Y-110490476D01*
X178621485Y-110490476D02*
X178288152Y-110490476D01*
X178288152Y-110490476D02*
X178097676Y-110538095D01*
X178097676Y-110538095D02*
X178002438Y-110633333D01*
X178002438Y-110633333D02*
X177954819Y-110728571D01*
X177954819Y-110728571D02*
X177954819Y-110919047D01*
X177954819Y-110919047D02*
X178002438Y-111014285D01*
X178002438Y-111014285D02*
X178097676Y-111109523D01*
X178097676Y-111109523D02*
X178288152Y-111157142D01*
X178288152Y-111157142D02*
X178621485Y-111157142D01*
X178621485Y-111157142D02*
X178811961Y-111109523D01*
X178811961Y-111109523D02*
X178907200Y-111014285D01*
X178907200Y-111014285D02*
X178954819Y-110919047D01*
X178954819Y-110919047D02*
X178954819Y-110728571D01*
X178050057Y-111538095D02*
X178002438Y-111585714D01*
X178002438Y-111585714D02*
X177954819Y-111680952D01*
X177954819Y-111680952D02*
X177954819Y-111919047D01*
X177954819Y-111919047D02*
X178002438Y-112014285D01*
X178002438Y-112014285D02*
X178050057Y-112061904D01*
X178050057Y-112061904D02*
X178145295Y-112109523D01*
X178145295Y-112109523D02*
X178240533Y-112109523D01*
X178240533Y-112109523D02*
X178383390Y-112061904D01*
X178383390Y-112061904D02*
X178954819Y-111490476D01*
X178954819Y-111490476D02*
X178954819Y-112109523D01*
D11*
%TO.C,U9*%
X172050000Y-98000000D02*
X172050000Y-101600000D01*
X176500000Y-99800000D02*
G75*
G02*
X172061522Y-101638478I-2600000J0D01*
G01*
X172061522Y-97961522D02*
G75*
G02*
X176500000Y-99800000I1838478J-1838478D01*
G01*
%TO.C,U8*%
X119900000Y-101680000D02*
X119900000Y-98080000D01*
X115450000Y-99880000D02*
G75*
G02*
X119888478Y-98041522I2600000J0D01*
G01*
X119888478Y-101718478D02*
G75*
G02*
X115450000Y-99880000I-1838478J1838478D01*
G01*
%TO.C,Q1*%
X172069000Y-96170000D02*
X172069000Y-80030000D01*
X177340000Y-80030000D02*
X172069000Y-80030000D01*
X177340000Y-86296000D02*
X172069000Y-86296000D01*
X177340000Y-89905000D02*
X172069000Y-89905000D01*
X177340000Y-96170000D02*
X172069000Y-96170000D01*
X177340000Y-96170000D02*
X177340000Y-80030000D01*
%TO.C,D5*%
X115184000Y-68580000D02*
X115184000Y-78820000D01*
X115184000Y-68580000D02*
X119825000Y-68580000D01*
X115184000Y-78820000D02*
X119825000Y-78820000D01*
X118315000Y-68580000D02*
X118315000Y-78820000D01*
X118315000Y-71849000D02*
X119825000Y-71849000D01*
X118315000Y-75550000D02*
X119825000Y-75550000D01*
X119825000Y-68580000D02*
X119825000Y-78820000D01*
%TO.C,Q9*%
X114660000Y-80080000D02*
X114660000Y-96220000D01*
X114660000Y-80080000D02*
X119931000Y-80080000D01*
X114660000Y-86345000D02*
X119931000Y-86345000D01*
X114660000Y-89954000D02*
X119931000Y-89954000D01*
X114660000Y-96220000D02*
X119931000Y-96220000D01*
X119931000Y-80080000D02*
X119931000Y-96220000D01*
%TO.C,REF\u002A\u002A*%
D12*
X120000000Y-150000000D02*
X130000000Y-150000000D01*
X130000000Y-50000000D01*
X120000000Y-50000000D01*
X120000000Y-150000000D01*
D11*
%TO.C,Q4*%
X114680000Y-103780000D02*
X114680000Y-119920000D01*
X114680000Y-103780000D02*
X119951000Y-103780000D01*
X114680000Y-110045000D02*
X119951000Y-110045000D01*
X114680000Y-113654000D02*
X119951000Y-113654000D01*
X114680000Y-119920000D02*
X119951000Y-119920000D01*
X119951000Y-103780000D02*
X119951000Y-119920000D01*
%TO.C,C20*%
X155065580Y-111290000D02*
X154784420Y-111290000D01*
X155065580Y-112310000D02*
X154784420Y-112310000D01*
%TO.C,C45*%
X139784420Y-109630000D02*
X140065580Y-109630000D01*
X139784420Y-110650000D02*
X140065580Y-110650000D01*
%TO.C,U14*%
X172175000Y-133820000D02*
X172175000Y-123580000D01*
X173685000Y-126850000D02*
X172175000Y-126850000D01*
X173685000Y-130551000D02*
X172175000Y-130551000D01*
X173685000Y-133820000D02*
X173685000Y-123580000D01*
X176816000Y-123580000D02*
X172175000Y-123580000D01*
X176816000Y-133820000D02*
X172175000Y-133820000D01*
X176816000Y-133820000D02*
X176816000Y-123580000D01*
%TO.C,U18*%
X172130000Y-64780000D02*
X172130000Y-54540000D01*
X173640000Y-57810000D02*
X172130000Y-57810000D01*
X173640000Y-61511000D02*
X172130000Y-61511000D01*
X173640000Y-64780000D02*
X173640000Y-54540000D01*
X176771000Y-54540000D02*
X172130000Y-54540000D01*
X176771000Y-64780000D02*
X172130000Y-64780000D01*
X176771000Y-64780000D02*
X176771000Y-54540000D01*
%TO.C,REF\u002A\u002A*%
D12*
X162000000Y-150000000D02*
X172000000Y-150000000D01*
X172000000Y-50000000D01*
X162000000Y-50000000D01*
X162000000Y-150000000D01*
D11*
%TO.C,Q2*%
X172049000Y-119870000D02*
X172049000Y-103730000D01*
X177320000Y-103730000D02*
X172049000Y-103730000D01*
X177320000Y-109996000D02*
X172049000Y-109996000D01*
X177320000Y-113605000D02*
X172049000Y-113605000D01*
X177320000Y-119870000D02*
X172049000Y-119870000D01*
X177320000Y-119870000D02*
X177320000Y-103730000D01*
%TD*%
M02*
