M48
; DRILL file {KiCad 8.0.0} date 2024-03-22T17:01:35+0100
; FORMAT={-:-/ absolute / inch / decimal}
; #@! TF.CreationDate,2024-03-22T17:01:35+01:00
; #@! TF.GenerationSoftware,Kicad,Pcbnew,8.0.0
; #@! TF.FileFunction,Plated,1,4,PTH
FMAT,2
INCH
; #@! TA.AperFunction,Plated,PTH,ViaDrill
T1C0.0118
; #@! TA.AperFunction,Plated,PTH,ViaDrill
T2C0.0157
; #@! TA.AperFunction,Plated,PTH,ComponentDrill
T3C0.0295
; #@! TA.AperFunction,Plated,PTH,ComponentDrill
T4C0.0315
; #@! TA.AperFunction,Plated,PTH,ComponentDrill
T5C0.0374
; #@! TA.AperFunction,Plated,PTH,ComponentDrill
T6C0.0394
; #@! TA.AperFunction,Plated,PTH,ComponentDrill
T7C0.0433
; #@! TA.AperFunction,Plated,PTH,ComponentDrill
T8C0.0512
; #@! TA.AperFunction,Plated,PTH,ComponentDrill
T9C0.0591
; #@! TA.AperFunction,Plated,PTH,ComponentDrill
T10C0.0598
; #@! TA.AperFunction,Plated,PTH,ComponentDrill
T11C0.1693
%
G90
G05
T1
X4.8681Y-5.1752
T2
X3.8976Y-2.3622
X3.9685Y-5.1181
X3.9724Y-5.378
X3.9764Y-3.2283
X3.9823Y-5.8642
X3.9961Y-2.7953
X4.0354Y-3.9567
X4.0354Y-4.1339
X4.0354Y-4.5276
X4.0354Y-4.7244
X4.0551Y-3.7402
X4.0551Y-4.3898
X4.1575Y-5.1142
X4.1929Y-2.1654
X4.1949Y-4.1378
X4.1949Y-4.189
X4.1949Y-4.2421
X4.2008Y-3.2028
X4.2008Y-3.2539
X4.2008Y-3.3051
X4.2402Y-4.1378
X4.2402Y-4.189
X4.2402Y-4.2402
X4.2461Y-3.2028
X4.2461Y-3.2539
X4.2461Y-3.3051
X4.2933Y-5.372
X4.3307Y-2.0669
X4.3307Y-2.5925
X4.3307Y-3.4783
X4.3504Y-5.1181
X4.3524Y-3.1004
X4.3524Y-4.002
X4.3661Y-5.8268
X4.3858Y-4.315
X4.3898Y-4.6693
X4.3937Y-4.4803
X4.4035Y-2.563
X4.4055Y-2.4409
X4.4409Y-5.4528
X4.4764Y-4.5118
X4.4764Y-4.7205
X4.498Y-2.6319
X4.5138Y-2.3701
X4.5276Y-2.0669
X4.5591Y-5.2717
X4.5669Y-5.8701
X4.5689Y-5.5866
X4.5984Y-4.7677
X4.6535Y-5.689
X4.7165Y-5.4272
X4.7205Y-3.811
X4.7244Y-2.0669
X4.7244Y-5.8228
X4.7362Y-4.7874
X4.7402Y-5.1496
X4.7461Y-5.6063
X4.8129Y-5.2206
X4.8287Y-5.0256
X4.8307Y-2.6417
X4.8327Y-3.8996
X4.8346Y-3.9783
X4.8398Y-5.1523
X4.8445Y-2.374
X4.8524Y-3.7106
X4.8524Y-4.1299
X4.8661Y-4.6417
X4.872Y-4.9232
X4.8937Y-5.3386
X4.8957Y-5.1161
X4.9016Y-5.1909
X4.9075Y-2.6398
X4.9094Y-4.3937
X4.9193Y-4.9508
X4.9213Y-2.0669
X4.9213Y-3.689
X4.9232Y-2.378
X4.9232Y-4.498
X4.9291Y-4.8051
X4.9547Y-4.0591
X4.9606Y-4.5812
X4.9705Y-5.4409
X4.9843Y-2.4528
X4.9862Y-2.561
X4.9921Y-5.2244
X4.9961Y-4.5453
X4.9961Y-4.8189
X5.0045Y-5.3203
X5.0098Y-4.1713
X5.0138Y-3.4311
X5.0157Y-3.689
X5.0305Y-5.4321
X5.0335Y-5.1229
X5.0374Y-3.8445
X5.0433Y-5.2382
X5.0579Y-4.7709
X5.0669Y-5.3268
X5.0689Y-5.4193
X5.0768Y-2.502
X5.0787Y-4.2992
X5.0846Y-4.6476
X5.0965Y-4.0512
X5.0965Y-5.8524
X5.0984Y-4.122
X5.1201Y-4.2461
X5.124Y-5.185
X5.124Y-5.3406
X5.1535Y-2.5039
X5.1575Y-4.7618
X5.1614Y-4.7028
X5.1654Y-4.6043
X5.1654Y-4.9429
X5.1673Y-4.1791
X5.1693Y-4.6575
X5.1693Y-5.2618
X5.1732Y-5.313
X5.1969Y-2.6496
X5.2047Y-3.9961
X5.2087Y-4.3465
X5.2126Y-3.248
X5.2165Y-2.5059
X5.2185Y-5.2618
X5.2598Y-5.1417
X5.2598Y-5.2618
X5.2657Y-3.0866
X5.2717Y-3.5315
X5.2717Y-4.8268
X5.2795Y-2.7638
X5.2815Y-2.4646
X5.2913Y-5.3327
X5.2933Y-4.7264
X5.2933Y-5.0709
X5.2933Y-5.1102
X5.2997Y-2.034
X5.3031Y-4.9114
X5.3071Y-3.6654
X5.3189Y-3.7717
X5.3307Y-5.2913
X5.3366Y-4.3445
X5.3386Y-4.0669
X5.3386Y-5.0276
X5.3504Y-4.5472
X5.3568Y-2.4847
X5.3583Y-4.122
X5.3602Y-4.1821
X5.3661Y-4.9134
X5.3701Y-2.6496
X5.3937Y-5.5413
X5.3937Y-5.6004
X5.3937Y-5.6654
X5.3937Y-5.7244
X5.3996Y-2.0778
X5.4035Y-4.6752
X5.4232Y-5.0866
X5.4252Y-3.9843
X5.4331Y-4.5315
X5.4508Y-4.8169
X5.4626Y-5.5413
X5.4626Y-5.6004
X5.4646Y-5.6693
X5.4646Y-5.7283
X5.4749Y-2.3174
X5.4749Y-2.4237
X5.4803Y-2.5
X5.4803Y-4.2972
X5.4961Y-5.1339
X5.5Y-3.1043
X5.5059Y-4.4232
X5.5079Y-3.4882
X5.5089Y-2.7343
X5.5197Y-3.252
X5.5202Y-2.3174
X5.5241Y-5.5717
X5.5354Y-4.2972
X5.5433Y-5.3031
X5.5433Y-5.3583
X5.5492Y-3.8366
X5.5531Y-3.3228
X5.5536Y-2.4237
X5.5576Y-2.5064
X5.5581Y-2.7343
X5.5652Y-4.7837
X5.5669Y-3.5472
X5.5669Y-5.2362
X5.5753Y-2.341
X5.5787Y-2.6299
X5.5906Y-5.5413
X5.5906Y-5.6004
X5.5906Y-5.6969
X5.5969Y-2.4277
X5.5984Y-5.3031
X5.5984Y-5.3583
X5.6181Y-4.0276
X5.626Y-4.8602
X5.6319Y-4.811
X5.6358Y-4.6437
X5.6457Y-5.2362
X5.6496Y-5.5413
X5.6496Y-5.6004
X5.6575Y-5.3031
X5.6575Y-5.3583
X5.6639Y-2.4237
X5.6678Y-2.4882
X5.6799Y-4.2354
X5.6811Y-4.3996
X5.7126Y-4.0591
X5.7147Y-4.8977
X5.7165Y-5.3031
X5.7165Y-5.3583
X5.7205Y-3.2756
X5.7205Y-3.4488
X5.7244Y-3.6929
X5.7343Y-5.0591
X5.7421Y-4.6909
X5.748Y-4.9606
X5.75Y-4.1457
X5.75Y-4.2717
X5.7559Y-4.4685
X5.7795Y-2.4252
X5.7854Y-3.9843
X5.7856Y-4.7207
X5.7992Y-5.1299
X5.815Y-4.4429
X5.8169Y-4.8445
X5.8248Y-4.3976
X5.8346Y-4.2126
X5.8386Y-3.1732
X5.8465Y-3.8701
X5.8484Y-4.0551
X5.8524Y-3.6024
X5.8543Y-3.435
X5.8583Y-5.2559
X5.8583Y-5.3622
X5.8622Y-5.5472
X5.8642Y-3.3248
X5.8642Y-4.4331
X5.8898Y-4.9724
X5.8917Y-5.0374
X5.8976Y-5.6457
X5.8996Y-4.7579
X5.908Y-2.4257
X5.9316Y-2.3174
X5.9528Y-4.2441
X5.9606Y-5.2402
X5.9606Y-5.3543
X5.9611Y-2.4257
X5.9724Y-4.6732
X5.9921Y-2.2244
X5.9921Y-3.1732
X6.0315Y-3.8898
X6.0472Y-2.5669
X6.0492Y-4.4488
X6.063Y-4.1117
X6.0669Y-3.372
X6.0669Y-4.062
X6.0866Y-5.2402
X6.0866Y-5.3386
X6.0984Y-4.4544
X6.0984Y-4.6174
X6.1063Y-3.75
X6.1122Y-3.5551
X6.1122Y-4.3327
X6.1161Y-3.8878
X6.1201Y-3.1496
X6.122Y-5.063
X6.128Y-4.9213
X6.1398Y-3.9803
X6.1457Y-4.4429
X6.1811Y-2.0276
X6.1909Y-5.7677
X6.1949Y-5.5906
X6.2244Y-3.0866
X6.2264Y-3.5098
X6.2402Y-4.1299
X6.248Y-2.4606
X6.248Y-4.3084
X6.2579Y-4.6555
X6.2717Y-4.4173
X6.2776Y-3.8681
X6.2835Y-2.3701
X6.315Y-2.7283
X6.3189Y-4.0354
X6.3386Y-3.6378
X6.3386Y-5.4528
X6.3543Y-3.2815
X6.374Y-5.7441
X6.378Y-3.1496
X6.378Y-5.1083
X6.3789Y-4.1677
X6.3858Y-4.2913
X6.4154Y-3.5256
X6.4173Y-5.563
X6.4252Y-3.8642
X6.4252Y-4.1043
X6.4331Y-2.252
X6.4449Y-2.6339
X6.4488Y-2.4094
X6.4528Y-2.1811
X6.4783Y-5.2441
X6.4823Y-4.0492
X6.4843Y-5.3425
X6.498Y-3.9764
X6.5039Y-2.5472
X6.5157Y-4.9331
X6.5177Y-4.7953
X6.5217Y-4.4232
X6.5315Y-2.2992
X6.5472Y-3.5098
X6.5608Y-3.6533
X6.5787Y-2.7205
X6.5906Y-4.1417
X6.5984Y-2.5472
X6.6319Y-4.3622
X6.6417Y-4.7618
X6.6457Y-3.8957
X6.6496Y-3.9882
X6.6516Y-3.5256
X6.6516Y-4.9331
X6.6555Y-5.126
X6.6673Y-3.7165
X6.6732Y-2.0276
X6.7087Y-5.2717
X6.7756Y-2.2402
X6.7835Y-3.7992
X6.7835Y-4.311
X6.7874Y-2.4724
X6.7913Y-3.0472
X6.7913Y-4.0787
X6.8189Y-4.9606
X6.8268Y-4.7874
X6.8268Y-5.2795
X6.8524Y-5.6476
X6.8937Y-2.748
X6.9173Y-5.5354
X6.9252Y-3.7913
X6.9291Y-4.0827
X6.9488Y-5.8268
X6.9941Y-4.7598
X7.0079Y-2.0276
X7.0236Y-5.0
X7.0276Y-2.4173
X7.0315Y-2.248
X7.0433Y-4.2756
X7.0472Y-4.4016
X7.0591Y-2.874
X7.0748Y-5.3583
X7.0787Y-3.8189
X7.0886Y-3.5217
X7.1417Y-4.8858
X7.1772Y-5.2441
X7.1929Y-2.626
X7.2402Y-2.9921
X7.2488Y-4.5669
X7.2488Y-4.6181
X7.2488Y-4.6673
X7.2508Y-3.6319
X7.2508Y-3.6811
X7.2508Y-3.7303
X7.252Y-3.4606
X7.2618Y-3.2402
X7.2941Y-4.5669
X7.2941Y-4.6181
X7.2941Y-4.6673
X7.2961Y-3.6319
X7.2961Y-3.6811
X7.2961Y-3.7303
X7.3031Y-2.0276
T3
X4.6476Y-3.8823
X4.6476Y-3.9323
X4.6476Y-3.9823
X6.8465Y-3.8791
X6.8465Y-3.9291
X6.8465Y-3.9791
T4
X5.6213Y-2.7362
X5.6213Y-3.0362
X5.7213Y-2.7362
X5.7213Y-3.0362
X5.8213Y-2.7362
X5.8213Y-3.0362
X5.9213Y-2.7362
X5.9213Y-3.0362
T5
X5.4173Y-3.4449
X5.4173Y-3.5433
X5.4173Y-3.6417
X5.4173Y-3.7402
X6.2982Y-4.7697
X6.2982Y-4.8681
X6.2982Y-4.9665
T6
X4.0837Y-5.285
X4.0837Y-5.385
X4.0837Y-5.485
X4.0837Y-5.585
X4.0837Y-5.685
X4.1837Y-5.285
X4.1837Y-5.385
X4.1837Y-5.485
X4.1837Y-5.585
X4.1837Y-5.685
X4.5669Y-4.8386
X4.5669Y-4.9386
X4.5669Y-5.0386
T7
X4.5888Y-2.8016
X4.5888Y-3.0016
X6.9055Y-2.2488
X6.9055Y-2.3488
X6.9055Y-2.4488
X6.9073Y-4.9669
X6.9073Y-5.0669
X6.9073Y-5.1669
T8
X3.9764Y-2.5394
X3.9764Y-3.4252
X5.4311Y-5.3051
X6.3169Y-5.3051
T9
X4.6252Y-3.2559
X4.6252Y-3.4705
X4.6252Y-3.685
X4.626Y-4.189
X4.626Y-4.4035
X4.626Y-4.6181
X6.8701Y-4.187
X6.8701Y-4.4016
X6.8701Y-4.6161
X6.8709Y-3.2539
X6.8709Y-3.4685
X6.8709Y-3.6831
T10
X3.9567Y-3.6386
X3.9567Y-3.8386
X5.8173Y-5.7323
X6.0173Y-5.7323
T11
X4.9213Y-2.8346
X4.9213Y-5.7087
X6.5748Y-3.1496
X6.5748Y-5.7087
M30
